%TF.GenerationSoftware,KiCad,Pcbnew,6.0.2+dfsg-1*%
%TF.CreationDate,2023-02-12T21:56:37+09:00*%
%TF.ProjectId,EL-210-MOD,454c2d32-3130-42d4-9d4f-442e6b696361,1.0.2*%
%TF.SameCoordinates,Original*%
%TF.FileFunction,Copper,L2,Bot*%
%TF.FilePolarity,Positive*%
%FSLAX46Y46*%
G04 Gerber Fmt 4.6, Leading zero omitted, Abs format (unit mm)*
G04 Created by KiCad (PCBNEW 6.0.2+dfsg-1) date 2023-02-12 21:56:37*
%MOMM*%
%LPD*%
G01*
G04 APERTURE LIST*
G04 Aperture macros list*
%AMRoundRect*
0 Rectangle with rounded corners*
0 $1 Rounding radius*
0 $2 $3 $4 $5 $6 $7 $8 $9 X,Y pos of 4 corners*
0 Add a 4 corners polygon primitive as box body*
4,1,4,$2,$3,$4,$5,$6,$7,$8,$9,$2,$3,0*
0 Add four circle primitives for the rounded corners*
1,1,$1+$1,$2,$3*
1,1,$1+$1,$4,$5*
1,1,$1+$1,$6,$7*
1,1,$1+$1,$8,$9*
0 Add four rect primitives between the rounded corners*
20,1,$1+$1,$2,$3,$4,$5,0*
20,1,$1+$1,$4,$5,$6,$7,0*
20,1,$1+$1,$6,$7,$8,$9,0*
20,1,$1+$1,$8,$9,$2,$3,0*%
G04 Aperture macros list end*
%TA.AperFunction,SMDPad,CuDef*%
%ADD10R,0.500000X6.000000*%
%TD*%
%TA.AperFunction,ComponentPad*%
%ADD11R,1.600000X1.600000*%
%TD*%
%TA.AperFunction,ComponentPad*%
%ADD12C,1.600000*%
%TD*%
%TA.AperFunction,ComponentPad*%
%ADD13R,1.700000X1.700000*%
%TD*%
%TA.AperFunction,ComponentPad*%
%ADD14O,1.700000X1.700000*%
%TD*%
%TA.AperFunction,SMDPad,CuDef*%
%ADD15R,1.400000X0.300000*%
%TD*%
%TA.AperFunction,SMDPad,CuDef*%
%ADD16RoundRect,0.237500X-0.237500X0.250000X-0.237500X-0.250000X0.237500X-0.250000X0.237500X0.250000X0*%
%TD*%
%TA.AperFunction,SMDPad,CuDef*%
%ADD17RoundRect,0.237500X0.237500X-0.250000X0.237500X0.250000X-0.237500X0.250000X-0.237500X-0.250000X0*%
%TD*%
%TA.AperFunction,ViaPad*%
%ADD18C,0.800000*%
%TD*%
%TA.AperFunction,Conductor*%
%ADD19C,0.250000*%
%TD*%
G04 APERTURE END LIST*
D10*
%TO.P,P1,1,GND*%
%TO.N,GND*%
X130000000Y-134500000D03*
%TO.P,P1,2,KC0*%
%TO.N,/KC0*%
X135500000Y-134500000D03*
%TO.P,P1,3,KC1*%
%TO.N,/KC1*%
X137756000Y-134500000D03*
%TO.P,P1,4,KC2*%
%TO.N,/KC2*%
X140012000Y-134500000D03*
%TO.P,P1,5,KR0*%
%TO.N,/KR0*%
X142268000Y-134500000D03*
%TO.P,P1,6,KR1*%
%TO.N,/KR1*%
X144524000Y-134500000D03*
%TO.P,P1,7,KR2*%
%TO.N,/KR2*%
X146780000Y-134500000D03*
%TO.P,P1,8,KR3*%
%TO.N,/KR3*%
X149036000Y-134500000D03*
%TO.P,P1,9,KR4*%
%TO.N,/KR4*%
X151292000Y-134500000D03*
%TO.P,P1,10,KR5*%
%TO.N,/KR5*%
X153548000Y-134500000D03*
%TO.P,P1,11,KR6*%
%TO.N,/KR6*%
X155804000Y-134500000D03*
%TO.P,P1,12,NC*%
%TO.N,unconnected-(P1-Pad12)*%
X162200000Y-134500000D03*
%TO.P,P1,13,KR7*%
%TO.N,/KR7*%
X164300000Y-134500000D03*
%TO.P,P1,14,KR8*%
%TO.N,/KR8*%
X166580000Y-134500000D03*
%TO.P,P1,15,GND*%
%TO.N,GND*%
X168860000Y-134500000D03*
%TO.P,P1,16,GND*%
X174560000Y-134500000D03*
%TD*%
D11*
%TO.P,U1,1,H1*%
%TO.N,/H1*%
X128000000Y-85500000D03*
D12*
%TO.P,U1,2,Seg_a*%
%TO.N,/SEG_A*%
X130540000Y-85500000D03*
%TO.P,U1,3,D8*%
%TO.N,Net-(U1-Pad3)*%
X133080000Y-85500000D03*
%TO.P,U1,4,Seg_g*%
%TO.N,Net-(U1-Pad4)*%
X135620000Y-85500000D03*
%TO.P,U1,5,D7*%
%TO.N,Net-(U1-Pad5)*%
X138160000Y-85500000D03*
%TO.P,U1,6,Seg_f*%
%TO.N,Net-(U1-Pad6)*%
X140700000Y-85500000D03*
%TO.P,U1,7,D6*%
%TO.N,Net-(U1-Pad7)*%
X143240000Y-85500000D03*
%TO.P,U1,8,Seg_e*%
%TO.N,Net-(U1-Pad8)*%
X145780000Y-85500000D03*
%TO.P,U1,9,D5*%
%TO.N,Net-(U1-Pad9)*%
X148320000Y-85500000D03*
%TO.P,U1,10,D4*%
%TO.N,Net-(U1-Pad10)*%
X150860000Y-85500000D03*
%TO.P,U1,11,Seg_d*%
%TO.N,Net-(U1-Pad11)*%
X153400000Y-85500000D03*
%TO.P,U1,12,D3*%
%TO.N,Net-(U1-Pad12)*%
X155940000Y-85500000D03*
%TO.P,U1,13,DP*%
%TO.N,Net-(U1-Pad13)*%
X158480000Y-85500000D03*
%TO.P,U1,14,D2*%
%TO.N,Net-(U1-Pad14)*%
X161020000Y-85500000D03*
%TO.P,U1,15,Seg_c*%
%TO.N,Net-(U1-Pad15)*%
X163560000Y-85500000D03*
%TO.P,U1,16,D1*%
%TO.N,Net-(U1-Pad16)*%
X166100000Y-85500000D03*
%TO.P,U1,17,Seg_b*%
%TO.N,Net-(U1-Pad17)*%
X168640000Y-85500000D03*
%TO.P,U1,18,D0*%
%TO.N,Net-(U1-Pad18)*%
X171180000Y-85500000D03*
%TO.P,U1,19,H2*%
%TO.N,/H2*%
X173720000Y-85500000D03*
%TD*%
D13*
%TO.P,J2,1,Pin_1*%
%TO.N,+BATT*%
X124080000Y-85930000D03*
D14*
%TO.P,J2,2,Pin_2*%
%TO.N,GND*%
X121540000Y-85930000D03*
%TD*%
D13*
%TO.P,J1,1,Pin_1*%
%TO.N,/SWCLK*%
X178055000Y-113235000D03*
D14*
%TO.P,J1,2,Pin_2*%
%TO.N,GND*%
X175515000Y-113235000D03*
%TO.P,J1,3,Pin_3*%
%TO.N,/SWDIO*%
X172975000Y-113235000D03*
%TO.P,J1,4,Pin_4*%
%TO.N,/NRST*%
X170435000Y-113235000D03*
%TO.P,J1,5,Pin_5*%
%TO.N,/LPUART2_TX*%
X167895000Y-113235000D03*
%TD*%
D15*
%TO.P,U5,1,V+*%
%TO.N,+3V3*%
X154220000Y-102075000D03*
%TO.P,U5,2,NO1*%
X154220000Y-102575000D03*
%TO.P,U5,3,COM1*%
%TO.N,Net-(R2-Pad2)*%
X154220000Y-103075000D03*
%TO.P,U5,4,IN1*%
%TO.N,/TIM1_CH1N*%
X154220000Y-103575000D03*
%TO.P,U5,5,NC1*%
%TO.N,GND*%
X154220000Y-104075000D03*
%TO.P,U5,6,GND*%
X149820000Y-104075000D03*
%TO.P,U5,7,NC2*%
X149820000Y-103575000D03*
%TO.P,U5,8,IN2*%
%TO.N,/TIM1_CH1*%
X149820000Y-103075000D03*
%TO.P,U5,9,COM2*%
%TO.N,Net-(R3-Pad1)*%
X149820000Y-102575000D03*
%TO.P,U5,10,NO2*%
%TO.N,+3V3*%
X149820000Y-102075000D03*
%TD*%
D16*
%TO.P,R2,1*%
%TO.N,/H2*%
X153290000Y-97082500D03*
%TO.P,R2,2*%
%TO.N,Net-(R2-Pad2)*%
X153290000Y-98907500D03*
%TD*%
D17*
%TO.P,R3,1*%
%TO.N,Net-(R3-Pad1)*%
X150115000Y-98907500D03*
%TO.P,R3,2*%
%TO.N,/H1*%
X150115000Y-97082500D03*
%TD*%
D18*
%TO.N,GND*%
X137140800Y-101829700D03*
X139295800Y-102531600D03*
X168530000Y-103075000D03*
X124441800Y-97829300D03*
X141665600Y-97833100D03*
X180173000Y-93994000D03*
X143020000Y-119906900D03*
X170653500Y-97211200D03*
X143412200Y-122673700D03*
X167767000Y-117295600D03*
X166524800Y-110253300D03*
X136033000Y-94385000D03*
X123689200Y-100378900D03*
X168126500Y-101099900D03*
X174893100Y-123548500D03*
%TO.N,/BLANK*%
X160825200Y-105499900D03*
X159789700Y-115556600D03*
%TO.N,/SPI1_SCK*%
X159789100Y-101664600D03*
X155092500Y-117662000D03*
%TO.N,/LOAD*%
X159789100Y-117999200D03*
X162823300Y-100100500D03*
%TO.N,/SPI1_MOSI*%
X151702500Y-98903200D03*
X151561800Y-117111100D03*
%TO.N,+3V3*%
X156381000Y-101586000D03*
X155830000Y-105615000D03*
X145670000Y-101805000D03*
X157735000Y-103710000D03*
X150620100Y-100843800D03*
%TO.N,/NRST*%
X147657900Y-125852100D03*
X146940000Y-122760000D03*
%TO.N,/TIM1_CH1N*%
X153776200Y-121724700D03*
%TO.N,/TIM1_CH1*%
X151997500Y-119679300D03*
%TO.N,/SWDIO*%
X163449700Y-116772300D03*
%TO.N,/SWCLK*%
X166337700Y-114167800D03*
%TO.N,/EN24V*%
X133359800Y-101848900D03*
X141225000Y-110060000D03*
%TO.N,/KC0*%
X149980100Y-120200700D03*
%TO.N,/KC1*%
X146216000Y-121382600D03*
%TO.N,/KC2*%
X143146300Y-123786400D03*
%TO.N,/KR0*%
X143975500Y-124899200D03*
%TO.N,/KR1*%
X146407200Y-125084900D03*
%TO.N,/KR2*%
X152464900Y-124801300D03*
X147908000Y-132347000D03*
X152420000Y-132347000D03*
%TO.N,/KR3*%
X152448600Y-121285200D03*
%TO.N,/KR4*%
X151113900Y-121636300D03*
%TO.N,/KR5*%
X154363900Y-124801300D03*
%TO.N,/KR6*%
X156726000Y-123375500D03*
%TO.N,/KR7*%
X161713900Y-119933600D03*
%TO.N,/KR8*%
X161050300Y-118086900D03*
%TO.N,/TIM1_CH2*%
X156885500Y-128511700D03*
X157399100Y-124355900D03*
%TD*%
D19*
%TO.N,GND*%
X174560000Y-128536700D02*
X174560000Y-134500000D01*
X168860000Y-128755800D02*
X168860000Y-134500000D01*
X130000000Y-128382000D02*
X130000000Y-134500000D01*
X149820000Y-103575000D02*
X148345000Y-103575000D01*
X155830000Y-104345000D02*
X155560000Y-104075000D01*
X154220000Y-104075000D02*
X155560000Y-104075000D01*
%TO.N,/H1*%
X140426300Y-97082500D02*
X129125100Y-85781300D01*
X129125100Y-85781300D02*
X129125100Y-85500000D01*
X150115000Y-97082500D02*
X140426300Y-97082500D01*
X128000000Y-85500000D02*
X129125100Y-85500000D01*
%TO.N,/H2*%
X162137500Y-97082500D02*
X173720000Y-85500000D01*
X153290000Y-97082500D02*
X162137500Y-97082500D01*
%TO.N,/BLANK*%
X159789700Y-115556600D02*
X160825200Y-114521100D01*
X160825200Y-114521100D02*
X160825200Y-105499900D01*
%TO.N,/SPI1_SCK*%
X159789100Y-112965400D02*
X159789100Y-101664600D01*
X155092500Y-117662000D02*
X159789100Y-112965400D01*
%TO.N,/LOAD*%
X159789100Y-117999200D02*
X162823300Y-114965000D01*
X162823300Y-114965000D02*
X162823300Y-100100500D01*
%TO.N,/SPI1_MOSI*%
X151800800Y-116872100D02*
X151800800Y-99001500D01*
X151561800Y-117111100D02*
X151800800Y-116872100D01*
X151800800Y-99001500D02*
X151702500Y-98903200D01*
%TO.N,+3V3*%
X156234100Y-101586000D02*
X155245100Y-102575000D01*
X149820000Y-101643900D02*
X149820000Y-102075000D01*
X154220000Y-102075000D02*
X155245100Y-102075000D01*
X146631200Y-100843800D02*
X145670000Y-101805000D01*
X157735000Y-103710000D02*
X155830000Y-105615000D01*
X155245100Y-102075000D02*
X155245100Y-102575000D01*
X150620100Y-100843800D02*
X149820000Y-101643900D01*
X156381000Y-101586000D02*
X156234100Y-101586000D01*
X154220000Y-102575000D02*
X155245100Y-102575000D01*
X154220000Y-102575000D02*
X155245100Y-102575000D01*
X150620100Y-100843800D02*
X146631200Y-100843800D01*
%TO.N,/NRST*%
X147657900Y-125852100D02*
X147657900Y-123477900D01*
X147657900Y-123477900D02*
X146940000Y-122760000D01*
%TO.N,/TIM1_CH1N*%
X153194900Y-103575000D02*
X153194900Y-121143400D01*
X154220000Y-103575000D02*
X153194900Y-103575000D01*
X153194900Y-121143400D02*
X153776200Y-121724700D01*
%TO.N,/TIM1_CH1*%
X149820000Y-103075000D02*
X150845100Y-103075000D01*
X150794600Y-118476400D02*
X151997500Y-119679300D01*
X150845100Y-103075000D02*
X150845100Y-116611200D01*
X150845100Y-116611200D02*
X150794600Y-116661700D01*
X150794600Y-116661700D02*
X150794600Y-118476400D01*
%TO.N,/SWDIO*%
X170989900Y-112059800D02*
X171799900Y-112869800D01*
X163449700Y-115974100D02*
X167364000Y-112059800D01*
X171799900Y-112869800D02*
X171799900Y-113235000D01*
X163449700Y-116772300D02*
X163449700Y-115974100D01*
X167364000Y-112059800D02*
X170989900Y-112059800D01*
X172975000Y-113235000D02*
X171799900Y-113235000D01*
%TO.N,/SWCLK*%
X166629100Y-114459200D02*
X166337700Y-114167800D01*
X176879900Y-113602200D02*
X176022900Y-114459200D01*
X176022900Y-114459200D02*
X166629100Y-114459200D01*
X178055000Y-113235000D02*
X176879900Y-113235000D01*
X176879900Y-113235000D02*
X176879900Y-113602200D01*
%TO.N,/EN24V*%
X133359800Y-102194800D02*
X133359800Y-101848900D01*
X141225000Y-110060000D02*
X133359800Y-102194800D01*
%TO.N,/KC0*%
X144146900Y-120200700D02*
X135500000Y-128847600D01*
X149980100Y-120200700D02*
X144146900Y-120200700D01*
X135500000Y-128847600D02*
X135500000Y-134500000D01*
%TO.N,/KC1*%
X137756000Y-127245100D02*
X137756000Y-134500000D01*
X146216000Y-121382600D02*
X143618500Y-121382600D01*
X143618500Y-121382600D02*
X137756000Y-127245100D01*
%TO.N,/KC2*%
X140012100Y-126920600D02*
X140012100Y-131174900D01*
X143146300Y-123786400D02*
X140012100Y-126920600D01*
X140012100Y-131174900D02*
X140012000Y-131174900D01*
X140012000Y-134500000D02*
X140012000Y-131174900D01*
%TO.N,/KR0*%
X142268000Y-126606700D02*
X142268000Y-134500000D01*
X143975500Y-124899200D02*
X142268000Y-126606700D01*
%TO.N,/KR1*%
X146407200Y-125084900D02*
X144524000Y-126968100D01*
X144524000Y-126968100D02*
X144524000Y-134500000D01*
%TO.N,/KR2*%
X152420000Y-132347000D02*
X152420000Y-124846200D01*
X147907900Y-132347000D02*
X147908000Y-132347000D01*
X146780000Y-131174900D02*
X147211400Y-131174900D01*
X147211400Y-131174900D02*
X147907900Y-131871400D01*
X147907900Y-131871400D02*
X147907900Y-132347000D01*
X146780000Y-134500000D02*
X146780000Y-131174900D01*
X152420000Y-124846200D02*
X152464900Y-124801300D01*
%TO.N,/KR3*%
X149036000Y-131174900D02*
X149036000Y-122672300D01*
X149036000Y-134500000D02*
X149036000Y-131174900D01*
X149036000Y-122672300D02*
X150800000Y-120908300D01*
X150800000Y-120908300D02*
X152071700Y-120908300D01*
X152071700Y-120908300D02*
X152448600Y-121285200D01*
%TO.N,/KR4*%
X151113900Y-130996800D02*
X151292000Y-131174900D01*
X151113900Y-121636300D02*
X151113900Y-130996800D01*
X151292000Y-134500000D02*
X151292000Y-131174900D01*
%TO.N,/KR5*%
X153548000Y-125617200D02*
X154363900Y-124801300D01*
X153548000Y-134500000D02*
X153548000Y-125617200D01*
%TO.N,/KR6*%
X155804000Y-124297500D02*
X156726000Y-123375500D01*
X155804000Y-134500000D02*
X155804000Y-124297500D01*
%TO.N,/KR7*%
X164300000Y-122519700D02*
X161713900Y-119933600D01*
X164300000Y-134500000D02*
X164300000Y-122519700D01*
%TO.N,/KR8*%
X161050300Y-118086900D02*
X166580000Y-123616600D01*
X166580000Y-123616600D02*
X166580000Y-134500000D01*
%TO.N,/TIM1_CH2*%
X157399100Y-127998100D02*
X156885500Y-128511700D01*
X157399100Y-124355900D02*
X157399100Y-127998100D01*
%TO.N,Net-(R2-Pad2)*%
X153290000Y-98907500D02*
X153194900Y-99002600D01*
X154220000Y-103075000D02*
X153194900Y-103075000D01*
X153194900Y-99002600D02*
X153194900Y-103075000D01*
%TO.N,Net-(R3-Pad1)*%
X151345200Y-100137700D02*
X150115000Y-98907500D01*
X150845100Y-102575000D02*
X151345200Y-102074900D01*
X151345200Y-102074900D02*
X151345200Y-100137700D01*
X149820000Y-102575000D02*
X150845100Y-102575000D01*
%TD*%
%TA.AperFunction,Conductor*%
%TO.N,GND*%
G36*
X184347121Y-73885002D02*
G01*
X184393614Y-73938658D01*
X184405000Y-73991000D01*
X184405000Y-130254000D01*
X184384998Y-130322121D01*
X184331342Y-130368614D01*
X184279000Y-130380000D01*
X167339500Y-130380000D01*
X167271379Y-130359998D01*
X167224886Y-130306342D01*
X167213500Y-130254000D01*
X167213500Y-123695368D01*
X167214027Y-123684185D01*
X167215702Y-123676692D01*
X167215402Y-123667128D01*
X167213562Y-123608602D01*
X167213500Y-123604644D01*
X167213500Y-123576744D01*
X167212996Y-123572753D01*
X167212063Y-123560911D01*
X167211756Y-123551118D01*
X167210674Y-123516711D01*
X167208462Y-123509097D01*
X167208461Y-123509092D01*
X167205023Y-123497259D01*
X167201012Y-123477895D01*
X167200768Y-123475959D01*
X167198474Y-123457803D01*
X167195557Y-123450436D01*
X167195556Y-123450431D01*
X167182198Y-123416692D01*
X167178354Y-123405465D01*
X167170377Y-123378011D01*
X167166018Y-123363007D01*
X167155707Y-123345572D01*
X167147012Y-123327824D01*
X167139552Y-123308983D01*
X167113564Y-123273213D01*
X167107048Y-123263293D01*
X167088580Y-123232065D01*
X167088578Y-123232062D01*
X167084542Y-123225238D01*
X167070221Y-123210917D01*
X167057380Y-123195883D01*
X167050131Y-123185906D01*
X167045472Y-123179493D01*
X167011395Y-123151302D01*
X167002616Y-123143312D01*
X161997422Y-118138117D01*
X161963396Y-118075805D01*
X161961207Y-118062192D01*
X161944532Y-117903535D01*
X161944532Y-117903533D01*
X161943842Y-117896972D01*
X161884827Y-117715344D01*
X161789340Y-117549956D01*
X161725123Y-117478635D01*
X161665975Y-117412945D01*
X161665974Y-117412944D01*
X161661553Y-117408034D01*
X161557693Y-117332575D01*
X161514340Y-117276352D01*
X161508265Y-117205616D01*
X161542659Y-117141545D01*
X162403722Y-116280483D01*
X162466032Y-116246459D01*
X162536848Y-116251524D01*
X162593683Y-116294071D01*
X162618494Y-116360591D01*
X162612648Y-116408514D01*
X162556158Y-116582372D01*
X162555468Y-116588933D01*
X162555468Y-116588935D01*
X162552031Y-116621635D01*
X162536196Y-116772300D01*
X162556158Y-116962228D01*
X162615173Y-117143856D01*
X162710660Y-117309244D01*
X162838447Y-117451166D01*
X162992948Y-117563418D01*
X162998976Y-117566102D01*
X162998978Y-117566103D01*
X163151319Y-117633929D01*
X163167412Y-117641094D01*
X163234881Y-117655435D01*
X163347756Y-117679428D01*
X163347761Y-117679428D01*
X163354213Y-117680800D01*
X163545187Y-117680800D01*
X163551639Y-117679428D01*
X163551644Y-117679428D01*
X163664519Y-117655435D01*
X163731988Y-117641094D01*
X163748081Y-117633929D01*
X163900422Y-117566103D01*
X163900424Y-117566102D01*
X163906452Y-117563418D01*
X164060953Y-117451166D01*
X164188740Y-117309244D01*
X164284227Y-117143856D01*
X164343242Y-116962228D01*
X164363204Y-116772300D01*
X164347369Y-116621635D01*
X164343932Y-116588935D01*
X164343932Y-116588933D01*
X164343242Y-116582372D01*
X164284227Y-116400744D01*
X164198871Y-116252903D01*
X164182133Y-116183909D01*
X164205353Y-116116817D01*
X164218895Y-116100809D01*
X165512496Y-114807208D01*
X165574808Y-114773182D01*
X165645623Y-114778247D01*
X165695226Y-114811991D01*
X165726447Y-114846666D01*
X165780624Y-114886028D01*
X165867877Y-114949421D01*
X165880948Y-114958918D01*
X165886976Y-114961602D01*
X165886978Y-114961603D01*
X166049381Y-115033909D01*
X166055412Y-115036594D01*
X166148812Y-115056447D01*
X166235756Y-115074928D01*
X166235761Y-115074928D01*
X166242213Y-115076300D01*
X166433187Y-115076300D01*
X166439626Y-115074931D01*
X166472491Y-115075793D01*
X166494624Y-115079299D01*
X166506244Y-115081705D01*
X166538059Y-115089873D01*
X166549070Y-115092700D01*
X166569324Y-115092700D01*
X166589034Y-115094251D01*
X166609043Y-115097420D01*
X166616935Y-115096674D01*
X166635680Y-115094902D01*
X166653062Y-115093259D01*
X166664919Y-115092700D01*
X175944133Y-115092700D01*
X175955316Y-115093227D01*
X175962809Y-115094902D01*
X175970735Y-115094653D01*
X175970736Y-115094653D01*
X176030886Y-115092762D01*
X176034845Y-115092700D01*
X176062756Y-115092700D01*
X176066691Y-115092203D01*
X176066756Y-115092195D01*
X176078593Y-115091262D01*
X176110851Y-115090248D01*
X176114870Y-115090122D01*
X176122789Y-115089873D01*
X176142243Y-115084221D01*
X176161600Y-115080213D01*
X176173830Y-115078668D01*
X176173831Y-115078668D01*
X176181697Y-115077674D01*
X176189068Y-115074755D01*
X176189070Y-115074755D01*
X176222812Y-115061396D01*
X176234042Y-115057551D01*
X176268883Y-115047429D01*
X176268884Y-115047429D01*
X176276493Y-115045218D01*
X176283312Y-115041185D01*
X176283317Y-115041183D01*
X176293928Y-115034907D01*
X176311676Y-115026212D01*
X176330517Y-115018752D01*
X176338297Y-115013100D01*
X176366287Y-114992764D01*
X176376207Y-114986248D01*
X176407435Y-114967780D01*
X176407438Y-114967778D01*
X176414262Y-114963742D01*
X176428583Y-114949421D01*
X176443617Y-114936580D01*
X176453594Y-114929331D01*
X176460007Y-114924672D01*
X176465058Y-114918567D01*
X176465063Y-114918562D01*
X176488199Y-114890596D01*
X176496187Y-114881818D01*
X176817560Y-114560445D01*
X176879872Y-114526419D01*
X176950687Y-114531484D01*
X176956064Y-114533943D01*
X176958295Y-114535615D01*
X177094684Y-114586745D01*
X177156866Y-114593500D01*
X178953134Y-114593500D01*
X179015316Y-114586745D01*
X179151705Y-114535615D01*
X179268261Y-114448261D01*
X179355615Y-114331705D01*
X179406745Y-114195316D01*
X179413500Y-114133134D01*
X179413500Y-112336866D01*
X179406745Y-112274684D01*
X179355615Y-112138295D01*
X179268261Y-112021739D01*
X179151705Y-111934385D01*
X179015316Y-111883255D01*
X178953134Y-111876500D01*
X177156866Y-111876500D01*
X177094684Y-111883255D01*
X176958295Y-111934385D01*
X176841739Y-112021739D01*
X176754385Y-112138295D01*
X176751233Y-112146703D01*
X176751232Y-112146705D01*
X176709722Y-112257433D01*
X176667081Y-112314198D01*
X176600519Y-112338898D01*
X176531170Y-112323691D01*
X176498546Y-112298004D01*
X176447799Y-112242234D01*
X176440273Y-112235215D01*
X176273139Y-112103222D01*
X176264552Y-112097517D01*
X176078117Y-111994599D01*
X176068705Y-111990369D01*
X175867959Y-111919280D01*
X175857988Y-111916646D01*
X175786837Y-111903972D01*
X175773540Y-111905432D01*
X175769000Y-111919989D01*
X175769000Y-113363000D01*
X175748998Y-113431121D01*
X175695342Y-113477614D01*
X175643000Y-113489000D01*
X175387000Y-113489000D01*
X175318879Y-113468998D01*
X175272386Y-113415342D01*
X175261000Y-113363000D01*
X175261000Y-111918102D01*
X175257082Y-111904758D01*
X175242806Y-111902771D01*
X175204324Y-111908660D01*
X175194288Y-111911051D01*
X174991868Y-111977212D01*
X174982359Y-111981209D01*
X174793463Y-112079542D01*
X174784738Y-112085036D01*
X174614433Y-112212905D01*
X174606726Y-112219748D01*
X174459590Y-112373717D01*
X174453109Y-112381722D01*
X174348498Y-112535074D01*
X174293587Y-112580076D01*
X174223062Y-112588247D01*
X174159315Y-112556993D01*
X174138618Y-112532509D01*
X174057822Y-112407617D01*
X174057820Y-112407614D01*
X174055014Y-112403277D01*
X173904670Y-112238051D01*
X173900619Y-112234852D01*
X173900615Y-112234848D01*
X173733414Y-112102800D01*
X173733410Y-112102798D01*
X173729359Y-112099598D01*
X173693028Y-112079542D01*
X173677136Y-112070769D01*
X173533789Y-111991638D01*
X173528920Y-111989914D01*
X173528916Y-111989912D01*
X173328087Y-111918795D01*
X173328083Y-111918794D01*
X173323212Y-111917069D01*
X173318119Y-111916162D01*
X173318116Y-111916161D01*
X173108373Y-111878800D01*
X173108367Y-111878799D01*
X173103284Y-111877894D01*
X173029452Y-111876992D01*
X172885081Y-111875228D01*
X172885079Y-111875228D01*
X172879911Y-111875165D01*
X172659091Y-111908955D01*
X172446756Y-111978357D01*
X172248607Y-112081507D01*
X172244474Y-112084610D01*
X172244471Y-112084612D01*
X172141222Y-112162134D01*
X172074737Y-112187040D01*
X172005342Y-112172048D01*
X171976474Y-112150469D01*
X171544191Y-111718186D01*
X171510165Y-111655874D01*
X171515230Y-111585059D01*
X171557777Y-111528223D01*
X171623181Y-111503497D01*
X171649216Y-111501402D01*
X171736924Y-111494346D01*
X171736929Y-111494345D01*
X171741965Y-111493940D01*
X171746873Y-111492734D01*
X171746876Y-111492734D01*
X171972792Y-111437244D01*
X171977706Y-111436037D01*
X171982358Y-111434062D01*
X171982362Y-111434061D01*
X172196498Y-111343165D01*
X172201156Y-111341188D01*
X172277646Y-111293019D01*
X172402288Y-111214528D01*
X172402291Y-111214526D01*
X172406567Y-111211833D01*
X172505422Y-111124681D01*
X172584858Y-111054650D01*
X172584861Y-111054647D01*
X172588655Y-111051302D01*
X172742734Y-110863722D01*
X172815402Y-110738866D01*
X172862299Y-110658290D01*
X172862300Y-110658288D01*
X172864841Y-110653922D01*
X172951833Y-110427298D01*
X173001474Y-110189680D01*
X173012486Y-109947183D01*
X173011905Y-109942159D01*
X172985167Y-109711071D01*
X172985166Y-109711067D01*
X172984585Y-109706044D01*
X172945517Y-109567978D01*
X172919866Y-109477331D01*
X172918490Y-109472468D01*
X172916356Y-109467892D01*
X172916354Y-109467886D01*
X172818038Y-109257046D01*
X172818036Y-109257042D01*
X172815901Y-109252464D01*
X172776095Y-109193891D01*
X172733692Y-109131498D01*
X172679456Y-109051693D01*
X172512668Y-108875319D01*
X172508641Y-108872240D01*
X172323846Y-108730953D01*
X172323842Y-108730950D01*
X172319826Y-108727880D01*
X172105891Y-108613169D01*
X171876369Y-108534138D01*
X171777022Y-108516978D01*
X171641074Y-108493496D01*
X171641068Y-108493495D01*
X171637164Y-108492821D01*
X171633203Y-108492641D01*
X171633202Y-108492641D01*
X171609494Y-108491564D01*
X171609475Y-108491564D01*
X171608075Y-108491500D01*
X171438999Y-108491500D01*
X171436491Y-108491702D01*
X171436486Y-108491702D01*
X171263076Y-108505654D01*
X171263071Y-108505655D01*
X171258035Y-108506060D01*
X171253127Y-108507266D01*
X171253124Y-108507266D01*
X171137007Y-108535787D01*
X171022294Y-108563963D01*
X171017642Y-108565938D01*
X171017638Y-108565939D01*
X170910252Y-108611522D01*
X170798844Y-108658812D01*
X170794560Y-108661510D01*
X170597712Y-108785472D01*
X170597709Y-108785474D01*
X170593433Y-108788167D01*
X170589639Y-108791512D01*
X170415142Y-108945350D01*
X170415139Y-108945353D01*
X170411345Y-108948698D01*
X170408135Y-108952606D01*
X170408134Y-108952607D01*
X170275077Y-109114595D01*
X170257266Y-109136278D01*
X170254724Y-109140646D01*
X170177830Y-109272763D01*
X170135159Y-109346078D01*
X170048167Y-109572702D01*
X169998526Y-109810320D01*
X169987514Y-110052817D01*
X169988095Y-110057837D01*
X169988095Y-110057841D01*
X170010321Y-110249928D01*
X170015415Y-110293956D01*
X170016791Y-110298820D01*
X170016792Y-110298823D01*
X170055971Y-110437279D01*
X170081510Y-110527532D01*
X170083644Y-110532108D01*
X170083646Y-110532114D01*
X170181962Y-110742954D01*
X170184099Y-110747536D01*
X170320544Y-110948307D01*
X170487332Y-111124681D01*
X170491358Y-111127759D01*
X170491359Y-111127760D01*
X170586112Y-111200204D01*
X170628080Y-111257469D01*
X170632425Y-111328332D01*
X170597769Y-111390296D01*
X170535115Y-111423686D01*
X170509583Y-111426300D01*
X167442767Y-111426300D01*
X167431584Y-111425773D01*
X167424091Y-111424098D01*
X167416165Y-111424347D01*
X167416164Y-111424347D01*
X167356014Y-111426238D01*
X167352055Y-111426300D01*
X167324144Y-111426300D01*
X167320210Y-111426797D01*
X167320209Y-111426797D01*
X167320144Y-111426805D01*
X167308307Y-111427738D01*
X167276490Y-111428738D01*
X167272029Y-111428878D01*
X167264110Y-111429127D01*
X167247126Y-111434061D01*
X167244658Y-111434778D01*
X167225306Y-111438786D01*
X167218235Y-111439680D01*
X167205203Y-111441326D01*
X167197834Y-111444243D01*
X167197832Y-111444244D01*
X167164097Y-111457600D01*
X167152869Y-111461445D01*
X167110407Y-111473782D01*
X167103584Y-111477817D01*
X167103582Y-111477818D01*
X167092972Y-111484093D01*
X167075224Y-111492788D01*
X167056383Y-111500248D01*
X167049967Y-111504910D01*
X167049966Y-111504910D01*
X167020613Y-111526236D01*
X167010693Y-111532752D01*
X166979465Y-111551220D01*
X166979462Y-111551222D01*
X166972638Y-111555258D01*
X166958317Y-111569579D01*
X166943284Y-111582419D01*
X166926893Y-111594328D01*
X166921842Y-111600434D01*
X166898702Y-111628405D01*
X166890712Y-111637184D01*
X163671895Y-114856000D01*
X163609583Y-114890026D01*
X163538767Y-114884961D01*
X163481932Y-114842414D01*
X163457121Y-114775894D01*
X163456800Y-114766905D01*
X163456800Y-100803024D01*
X163476802Y-100734903D01*
X163489158Y-100718721D01*
X163562340Y-100637444D01*
X163657827Y-100472056D01*
X163716842Y-100290428D01*
X163719190Y-100268093D01*
X163736114Y-100107065D01*
X163736804Y-100100500D01*
X163725272Y-99990782D01*
X163717532Y-99917135D01*
X163717532Y-99917133D01*
X163716842Y-99910572D01*
X163657827Y-99728944D01*
X163562340Y-99563556D01*
X163488142Y-99481150D01*
X163438975Y-99426545D01*
X163438974Y-99426544D01*
X163434553Y-99421634D01*
X163280052Y-99309382D01*
X163274024Y-99306698D01*
X163274022Y-99306697D01*
X163111619Y-99234391D01*
X163111618Y-99234391D01*
X163105588Y-99231706D01*
X162989695Y-99207072D01*
X162925244Y-99193372D01*
X162925239Y-99193372D01*
X162918787Y-99192000D01*
X162727813Y-99192000D01*
X162721361Y-99193372D01*
X162721356Y-99193372D01*
X162656905Y-99207072D01*
X162541012Y-99231706D01*
X162534982Y-99234391D01*
X162534981Y-99234391D01*
X162372578Y-99306697D01*
X162372576Y-99306698D01*
X162366548Y-99309382D01*
X162212047Y-99421634D01*
X162207626Y-99426544D01*
X162207625Y-99426545D01*
X162158459Y-99481150D01*
X162084260Y-99563556D01*
X161988773Y-99728944D01*
X161929758Y-99910572D01*
X161929068Y-99917133D01*
X161929068Y-99917135D01*
X161921328Y-99990782D01*
X161909796Y-100100500D01*
X161910486Y-100107065D01*
X161927411Y-100268093D01*
X161929758Y-100290428D01*
X161988773Y-100472056D01*
X162084260Y-100637444D01*
X162157437Y-100718715D01*
X162188153Y-100782721D01*
X162189800Y-100803024D01*
X162189800Y-114650406D01*
X162169798Y-114718527D01*
X162152895Y-114739501D01*
X160830704Y-116061691D01*
X160768392Y-116095717D01*
X160697576Y-116090652D01*
X160640741Y-116048105D01*
X160615930Y-115981585D01*
X160625251Y-115928489D01*
X160624227Y-115928156D01*
X160681202Y-115752806D01*
X160683242Y-115746528D01*
X160700607Y-115581306D01*
X160727620Y-115515650D01*
X160736822Y-115505382D01*
X161217447Y-115024757D01*
X161225737Y-115017213D01*
X161232218Y-115013100D01*
X161257434Y-114986248D01*
X161278858Y-114963433D01*
X161281613Y-114960591D01*
X161301334Y-114940870D01*
X161303812Y-114937675D01*
X161311518Y-114928653D01*
X161336358Y-114902201D01*
X161341786Y-114896421D01*
X161351546Y-114878668D01*
X161362399Y-114862145D01*
X161363556Y-114860653D01*
X161374813Y-114846141D01*
X161392376Y-114805557D01*
X161397583Y-114794927D01*
X161418895Y-114756160D01*
X161420866Y-114748483D01*
X161420868Y-114748478D01*
X161423932Y-114736542D01*
X161430338Y-114717830D01*
X161432290Y-114713321D01*
X161438381Y-114699245D01*
X161439621Y-114691417D01*
X161439623Y-114691410D01*
X161445299Y-114655576D01*
X161447705Y-114643956D01*
X161456728Y-114608811D01*
X161456728Y-114608810D01*
X161458700Y-114601130D01*
X161458700Y-114580876D01*
X161460251Y-114561165D01*
X161462180Y-114548986D01*
X161463420Y-114541157D01*
X161459259Y-114497138D01*
X161458700Y-114485281D01*
X161458700Y-106202424D01*
X161478702Y-106134303D01*
X161491058Y-106118121D01*
X161564240Y-106036844D01*
X161659727Y-105871456D01*
X161718742Y-105689828D01*
X161738704Y-105499900D01*
X161718742Y-105309972D01*
X161659727Y-105128344D01*
X161633995Y-105083774D01*
X161567541Y-104968674D01*
X161564240Y-104962956D01*
X161540090Y-104936134D01*
X161440875Y-104825945D01*
X161440874Y-104825944D01*
X161436453Y-104821034D01*
X161314777Y-104732631D01*
X161287294Y-104712663D01*
X161287293Y-104712662D01*
X161281952Y-104708782D01*
X161275924Y-104706098D01*
X161275922Y-104706097D01*
X161113519Y-104633791D01*
X161113518Y-104633791D01*
X161107488Y-104631106D01*
X161014087Y-104611253D01*
X160927144Y-104592772D01*
X160927139Y-104592772D01*
X160920687Y-104591400D01*
X160729713Y-104591400D01*
X160723261Y-104592772D01*
X160723256Y-104592772D01*
X160642217Y-104609998D01*
X160574796Y-104624329D01*
X160504006Y-104618927D01*
X160447374Y-104576110D01*
X160422880Y-104509473D01*
X160422600Y-104501082D01*
X160422600Y-102367124D01*
X160442602Y-102299003D01*
X160454958Y-102282821D01*
X160528140Y-102201544D01*
X160623627Y-102036156D01*
X160682642Y-101854528D01*
X160687608Y-101807285D01*
X160701914Y-101671165D01*
X160702604Y-101664600D01*
X160698046Y-101621232D01*
X160683332Y-101481235D01*
X160683332Y-101481233D01*
X160682642Y-101474672D01*
X160623627Y-101293044D01*
X160612502Y-101273774D01*
X160531441Y-101133374D01*
X160528140Y-101127656D01*
X160400353Y-100985734D01*
X160279422Y-100897872D01*
X160251194Y-100877363D01*
X160251193Y-100877362D01*
X160245852Y-100873482D01*
X160239824Y-100870798D01*
X160239822Y-100870797D01*
X160077419Y-100798491D01*
X160077418Y-100798491D01*
X160071388Y-100795806D01*
X159977988Y-100775953D01*
X159891044Y-100757472D01*
X159891039Y-100757472D01*
X159884587Y-100756100D01*
X159693613Y-100756100D01*
X159687161Y-100757472D01*
X159687156Y-100757472D01*
X159600213Y-100775953D01*
X159506812Y-100795806D01*
X159500782Y-100798491D01*
X159500781Y-100798491D01*
X159338378Y-100870797D01*
X159338376Y-100870798D01*
X159332348Y-100873482D01*
X159327007Y-100877362D01*
X159327006Y-100877363D01*
X159298778Y-100897872D01*
X159177847Y-100985734D01*
X159050060Y-101127656D01*
X159046759Y-101133374D01*
X158965699Y-101273774D01*
X158954573Y-101293044D01*
X158895558Y-101474672D01*
X158894868Y-101481233D01*
X158894868Y-101481235D01*
X158880154Y-101621232D01*
X158875596Y-101664600D01*
X158876286Y-101671165D01*
X158890593Y-101807285D01*
X158895558Y-101854528D01*
X158954573Y-102036156D01*
X159050060Y-102201544D01*
X159123237Y-102282815D01*
X159153953Y-102346821D01*
X159155600Y-102367124D01*
X159155600Y-112650805D01*
X159135598Y-112718926D01*
X159118695Y-112739900D01*
X155142000Y-116716595D01*
X155079688Y-116750621D01*
X155052905Y-116753500D01*
X154997013Y-116753500D01*
X154990561Y-116754872D01*
X154990556Y-116754872D01*
X154908566Y-116772300D01*
X154810212Y-116793206D01*
X154804182Y-116795891D01*
X154804181Y-116795891D01*
X154641778Y-116868197D01*
X154641776Y-116868198D01*
X154635748Y-116870882D01*
X154481247Y-116983134D01*
X154476826Y-116988044D01*
X154476825Y-116988045D01*
X154386987Y-117087821D01*
X154353460Y-117125056D01*
X154257973Y-117290444D01*
X154198958Y-117472072D01*
X154198268Y-117478633D01*
X154198268Y-117478635D01*
X154191656Y-117541550D01*
X154178996Y-117662000D01*
X154179686Y-117668565D01*
X154195165Y-117815835D01*
X154198958Y-117851928D01*
X154257973Y-118033556D01*
X154261276Y-118039278D01*
X154261277Y-118039279D01*
X154283332Y-118077479D01*
X154353460Y-118198944D01*
X154481247Y-118340866D01*
X154635748Y-118453118D01*
X154641776Y-118455802D01*
X154641778Y-118455803D01*
X154804181Y-118528109D01*
X154810212Y-118530794D01*
X154903613Y-118550647D01*
X154990556Y-118569128D01*
X154990561Y-118569128D01*
X154997013Y-118570500D01*
X155187987Y-118570500D01*
X155194439Y-118569128D01*
X155194444Y-118569128D01*
X155281387Y-118550647D01*
X155374788Y-118530794D01*
X155380819Y-118528109D01*
X155543222Y-118455803D01*
X155543224Y-118455802D01*
X155549252Y-118453118D01*
X155703753Y-118340866D01*
X155831540Y-118198944D01*
X155901668Y-118077479D01*
X155923723Y-118039279D01*
X155923724Y-118039278D01*
X155927027Y-118033556D01*
X155986042Y-117851928D01*
X155989836Y-117815835D01*
X156003407Y-117686707D01*
X156030420Y-117621050D01*
X156039622Y-117610782D01*
X159976605Y-113673799D01*
X160038917Y-113639773D01*
X160109732Y-113644838D01*
X160166568Y-113687385D01*
X160191379Y-113753905D01*
X160191700Y-113762894D01*
X160191700Y-114206505D01*
X160171698Y-114274626D01*
X160154795Y-114295601D01*
X159839199Y-114611196D01*
X159776887Y-114645221D01*
X159750104Y-114648100D01*
X159694213Y-114648100D01*
X159687761Y-114649472D01*
X159687756Y-114649472D01*
X159600812Y-114667953D01*
X159507412Y-114687806D01*
X159501382Y-114690491D01*
X159501381Y-114690491D01*
X159338978Y-114762797D01*
X159338976Y-114762798D01*
X159332948Y-114765482D01*
X159327607Y-114769362D01*
X159327606Y-114769363D01*
X159292440Y-114794913D01*
X159178447Y-114877734D01*
X159174026Y-114882644D01*
X159174025Y-114882645D01*
X159055672Y-115014090D01*
X159050660Y-115019656D01*
X158955173Y-115185044D01*
X158896158Y-115366672D01*
X158876196Y-115556600D01*
X158896158Y-115746528D01*
X158955173Y-115928156D01*
X159050660Y-116093544D01*
X159178447Y-116235466D01*
X159332948Y-116347718D01*
X159338976Y-116350402D01*
X159338978Y-116350403D01*
X159466163Y-116407029D01*
X159507412Y-116425394D01*
X159600813Y-116445247D01*
X159687756Y-116463728D01*
X159687761Y-116463728D01*
X159694213Y-116465100D01*
X159885187Y-116465100D01*
X159891639Y-116463728D01*
X159891644Y-116463728D01*
X159978587Y-116445247D01*
X160071988Y-116425394D01*
X160162958Y-116384892D01*
X160233324Y-116375458D01*
X160297621Y-116405564D01*
X160335435Y-116465653D01*
X160334759Y-116536647D01*
X160303301Y-116589094D01*
X159838600Y-117053795D01*
X159776288Y-117087821D01*
X159749505Y-117090700D01*
X159693613Y-117090700D01*
X159687161Y-117092072D01*
X159687156Y-117092072D01*
X159600212Y-117110553D01*
X159506812Y-117130406D01*
X159500782Y-117133091D01*
X159500781Y-117133091D01*
X159338378Y-117205397D01*
X159338376Y-117205398D01*
X159332348Y-117208082D01*
X159177847Y-117320334D01*
X159173426Y-117325244D01*
X159173425Y-117325245D01*
X159098882Y-117408034D01*
X159050060Y-117462256D01*
X158954573Y-117627644D01*
X158895558Y-117809272D01*
X158894868Y-117815833D01*
X158894868Y-117815835D01*
X158891075Y-117851928D01*
X158875596Y-117999200D01*
X158876286Y-118005765D01*
X158890197Y-118138117D01*
X158895558Y-118189128D01*
X158954573Y-118370756D01*
X159050060Y-118536144D01*
X159054478Y-118541051D01*
X159054479Y-118541052D01*
X159145886Y-118642570D01*
X159177847Y-118678066D01*
X159259474Y-118737372D01*
X159281607Y-118753452D01*
X159332348Y-118790318D01*
X159338376Y-118793002D01*
X159338378Y-118793003D01*
X159490957Y-118860935D01*
X159506812Y-118867994D01*
X159600213Y-118887847D01*
X159687156Y-118906328D01*
X159687161Y-118906328D01*
X159693613Y-118907700D01*
X159884587Y-118907700D01*
X159891039Y-118906328D01*
X159891044Y-118906328D01*
X159977987Y-118887847D01*
X160071388Y-118867994D01*
X160087243Y-118860935D01*
X160239822Y-118793003D01*
X160239824Y-118793002D01*
X160245852Y-118790318D01*
X160285888Y-118761230D01*
X160352756Y-118737372D01*
X160421907Y-118753452D01*
X160439040Y-118765776D01*
X160439047Y-118765766D01*
X160498738Y-118809134D01*
X160587155Y-118873373D01*
X160593548Y-118878018D01*
X160599576Y-118880702D01*
X160599578Y-118880703D01*
X160736576Y-118941698D01*
X160768012Y-118955694D01*
X160861413Y-118975547D01*
X160948356Y-118994028D01*
X160948361Y-118994028D01*
X160954813Y-118995400D01*
X161010705Y-118995400D01*
X161078826Y-119015402D01*
X161099800Y-119032305D01*
X161125510Y-119058015D01*
X161159536Y-119120327D01*
X161154471Y-119191142D01*
X161112661Y-119246170D01*
X161112898Y-119246433D01*
X161111515Y-119247678D01*
X161110476Y-119249046D01*
X161102647Y-119254734D01*
X161098226Y-119259644D01*
X161098225Y-119259645D01*
X161007736Y-119360144D01*
X160974860Y-119396656D01*
X160916586Y-119497590D01*
X160883117Y-119555560D01*
X160879373Y-119562044D01*
X160820358Y-119743672D01*
X160800396Y-119933600D01*
X160820358Y-120123528D01*
X160879373Y-120305156D01*
X160974860Y-120470544D01*
X161102647Y-120612466D01*
X161257148Y-120724718D01*
X161263176Y-120727402D01*
X161263178Y-120727403D01*
X161425581Y-120799709D01*
X161431612Y-120802394D01*
X161525013Y-120822247D01*
X161611956Y-120840728D01*
X161611961Y-120840728D01*
X161618413Y-120842100D01*
X161674306Y-120842100D01*
X161742427Y-120862102D01*
X161763401Y-120879005D01*
X163629595Y-122745199D01*
X163663621Y-122807511D01*
X163666500Y-122834294D01*
X163666500Y-130254000D01*
X163646498Y-130322121D01*
X163592842Y-130368614D01*
X163540500Y-130380000D01*
X156563500Y-130380000D01*
X156495379Y-130359998D01*
X156448886Y-130306342D01*
X156437500Y-130254000D01*
X156437500Y-129499349D01*
X156457502Y-129431228D01*
X156511158Y-129384735D01*
X156581432Y-129374631D01*
X156599464Y-129378825D01*
X156603212Y-129380494D01*
X156672238Y-129395166D01*
X156783556Y-129418828D01*
X156783561Y-129418828D01*
X156790013Y-129420200D01*
X156980987Y-129420200D01*
X156987439Y-129418828D01*
X156987444Y-129418828D01*
X157074388Y-129400347D01*
X157167788Y-129380494D01*
X157180957Y-129374631D01*
X157336222Y-129305503D01*
X157336224Y-129305502D01*
X157342252Y-129302818D01*
X157496753Y-129190566D01*
X157624540Y-129048644D01*
X157720027Y-128883256D01*
X157779042Y-128701628D01*
X157782424Y-128669455D01*
X157796231Y-128538080D01*
X157823244Y-128472423D01*
X157829691Y-128464997D01*
X157852743Y-128440449D01*
X157855498Y-128437607D01*
X157875235Y-128417870D01*
X157877715Y-128414673D01*
X157885420Y-128405651D01*
X157910259Y-128379200D01*
X157915686Y-128373421D01*
X157919505Y-128366475D01*
X157919507Y-128366472D01*
X157925448Y-128355666D01*
X157936299Y-128339147D01*
X157943858Y-128329401D01*
X157948714Y-128323141D01*
X157951859Y-128315872D01*
X157951862Y-128315868D01*
X157966274Y-128282563D01*
X157971491Y-128271913D01*
X157992795Y-128233160D01*
X157997833Y-128213537D01*
X158004237Y-128194834D01*
X158009133Y-128183520D01*
X158009133Y-128183519D01*
X158012281Y-128176245D01*
X158013520Y-128168422D01*
X158013523Y-128168412D01*
X158019199Y-128132576D01*
X158021605Y-128120956D01*
X158030628Y-128085811D01*
X158030628Y-128085810D01*
X158032600Y-128078130D01*
X158032600Y-128057876D01*
X158034151Y-128038165D01*
X158036080Y-128025986D01*
X158037320Y-128018157D01*
X158033159Y-127974138D01*
X158032600Y-127962281D01*
X158032600Y-125058424D01*
X158052602Y-124990303D01*
X158064958Y-124974121D01*
X158138140Y-124892844D01*
X158233627Y-124727456D01*
X158292642Y-124545828D01*
X158312604Y-124355900D01*
X158304358Y-124277443D01*
X158293332Y-124172535D01*
X158293332Y-124172533D01*
X158292642Y-124165972D01*
X158233627Y-123984344D01*
X158138140Y-123818956D01*
X158131230Y-123811281D01*
X158014775Y-123681945D01*
X158014774Y-123681944D01*
X158010353Y-123677034D01*
X157899469Y-123596472D01*
X157861194Y-123568663D01*
X157861193Y-123568662D01*
X157855852Y-123564782D01*
X157849824Y-123562098D01*
X157849822Y-123562097D01*
X157713565Y-123501432D01*
X157659469Y-123455452D01*
X157638814Y-123386325D01*
X157638814Y-123382065D01*
X157639504Y-123375500D01*
X157636722Y-123349034D01*
X157620232Y-123192135D01*
X157620232Y-123192133D01*
X157619542Y-123185572D01*
X157560527Y-123003944D01*
X157465040Y-122838556D01*
X157414211Y-122782104D01*
X157341675Y-122701545D01*
X157341674Y-122701544D01*
X157337253Y-122696634D01*
X157182752Y-122584382D01*
X157176724Y-122581698D01*
X157176722Y-122581697D01*
X157014319Y-122509391D01*
X157014318Y-122509391D01*
X157008288Y-122506706D01*
X156914887Y-122486853D01*
X156827944Y-122468372D01*
X156827939Y-122468372D01*
X156821487Y-122467000D01*
X156630513Y-122467000D01*
X156624061Y-122468372D01*
X156624056Y-122468372D01*
X156537113Y-122486853D01*
X156443712Y-122506706D01*
X156437682Y-122509391D01*
X156437681Y-122509391D01*
X156275278Y-122581697D01*
X156275276Y-122581698D01*
X156269248Y-122584382D01*
X156114747Y-122696634D01*
X156110326Y-122701544D01*
X156110325Y-122701545D01*
X156037790Y-122782104D01*
X155986960Y-122838556D01*
X155891473Y-123003944D01*
X155832458Y-123185572D01*
X155818424Y-123319103D01*
X155815093Y-123350792D01*
X155788080Y-123416449D01*
X155778879Y-123426717D01*
X155579486Y-123626109D01*
X155411742Y-123793853D01*
X155403463Y-123801387D01*
X155396982Y-123805500D01*
X155378977Y-123824674D01*
X155350357Y-123855151D01*
X155347602Y-123857993D01*
X155327865Y-123877730D01*
X155325385Y-123880927D01*
X155317682Y-123889947D01*
X155287414Y-123922179D01*
X155283595Y-123929125D01*
X155283593Y-123929128D01*
X155277652Y-123939934D01*
X155266801Y-123956453D01*
X155254386Y-123972459D01*
X155251241Y-123979728D01*
X155251238Y-123979732D01*
X155236826Y-124013037D01*
X155231609Y-124023687D01*
X155210305Y-124062440D01*
X155208334Y-124070115D01*
X155208334Y-124070116D01*
X155205267Y-124082062D01*
X155198867Y-124100756D01*
X155197861Y-124103083D01*
X155152452Y-124157657D01*
X155084746Y-124179019D01*
X155016238Y-124160385D01*
X154988587Y-124137354D01*
X154979575Y-124127345D01*
X154979574Y-124127344D01*
X154975153Y-124122434D01*
X154876057Y-124050436D01*
X154825994Y-124014063D01*
X154825993Y-124014062D01*
X154820652Y-124010182D01*
X154814624Y-124007498D01*
X154814622Y-124007497D01*
X154652219Y-123935191D01*
X154652218Y-123935191D01*
X154646188Y-123932506D01*
X154547923Y-123911619D01*
X154465844Y-123894172D01*
X154465839Y-123894172D01*
X154459387Y-123892800D01*
X154268413Y-123892800D01*
X154261961Y-123894172D01*
X154261956Y-123894172D01*
X154179877Y-123911619D01*
X154081612Y-123932506D01*
X154075582Y-123935191D01*
X154075581Y-123935191D01*
X153913178Y-124007497D01*
X153913176Y-124007498D01*
X153907148Y-124010182D01*
X153901807Y-124014062D01*
X153901806Y-124014063D01*
X153851743Y-124050436D01*
X153752647Y-124122434D01*
X153748226Y-124127344D01*
X153748225Y-124127345D01*
X153660076Y-124225245D01*
X153624860Y-124264356D01*
X153609421Y-124291097D01*
X153539249Y-124412639D01*
X153529373Y-124429744D01*
X153528555Y-124432260D01*
X153483526Y-124485237D01*
X153415598Y-124505886D01*
X153347291Y-124486533D01*
X153300234Y-124432226D01*
X153299427Y-124429744D01*
X153289552Y-124412639D01*
X153219379Y-124291097D01*
X153203940Y-124264356D01*
X153168725Y-124225245D01*
X153080575Y-124127345D01*
X153080574Y-124127344D01*
X153076153Y-124122434D01*
X152977057Y-124050436D01*
X152926994Y-124014063D01*
X152926993Y-124014062D01*
X152921652Y-124010182D01*
X152915624Y-124007498D01*
X152915622Y-124007497D01*
X152753219Y-123935191D01*
X152753218Y-123935191D01*
X152747188Y-123932506D01*
X152648923Y-123911619D01*
X152566844Y-123894172D01*
X152566839Y-123894172D01*
X152560387Y-123892800D01*
X152369413Y-123892800D01*
X152362961Y-123894172D01*
X152362956Y-123894172D01*
X152280877Y-123911619D01*
X152182612Y-123932506D01*
X152176582Y-123935191D01*
X152176581Y-123935191D01*
X152014178Y-124007497D01*
X152014176Y-124007498D01*
X152008148Y-124010182D01*
X152002807Y-124014062D01*
X152002806Y-124014063D01*
X151947461Y-124054274D01*
X151880594Y-124078132D01*
X151811442Y-124062052D01*
X151761962Y-124011138D01*
X151747400Y-123952338D01*
X151747400Y-122338824D01*
X151767402Y-122270703D01*
X151779758Y-122254521D01*
X151852940Y-122173244D01*
X151869138Y-122145189D01*
X151920521Y-122096197D01*
X151990235Y-122082762D01*
X152029505Y-122093084D01*
X152146536Y-122145189D01*
X152166312Y-122153994D01*
X152256876Y-122173244D01*
X152346656Y-122192328D01*
X152346661Y-122192328D01*
X152353113Y-122193700D01*
X152544087Y-122193700D01*
X152550539Y-122192328D01*
X152550544Y-122192328D01*
X152640324Y-122173244D01*
X152730888Y-122153994D01*
X152750665Y-122145189D01*
X152821446Y-122113675D01*
X152891813Y-122104241D01*
X152956110Y-122134347D01*
X152981814Y-122165782D01*
X153037160Y-122261644D01*
X153041578Y-122266551D01*
X153041579Y-122266552D01*
X153156990Y-122394729D01*
X153164947Y-122403566D01*
X153264043Y-122475564D01*
X153289632Y-122494155D01*
X153319448Y-122515818D01*
X153325476Y-122518502D01*
X153325478Y-122518503D01*
X153467415Y-122581697D01*
X153493912Y-122593494D01*
X153583441Y-122612524D01*
X153674256Y-122631828D01*
X153674261Y-122631828D01*
X153680713Y-122633200D01*
X153871687Y-122633200D01*
X153878139Y-122631828D01*
X153878144Y-122631828D01*
X153968959Y-122612524D01*
X154058488Y-122593494D01*
X154084985Y-122581697D01*
X154226922Y-122518503D01*
X154226924Y-122518502D01*
X154232952Y-122515818D01*
X154262769Y-122494155D01*
X154288357Y-122475564D01*
X154387453Y-122403566D01*
X154395410Y-122394729D01*
X154510821Y-122266552D01*
X154510822Y-122266551D01*
X154515240Y-122261644D01*
X154578942Y-122151309D01*
X154607423Y-122101979D01*
X154607424Y-122101978D01*
X154610727Y-122096256D01*
X154669742Y-121914628D01*
X154689704Y-121724700D01*
X154673710Y-121572528D01*
X154670432Y-121541335D01*
X154670432Y-121541333D01*
X154669742Y-121534772D01*
X154610727Y-121353144D01*
X154515240Y-121187756D01*
X154387453Y-121045834D01*
X154232952Y-120933582D01*
X154226924Y-120930898D01*
X154226922Y-120930897D01*
X154064519Y-120858591D01*
X154064518Y-120858591D01*
X154058488Y-120855906D01*
X153928203Y-120828213D01*
X153865730Y-120794484D01*
X153831408Y-120732335D01*
X153828400Y-120704966D01*
X153828400Y-105615000D01*
X154916496Y-105615000D01*
X154936458Y-105804928D01*
X154995473Y-105986556D01*
X154998776Y-105992278D01*
X154998777Y-105992279D01*
X155024507Y-106036844D01*
X155090960Y-106151944D01*
X155218747Y-106293866D01*
X155373248Y-106406118D01*
X155379276Y-106408802D01*
X155379278Y-106408803D01*
X155541681Y-106481109D01*
X155547712Y-106483794D01*
X155641112Y-106503647D01*
X155728056Y-106522128D01*
X155728061Y-106522128D01*
X155734513Y-106523500D01*
X155925487Y-106523500D01*
X155931939Y-106522128D01*
X155931944Y-106522128D01*
X156018888Y-106503647D01*
X156112288Y-106483794D01*
X156118319Y-106481109D01*
X156280722Y-106408803D01*
X156280724Y-106408802D01*
X156286752Y-106406118D01*
X156441253Y-106293866D01*
X156569040Y-106151944D01*
X156635493Y-106036844D01*
X156661223Y-105992279D01*
X156661224Y-105992278D01*
X156664527Y-105986556D01*
X156723542Y-105804928D01*
X156740907Y-105639706D01*
X156767920Y-105574050D01*
X156777113Y-105563791D01*
X157685502Y-104655403D01*
X157747812Y-104621379D01*
X157774595Y-104618500D01*
X157830487Y-104618500D01*
X157836939Y-104617128D01*
X157836944Y-104617128D01*
X157923888Y-104598647D01*
X158017288Y-104578794D01*
X158023319Y-104576109D01*
X158185722Y-104503803D01*
X158185724Y-104503802D01*
X158191752Y-104501118D01*
X158346253Y-104388866D01*
X158387906Y-104342606D01*
X158469621Y-104251852D01*
X158469622Y-104251851D01*
X158474040Y-104246944D01*
X158569527Y-104081556D01*
X158628542Y-103899928D01*
X158634988Y-103838603D01*
X158647814Y-103716565D01*
X158648504Y-103710000D01*
X158628542Y-103520072D01*
X158569527Y-103338444D01*
X158474040Y-103173056D01*
X158462645Y-103160400D01*
X158350675Y-103036045D01*
X158350674Y-103036044D01*
X158346253Y-103031134D01*
X158191752Y-102918882D01*
X158185724Y-102916198D01*
X158185722Y-102916197D01*
X158023319Y-102843891D01*
X158023318Y-102843891D01*
X158017288Y-102841206D01*
X157923888Y-102821353D01*
X157836944Y-102802872D01*
X157836939Y-102802872D01*
X157830487Y-102801500D01*
X157639513Y-102801500D01*
X157633061Y-102802872D01*
X157633056Y-102802872D01*
X157546113Y-102821353D01*
X157452712Y-102841206D01*
X157446682Y-102843891D01*
X157446681Y-102843891D01*
X157284278Y-102916197D01*
X157284276Y-102916198D01*
X157278248Y-102918882D01*
X157123747Y-103031134D01*
X157119326Y-103036044D01*
X157119325Y-103036045D01*
X157007356Y-103160400D01*
X156995960Y-103173056D01*
X156900473Y-103338444D01*
X156841458Y-103520072D01*
X156840768Y-103526633D01*
X156840768Y-103526635D01*
X156824093Y-103685293D01*
X156797080Y-103750950D01*
X156787887Y-103761209D01*
X155879498Y-104669597D01*
X155817188Y-104703621D01*
X155790405Y-104706500D01*
X155734513Y-104706500D01*
X155728061Y-104707872D01*
X155728056Y-104707872D01*
X155654638Y-104723478D01*
X155547712Y-104746206D01*
X155541682Y-104748891D01*
X155541681Y-104748891D01*
X155397202Y-104813217D01*
X155326835Y-104822651D01*
X155311193Y-104815327D01*
X155309165Y-104844358D01*
X155265098Y-104902458D01*
X155218747Y-104936134D01*
X155214326Y-104941044D01*
X155214325Y-104941045D01*
X155199016Y-104958048D01*
X155090960Y-105078056D01*
X154995473Y-105243444D01*
X154936458Y-105425072D01*
X154916496Y-105615000D01*
X153828400Y-105615000D01*
X153828400Y-104859000D01*
X153848402Y-104790879D01*
X153902058Y-104744386D01*
X153954400Y-104733000D01*
X154051885Y-104733000D01*
X154067124Y-104728525D01*
X154068329Y-104727135D01*
X154070000Y-104719452D01*
X154070000Y-104359500D01*
X154090002Y-104291379D01*
X154143658Y-104244886D01*
X154196000Y-104233500D01*
X154244000Y-104233500D01*
X154312121Y-104253502D01*
X154358614Y-104307158D01*
X154370000Y-104359500D01*
X154370000Y-104714884D01*
X154374475Y-104730123D01*
X154375865Y-104731328D01*
X154383548Y-104732999D01*
X154964669Y-104732999D01*
X154971490Y-104732629D01*
X155022352Y-104727105D01*
X155037606Y-104723478D01*
X155146807Y-104682541D01*
X155217614Y-104677358D01*
X155225209Y-104681489D01*
X155225400Y-104661462D01*
X155264351Y-104602104D01*
X155270389Y-104597283D01*
X155275725Y-104593284D01*
X155288285Y-104580724D01*
X155364786Y-104478649D01*
X155373324Y-104463054D01*
X155418478Y-104342606D01*
X155422105Y-104327351D01*
X155427631Y-104276486D01*
X155428000Y-104269672D01*
X155428000Y-104243115D01*
X155423525Y-104227876D01*
X155422135Y-104226671D01*
X155405235Y-104222995D01*
X155342922Y-104188970D01*
X155308897Y-104126658D01*
X155313961Y-104055843D01*
X155331190Y-104024310D01*
X155365231Y-103978889D01*
X155365231Y-103978888D01*
X155370614Y-103971706D01*
X155370903Y-103971922D01*
X155417065Y-103925861D01*
X155422418Y-103923647D01*
X155426328Y-103919135D01*
X155427999Y-103911452D01*
X155427999Y-103880330D01*
X155427630Y-103873509D01*
X155424091Y-103840930D01*
X155424091Y-103813716D01*
X155424344Y-103811393D01*
X155428500Y-103773134D01*
X155428500Y-103376866D01*
X155426609Y-103359453D01*
X155424344Y-103338607D01*
X155424344Y-103311393D01*
X155428131Y-103276533D01*
X155428131Y-103276528D01*
X155428500Y-103273134D01*
X155428500Y-103269717D01*
X155428684Y-103266319D01*
X155430456Y-103266415D01*
X155448502Y-103204956D01*
X155499196Y-103161956D01*
X155498654Y-103161041D01*
X155498693Y-103161018D01*
X155499747Y-103160395D01*
X155502459Y-103158958D01*
X155502397Y-103158827D01*
X155505324Y-103157097D01*
X155505932Y-103156867D01*
X155509147Y-103155415D01*
X155509672Y-103155137D01*
X155516975Y-103152764D01*
X155523672Y-103148514D01*
X155523931Y-103148350D01*
X155545058Y-103137585D01*
X155545342Y-103137473D01*
X155545350Y-103137469D01*
X155552717Y-103134552D01*
X155588487Y-103108564D01*
X155598407Y-103102048D01*
X155629638Y-103083578D01*
X155629639Y-103083577D01*
X155636462Y-103079542D01*
X155641886Y-103074118D01*
X155642368Y-103073779D01*
X155645203Y-103071508D01*
X155645637Y-103071113D01*
X155652118Y-103067000D01*
X155657759Y-103060993D01*
X155675546Y-103045312D01*
X155675791Y-103045134D01*
X155675793Y-103045132D01*
X155682207Y-103040472D01*
X155710398Y-103006395D01*
X155718388Y-102997616D01*
X156185723Y-102530281D01*
X156248035Y-102496255D01*
X156284397Y-102494263D01*
X156285513Y-102494500D01*
X156476487Y-102494500D01*
X156482939Y-102493128D01*
X156482944Y-102493128D01*
X156569888Y-102474647D01*
X156663288Y-102454794D01*
X156669319Y-102452109D01*
X156831722Y-102379803D01*
X156831724Y-102379802D01*
X156837752Y-102377118D01*
X156992253Y-102264866D01*
X157077427Y-102170271D01*
X157115621Y-102127852D01*
X157115622Y-102127851D01*
X157120040Y-102122944D01*
X157215527Y-101957556D01*
X157274542Y-101775928D01*
X157275791Y-101764051D01*
X157293814Y-101592565D01*
X157294504Y-101586000D01*
X157282545Y-101472216D01*
X157275232Y-101402635D01*
X157275232Y-101402633D01*
X157274542Y-101396072D01*
X157215527Y-101214444D01*
X157120040Y-101049056D01*
X157059529Y-100981851D01*
X156996675Y-100912045D01*
X156996674Y-100912044D01*
X156992253Y-100907134D01*
X156893157Y-100835136D01*
X156843094Y-100798763D01*
X156843093Y-100798762D01*
X156837752Y-100794882D01*
X156831724Y-100792198D01*
X156831722Y-100792197D01*
X156669319Y-100719891D01*
X156669318Y-100719891D01*
X156663288Y-100717206D01*
X156569888Y-100697353D01*
X156482944Y-100678872D01*
X156482939Y-100678872D01*
X156476487Y-100677500D01*
X156285513Y-100677500D01*
X156279061Y-100678872D01*
X156279056Y-100678872D01*
X156192113Y-100697353D01*
X156098712Y-100717206D01*
X156092682Y-100719891D01*
X156092681Y-100719891D01*
X155930278Y-100792197D01*
X155930276Y-100792198D01*
X155924248Y-100794882D01*
X155918907Y-100798762D01*
X155918906Y-100798763D01*
X155868843Y-100835136D01*
X155769747Y-100907134D01*
X155765326Y-100912044D01*
X155765325Y-100912045D01*
X155702472Y-100981851D01*
X155641960Y-101049056D01*
X155546473Y-101214444D01*
X155544431Y-101220729D01*
X155497898Y-101363941D01*
X155457824Y-101422547D01*
X155392428Y-101450184D01*
X155346730Y-101447046D01*
X155325130Y-101441500D01*
X155316893Y-101441500D01*
X155293284Y-101439268D01*
X155292981Y-101439210D01*
X155292977Y-101439210D01*
X155285194Y-101437725D01*
X155229149Y-101441251D01*
X155221238Y-101441500D01*
X155101826Y-101441500D01*
X155057596Y-101433482D01*
X155057495Y-101433444D01*
X155030316Y-101423255D01*
X154968134Y-101416500D01*
X153954400Y-101416500D01*
X153886279Y-101396498D01*
X153839786Y-101342842D01*
X153828400Y-101290500D01*
X153828400Y-99918814D01*
X153848402Y-99850693D01*
X153888097Y-99811670D01*
X153987803Y-99749970D01*
X153994031Y-99746116D01*
X154018727Y-99721377D01*
X154111758Y-99628184D01*
X154111762Y-99628179D01*
X154116929Y-99623003D01*
X154156598Y-99558648D01*
X154204369Y-99481150D01*
X154204370Y-99481148D01*
X154208209Y-99474920D01*
X154262974Y-99309809D01*
X154273500Y-99207072D01*
X154273500Y-98607928D01*
X154262707Y-98503907D01*
X154258980Y-98492734D01*
X154209972Y-98345841D01*
X154207654Y-98338893D01*
X154116116Y-98190969D01*
X154110934Y-98185796D01*
X154009214Y-98084253D01*
X153975135Y-98021970D01*
X153980138Y-97951150D01*
X154009059Y-97906063D01*
X154111757Y-97803185D01*
X154111761Y-97803180D01*
X154116929Y-97798003D01*
X154130564Y-97775884D01*
X154183336Y-97728391D01*
X154237824Y-97716000D01*
X162058733Y-97716000D01*
X162069916Y-97716527D01*
X162077409Y-97718202D01*
X162085335Y-97717953D01*
X162085336Y-97717953D01*
X162145486Y-97716062D01*
X162149445Y-97716000D01*
X162177356Y-97716000D01*
X162181291Y-97715503D01*
X162181356Y-97715495D01*
X162193193Y-97714562D01*
X162225451Y-97713548D01*
X162229470Y-97713422D01*
X162237389Y-97713173D01*
X162256843Y-97707521D01*
X162276200Y-97703513D01*
X162288430Y-97701968D01*
X162288431Y-97701968D01*
X162296297Y-97700974D01*
X162303668Y-97698055D01*
X162303670Y-97698055D01*
X162337412Y-97684696D01*
X162348642Y-97680851D01*
X162383483Y-97670729D01*
X162383484Y-97670729D01*
X162391093Y-97668518D01*
X162397912Y-97664485D01*
X162397917Y-97664483D01*
X162408528Y-97658207D01*
X162426276Y-97649512D01*
X162445117Y-97642052D01*
X162465487Y-97627253D01*
X162480887Y-97616064D01*
X162490807Y-97609548D01*
X162522035Y-97591080D01*
X162522038Y-97591078D01*
X162528862Y-97587042D01*
X162543183Y-97572721D01*
X162558217Y-97559880D01*
X162559932Y-97558634D01*
X162574607Y-97547972D01*
X162602798Y-97513895D01*
X162610788Y-97505116D01*
X173306752Y-86809152D01*
X173369064Y-86775126D01*
X173428459Y-86776541D01*
X173486591Y-86792118D01*
X173486602Y-86792120D01*
X173491913Y-86793543D01*
X173720000Y-86813498D01*
X173948087Y-86793543D01*
X173953400Y-86792119D01*
X173953402Y-86792119D01*
X174163933Y-86735707D01*
X174163935Y-86735706D01*
X174169243Y-86734284D01*
X174186689Y-86726149D01*
X174371762Y-86639849D01*
X174371767Y-86639846D01*
X174376749Y-86637523D01*
X174518458Y-86538297D01*
X174559789Y-86509357D01*
X174559792Y-86509355D01*
X174564300Y-86506198D01*
X174726198Y-86344300D01*
X174734499Y-86332446D01*
X174828662Y-86197966D01*
X174857523Y-86156749D01*
X174859846Y-86151767D01*
X174859849Y-86151762D01*
X174951961Y-85954225D01*
X174951961Y-85954224D01*
X174954284Y-85949243D01*
X175013543Y-85728087D01*
X175033498Y-85500000D01*
X175013543Y-85271913D01*
X174961243Y-85076727D01*
X174955707Y-85056067D01*
X174955706Y-85056065D01*
X174954284Y-85050757D01*
X174951961Y-85045775D01*
X174859849Y-84848238D01*
X174859846Y-84848233D01*
X174857523Y-84843251D01*
X174759648Y-84703471D01*
X174729357Y-84660211D01*
X174729355Y-84660208D01*
X174726198Y-84655700D01*
X174564300Y-84493802D01*
X174559792Y-84490645D01*
X174559789Y-84490643D01*
X174481611Y-84435902D01*
X174376749Y-84362477D01*
X174371767Y-84360154D01*
X174371762Y-84360151D01*
X174174225Y-84268039D01*
X174174224Y-84268039D01*
X174169243Y-84265716D01*
X174163935Y-84264294D01*
X174163933Y-84264293D01*
X173953402Y-84207881D01*
X173953400Y-84207881D01*
X173948087Y-84206457D01*
X173720000Y-84186502D01*
X173491913Y-84206457D01*
X173486600Y-84207881D01*
X173486598Y-84207881D01*
X173276067Y-84264293D01*
X173276065Y-84264294D01*
X173270757Y-84265716D01*
X173265776Y-84268039D01*
X173265775Y-84268039D01*
X173068238Y-84360151D01*
X173068233Y-84360154D01*
X173063251Y-84362477D01*
X172958389Y-84435902D01*
X172880211Y-84490643D01*
X172880208Y-84490645D01*
X172875700Y-84493802D01*
X172713802Y-84655700D01*
X172710645Y-84660208D01*
X172710643Y-84660211D01*
X172680352Y-84703471D01*
X172582477Y-84843251D01*
X172580154Y-84848233D01*
X172580151Y-84848238D01*
X172564195Y-84882457D01*
X172517278Y-84935742D01*
X172449001Y-84955203D01*
X172381041Y-84934661D01*
X172335805Y-84882457D01*
X172319849Y-84848238D01*
X172319846Y-84848233D01*
X172317523Y-84843251D01*
X172219648Y-84703471D01*
X172189357Y-84660211D01*
X172189355Y-84660208D01*
X172186198Y-84655700D01*
X172024300Y-84493802D01*
X172019792Y-84490645D01*
X172019789Y-84490643D01*
X171941611Y-84435902D01*
X171836749Y-84362477D01*
X171831767Y-84360154D01*
X171831762Y-84360151D01*
X171634225Y-84268039D01*
X171634224Y-84268039D01*
X171629243Y-84265716D01*
X171623935Y-84264294D01*
X171623933Y-84264293D01*
X171413402Y-84207881D01*
X171413400Y-84207881D01*
X171408087Y-84206457D01*
X171180000Y-84186502D01*
X170951913Y-84206457D01*
X170946600Y-84207881D01*
X170946598Y-84207881D01*
X170736067Y-84264293D01*
X170736065Y-84264294D01*
X170730757Y-84265716D01*
X170725776Y-84268039D01*
X170725775Y-84268039D01*
X170528238Y-84360151D01*
X170528233Y-84360154D01*
X170523251Y-84362477D01*
X170418389Y-84435902D01*
X170340211Y-84490643D01*
X170340208Y-84490645D01*
X170335700Y-84493802D01*
X170173802Y-84655700D01*
X170170645Y-84660208D01*
X170170643Y-84660211D01*
X170140352Y-84703471D01*
X170042477Y-84843251D01*
X170040154Y-84848233D01*
X170040151Y-84848238D01*
X170024195Y-84882457D01*
X169977278Y-84935742D01*
X169909001Y-84955203D01*
X169841041Y-84934661D01*
X169795805Y-84882457D01*
X169779849Y-84848238D01*
X169779846Y-84848233D01*
X169777523Y-84843251D01*
X169679648Y-84703471D01*
X169649357Y-84660211D01*
X169649355Y-84660208D01*
X169646198Y-84655700D01*
X169484300Y-84493802D01*
X169479792Y-84490645D01*
X169479789Y-84490643D01*
X169401611Y-84435902D01*
X169296749Y-84362477D01*
X169291767Y-84360154D01*
X169291762Y-84360151D01*
X169094225Y-84268039D01*
X169094224Y-84268039D01*
X169089243Y-84265716D01*
X169083935Y-84264294D01*
X169083933Y-84264293D01*
X168873402Y-84207881D01*
X168873400Y-84207881D01*
X168868087Y-84206457D01*
X168640000Y-84186502D01*
X168411913Y-84206457D01*
X168406600Y-84207881D01*
X168406598Y-84207881D01*
X168196067Y-84264293D01*
X168196065Y-84264294D01*
X168190757Y-84265716D01*
X168185776Y-84268039D01*
X168185775Y-84268039D01*
X167988238Y-84360151D01*
X167988233Y-84360154D01*
X167983251Y-84362477D01*
X167878389Y-84435902D01*
X167800211Y-84490643D01*
X167800208Y-84490645D01*
X167795700Y-84493802D01*
X167633802Y-84655700D01*
X167630645Y-84660208D01*
X167630643Y-84660211D01*
X167600352Y-84703471D01*
X167502477Y-84843251D01*
X167500154Y-84848233D01*
X167500151Y-84848238D01*
X167484195Y-84882457D01*
X167437278Y-84935742D01*
X167369001Y-84955203D01*
X167301041Y-84934661D01*
X167255805Y-84882457D01*
X167239849Y-84848238D01*
X167239846Y-84848233D01*
X167237523Y-84843251D01*
X167139648Y-84703471D01*
X167109357Y-84660211D01*
X167109355Y-84660208D01*
X167106198Y-84655700D01*
X166944300Y-84493802D01*
X166939792Y-84490645D01*
X166939789Y-84490643D01*
X166861611Y-84435902D01*
X166756749Y-84362477D01*
X166751767Y-84360154D01*
X166751762Y-84360151D01*
X166554225Y-84268039D01*
X166554224Y-84268039D01*
X166549243Y-84265716D01*
X166543935Y-84264294D01*
X166543933Y-84264293D01*
X166333402Y-84207881D01*
X166333400Y-84207881D01*
X166328087Y-84206457D01*
X166100000Y-84186502D01*
X165871913Y-84206457D01*
X165866600Y-84207881D01*
X165866598Y-84207881D01*
X165656067Y-84264293D01*
X165656065Y-84264294D01*
X165650757Y-84265716D01*
X165645776Y-84268039D01*
X165645775Y-84268039D01*
X165448238Y-84360151D01*
X165448233Y-84360154D01*
X165443251Y-84362477D01*
X165338389Y-84435902D01*
X165260211Y-84490643D01*
X165260208Y-84490645D01*
X165255700Y-84493802D01*
X165093802Y-84655700D01*
X165090645Y-84660208D01*
X165090643Y-84660211D01*
X165060352Y-84703471D01*
X164962477Y-84843251D01*
X164960154Y-84848233D01*
X164960151Y-84848238D01*
X164944195Y-84882457D01*
X164897278Y-84935742D01*
X164829001Y-84955203D01*
X164761041Y-84934661D01*
X164715805Y-84882457D01*
X164699849Y-84848238D01*
X164699846Y-84848233D01*
X164697523Y-84843251D01*
X164599648Y-84703471D01*
X164569357Y-84660211D01*
X164569355Y-84660208D01*
X164566198Y-84655700D01*
X164404300Y-84493802D01*
X164399792Y-84490645D01*
X164399789Y-84490643D01*
X164321611Y-84435902D01*
X164216749Y-84362477D01*
X164211767Y-84360154D01*
X164211762Y-84360151D01*
X164014225Y-84268039D01*
X164014224Y-84268039D01*
X164009243Y-84265716D01*
X164003935Y-84264294D01*
X164003933Y-84264293D01*
X163793402Y-84207881D01*
X163793400Y-84207881D01*
X163788087Y-84206457D01*
X163560000Y-84186502D01*
X163331913Y-84206457D01*
X163326600Y-84207881D01*
X163326598Y-84207881D01*
X163116067Y-84264293D01*
X163116065Y-84264294D01*
X163110757Y-84265716D01*
X163105776Y-84268039D01*
X163105775Y-84268039D01*
X162908238Y-84360151D01*
X162908233Y-84360154D01*
X162903251Y-84362477D01*
X162798389Y-84435902D01*
X162720211Y-84490643D01*
X162720208Y-84490645D01*
X162715700Y-84493802D01*
X162553802Y-84655700D01*
X162550645Y-84660208D01*
X162550643Y-84660211D01*
X162520352Y-84703471D01*
X162422477Y-84843251D01*
X162420154Y-84848233D01*
X162420151Y-84848238D01*
X162404195Y-84882457D01*
X162357278Y-84935742D01*
X162289001Y-84955203D01*
X162221041Y-84934661D01*
X162175805Y-84882457D01*
X162159849Y-84848238D01*
X162159846Y-84848233D01*
X162157523Y-84843251D01*
X162059648Y-84703471D01*
X162029357Y-84660211D01*
X162029355Y-84660208D01*
X162026198Y-84655700D01*
X161864300Y-84493802D01*
X161859792Y-84490645D01*
X161859789Y-84490643D01*
X161781611Y-84435902D01*
X161676749Y-84362477D01*
X161671767Y-84360154D01*
X161671762Y-84360151D01*
X161474225Y-84268039D01*
X161474224Y-84268039D01*
X161469243Y-84265716D01*
X161463935Y-84264294D01*
X161463933Y-84264293D01*
X161253402Y-84207881D01*
X161253400Y-84207881D01*
X161248087Y-84206457D01*
X161020000Y-84186502D01*
X160791913Y-84206457D01*
X160786600Y-84207881D01*
X160786598Y-84207881D01*
X160576067Y-84264293D01*
X160576065Y-84264294D01*
X160570757Y-84265716D01*
X160565776Y-84268039D01*
X160565775Y-84268039D01*
X160368238Y-84360151D01*
X160368233Y-84360154D01*
X160363251Y-84362477D01*
X160258389Y-84435902D01*
X160180211Y-84490643D01*
X160180208Y-84490645D01*
X160175700Y-84493802D01*
X160013802Y-84655700D01*
X160010645Y-84660208D01*
X160010643Y-84660211D01*
X159980352Y-84703471D01*
X159882477Y-84843251D01*
X159880154Y-84848233D01*
X159880151Y-84848238D01*
X159864195Y-84882457D01*
X159817278Y-84935742D01*
X159749001Y-84955203D01*
X159681041Y-84934661D01*
X159635805Y-84882457D01*
X159619849Y-84848238D01*
X159619846Y-84848233D01*
X159617523Y-84843251D01*
X159519648Y-84703471D01*
X159489357Y-84660211D01*
X159489355Y-84660208D01*
X159486198Y-84655700D01*
X159324300Y-84493802D01*
X159319792Y-84490645D01*
X159319789Y-84490643D01*
X159241611Y-84435902D01*
X159136749Y-84362477D01*
X159131767Y-84360154D01*
X159131762Y-84360151D01*
X158934225Y-84268039D01*
X158934224Y-84268039D01*
X158929243Y-84265716D01*
X158923935Y-84264294D01*
X158923933Y-84264293D01*
X158713402Y-84207881D01*
X158713400Y-84207881D01*
X158708087Y-84206457D01*
X158480000Y-84186502D01*
X158251913Y-84206457D01*
X158246600Y-84207881D01*
X158246598Y-84207881D01*
X158036067Y-84264293D01*
X158036065Y-84264294D01*
X158030757Y-84265716D01*
X158025776Y-84268039D01*
X158025775Y-84268039D01*
X157828238Y-84360151D01*
X157828233Y-84360154D01*
X157823251Y-84362477D01*
X157718389Y-84435902D01*
X157640211Y-84490643D01*
X157640208Y-84490645D01*
X157635700Y-84493802D01*
X157473802Y-84655700D01*
X157470645Y-84660208D01*
X157470643Y-84660211D01*
X157440352Y-84703471D01*
X157342477Y-84843251D01*
X157340154Y-84848233D01*
X157340151Y-84848238D01*
X157324195Y-84882457D01*
X157277278Y-84935742D01*
X157209001Y-84955203D01*
X157141041Y-84934661D01*
X157095805Y-84882457D01*
X157079849Y-84848238D01*
X157079846Y-84848233D01*
X157077523Y-84843251D01*
X156979648Y-84703471D01*
X156949357Y-84660211D01*
X156949355Y-84660208D01*
X156946198Y-84655700D01*
X156784300Y-84493802D01*
X156779792Y-84490645D01*
X156779789Y-84490643D01*
X156701611Y-84435902D01*
X156596749Y-84362477D01*
X156591767Y-84360154D01*
X156591762Y-84360151D01*
X156394225Y-84268039D01*
X156394224Y-84268039D01*
X156389243Y-84265716D01*
X156383935Y-84264294D01*
X156383933Y-84264293D01*
X156173402Y-84207881D01*
X156173400Y-84207881D01*
X156168087Y-84206457D01*
X155940000Y-84186502D01*
X155711913Y-84206457D01*
X155706600Y-84207881D01*
X155706598Y-84207881D01*
X155496067Y-84264293D01*
X155496065Y-84264294D01*
X155490757Y-84265716D01*
X155485776Y-84268039D01*
X155485775Y-84268039D01*
X155288238Y-84360151D01*
X155288233Y-84360154D01*
X155283251Y-84362477D01*
X155178389Y-84435902D01*
X155100211Y-84490643D01*
X155100208Y-84490645D01*
X155095700Y-84493802D01*
X154933802Y-84655700D01*
X154930645Y-84660208D01*
X154930643Y-84660211D01*
X154900352Y-84703471D01*
X154802477Y-84843251D01*
X154800154Y-84848233D01*
X154800151Y-84848238D01*
X154784195Y-84882457D01*
X154737278Y-84935742D01*
X154669001Y-84955203D01*
X154601041Y-84934661D01*
X154555805Y-84882457D01*
X154539849Y-84848238D01*
X154539846Y-84848233D01*
X154537523Y-84843251D01*
X154439648Y-84703471D01*
X154409357Y-84660211D01*
X154409355Y-84660208D01*
X154406198Y-84655700D01*
X154244300Y-84493802D01*
X154239792Y-84490645D01*
X154239789Y-84490643D01*
X154161611Y-84435902D01*
X154056749Y-84362477D01*
X154051767Y-84360154D01*
X154051762Y-84360151D01*
X153854225Y-84268039D01*
X153854224Y-84268039D01*
X153849243Y-84265716D01*
X153843935Y-84264294D01*
X153843933Y-84264293D01*
X153633402Y-84207881D01*
X153633400Y-84207881D01*
X153628087Y-84206457D01*
X153400000Y-84186502D01*
X153171913Y-84206457D01*
X153166600Y-84207881D01*
X153166598Y-84207881D01*
X152956067Y-84264293D01*
X152956065Y-84264294D01*
X152950757Y-84265716D01*
X152945776Y-84268039D01*
X152945775Y-84268039D01*
X152748238Y-84360151D01*
X152748233Y-84360154D01*
X152743251Y-84362477D01*
X152638389Y-84435902D01*
X152560211Y-84490643D01*
X152560208Y-84490645D01*
X152555700Y-84493802D01*
X152393802Y-84655700D01*
X152390645Y-84660208D01*
X152390643Y-84660211D01*
X152360352Y-84703471D01*
X152262477Y-84843251D01*
X152260154Y-84848233D01*
X152260151Y-84848238D01*
X152244195Y-84882457D01*
X152197278Y-84935742D01*
X152129001Y-84955203D01*
X152061041Y-84934661D01*
X152015805Y-84882457D01*
X151999849Y-84848238D01*
X151999846Y-84848233D01*
X151997523Y-84843251D01*
X151899648Y-84703471D01*
X151869357Y-84660211D01*
X151869355Y-84660208D01*
X151866198Y-84655700D01*
X151704300Y-84493802D01*
X151699792Y-84490645D01*
X151699789Y-84490643D01*
X151621611Y-84435902D01*
X151516749Y-84362477D01*
X151511767Y-84360154D01*
X151511762Y-84360151D01*
X151314225Y-84268039D01*
X151314224Y-84268039D01*
X151309243Y-84265716D01*
X151303935Y-84264294D01*
X151303933Y-84264293D01*
X151093402Y-84207881D01*
X151093400Y-84207881D01*
X151088087Y-84206457D01*
X150860000Y-84186502D01*
X150631913Y-84206457D01*
X150626600Y-84207881D01*
X150626598Y-84207881D01*
X150416067Y-84264293D01*
X150416065Y-84264294D01*
X150410757Y-84265716D01*
X150405776Y-84268039D01*
X150405775Y-84268039D01*
X150208238Y-84360151D01*
X150208233Y-84360154D01*
X150203251Y-84362477D01*
X150098389Y-84435902D01*
X150020211Y-84490643D01*
X150020208Y-84490645D01*
X150015700Y-84493802D01*
X149853802Y-84655700D01*
X149850645Y-84660208D01*
X149850643Y-84660211D01*
X149820352Y-84703471D01*
X149722477Y-84843251D01*
X149720154Y-84848233D01*
X149720151Y-84848238D01*
X149704195Y-84882457D01*
X149657278Y-84935742D01*
X149589001Y-84955203D01*
X149521041Y-84934661D01*
X149475805Y-84882457D01*
X149459849Y-84848238D01*
X149459846Y-84848233D01*
X149457523Y-84843251D01*
X149359648Y-84703471D01*
X149329357Y-84660211D01*
X149329355Y-84660208D01*
X149326198Y-84655700D01*
X149164300Y-84493802D01*
X149159792Y-84490645D01*
X149159789Y-84490643D01*
X149081611Y-84435902D01*
X148976749Y-84362477D01*
X148971767Y-84360154D01*
X148971762Y-84360151D01*
X148774225Y-84268039D01*
X148774224Y-84268039D01*
X148769243Y-84265716D01*
X148763935Y-84264294D01*
X148763933Y-84264293D01*
X148553402Y-84207881D01*
X148553400Y-84207881D01*
X148548087Y-84206457D01*
X148320000Y-84186502D01*
X148091913Y-84206457D01*
X148086600Y-84207881D01*
X148086598Y-84207881D01*
X147876067Y-84264293D01*
X147876065Y-84264294D01*
X147870757Y-84265716D01*
X147865776Y-84268039D01*
X147865775Y-84268039D01*
X147668238Y-84360151D01*
X147668233Y-84360154D01*
X147663251Y-84362477D01*
X147558389Y-84435902D01*
X147480211Y-84490643D01*
X147480208Y-84490645D01*
X147475700Y-84493802D01*
X147313802Y-84655700D01*
X147310645Y-84660208D01*
X147310643Y-84660211D01*
X147280352Y-84703471D01*
X147182477Y-84843251D01*
X147180154Y-84848233D01*
X147180151Y-84848238D01*
X147164195Y-84882457D01*
X147117278Y-84935742D01*
X147049001Y-84955203D01*
X146981041Y-84934661D01*
X146935805Y-84882457D01*
X146919849Y-84848238D01*
X146919846Y-84848233D01*
X146917523Y-84843251D01*
X146819648Y-84703471D01*
X146789357Y-84660211D01*
X146789355Y-84660208D01*
X146786198Y-84655700D01*
X146624300Y-84493802D01*
X146619792Y-84490645D01*
X146619789Y-84490643D01*
X146541611Y-84435902D01*
X146436749Y-84362477D01*
X146431767Y-84360154D01*
X146431762Y-84360151D01*
X146234225Y-84268039D01*
X146234224Y-84268039D01*
X146229243Y-84265716D01*
X146223935Y-84264294D01*
X146223933Y-84264293D01*
X146013402Y-84207881D01*
X146013400Y-84207881D01*
X146008087Y-84206457D01*
X145780000Y-84186502D01*
X145551913Y-84206457D01*
X145546600Y-84207881D01*
X145546598Y-84207881D01*
X145336067Y-84264293D01*
X145336065Y-84264294D01*
X145330757Y-84265716D01*
X145325776Y-84268039D01*
X145325775Y-84268039D01*
X145128238Y-84360151D01*
X145128233Y-84360154D01*
X145123251Y-84362477D01*
X145018389Y-84435902D01*
X144940211Y-84490643D01*
X144940208Y-84490645D01*
X144935700Y-84493802D01*
X144773802Y-84655700D01*
X144770645Y-84660208D01*
X144770643Y-84660211D01*
X144740352Y-84703471D01*
X144642477Y-84843251D01*
X144640154Y-84848233D01*
X144640151Y-84848238D01*
X144624195Y-84882457D01*
X144577278Y-84935742D01*
X144509001Y-84955203D01*
X144441041Y-84934661D01*
X144395805Y-84882457D01*
X144379849Y-84848238D01*
X144379846Y-84848233D01*
X144377523Y-84843251D01*
X144279648Y-84703471D01*
X144249357Y-84660211D01*
X144249355Y-84660208D01*
X144246198Y-84655700D01*
X144084300Y-84493802D01*
X144079792Y-84490645D01*
X144079789Y-84490643D01*
X144001611Y-84435902D01*
X143896749Y-84362477D01*
X143891767Y-84360154D01*
X143891762Y-84360151D01*
X143694225Y-84268039D01*
X143694224Y-84268039D01*
X143689243Y-84265716D01*
X143683935Y-84264294D01*
X143683933Y-84264293D01*
X143473402Y-84207881D01*
X143473400Y-84207881D01*
X143468087Y-84206457D01*
X143240000Y-84186502D01*
X143011913Y-84206457D01*
X143006600Y-84207881D01*
X143006598Y-84207881D01*
X142796067Y-84264293D01*
X142796065Y-84264294D01*
X142790757Y-84265716D01*
X142785776Y-84268039D01*
X142785775Y-84268039D01*
X142588238Y-84360151D01*
X142588233Y-84360154D01*
X142583251Y-84362477D01*
X142478389Y-84435902D01*
X142400211Y-84490643D01*
X142400208Y-84490645D01*
X142395700Y-84493802D01*
X142233802Y-84655700D01*
X142230645Y-84660208D01*
X142230643Y-84660211D01*
X142200352Y-84703471D01*
X142102477Y-84843251D01*
X142100154Y-84848233D01*
X142100151Y-84848238D01*
X142084195Y-84882457D01*
X142037278Y-84935742D01*
X141969001Y-84955203D01*
X141901041Y-84934661D01*
X141855805Y-84882457D01*
X141839849Y-84848238D01*
X141839846Y-84848233D01*
X141837523Y-84843251D01*
X141739648Y-84703471D01*
X141709357Y-84660211D01*
X141709355Y-84660208D01*
X141706198Y-84655700D01*
X141544300Y-84493802D01*
X141539792Y-84490645D01*
X141539789Y-84490643D01*
X141461611Y-84435902D01*
X141356749Y-84362477D01*
X141351767Y-84360154D01*
X141351762Y-84360151D01*
X141154225Y-84268039D01*
X141154224Y-84268039D01*
X141149243Y-84265716D01*
X141143935Y-84264294D01*
X141143933Y-84264293D01*
X140933402Y-84207881D01*
X140933400Y-84207881D01*
X140928087Y-84206457D01*
X140700000Y-84186502D01*
X140471913Y-84206457D01*
X140466600Y-84207881D01*
X140466598Y-84207881D01*
X140256067Y-84264293D01*
X140256065Y-84264294D01*
X140250757Y-84265716D01*
X140245776Y-84268039D01*
X140245775Y-84268039D01*
X140048238Y-84360151D01*
X140048233Y-84360154D01*
X140043251Y-84362477D01*
X139938389Y-84435902D01*
X139860211Y-84490643D01*
X139860208Y-84490645D01*
X139855700Y-84493802D01*
X139693802Y-84655700D01*
X139690645Y-84660208D01*
X139690643Y-84660211D01*
X139660352Y-84703471D01*
X139562477Y-84843251D01*
X139560154Y-84848233D01*
X139560151Y-84848238D01*
X139544195Y-84882457D01*
X139497278Y-84935742D01*
X139429001Y-84955203D01*
X139361041Y-84934661D01*
X139315805Y-84882457D01*
X139299849Y-84848238D01*
X139299846Y-84848233D01*
X139297523Y-84843251D01*
X139199648Y-84703471D01*
X139169357Y-84660211D01*
X139169355Y-84660208D01*
X139166198Y-84655700D01*
X139004300Y-84493802D01*
X138999792Y-84490645D01*
X138999789Y-84490643D01*
X138921611Y-84435902D01*
X138816749Y-84362477D01*
X138811767Y-84360154D01*
X138811762Y-84360151D01*
X138614225Y-84268039D01*
X138614224Y-84268039D01*
X138609243Y-84265716D01*
X138603935Y-84264294D01*
X138603933Y-84264293D01*
X138393402Y-84207881D01*
X138393400Y-84207881D01*
X138388087Y-84206457D01*
X138160000Y-84186502D01*
X137931913Y-84206457D01*
X137926600Y-84207881D01*
X137926598Y-84207881D01*
X137716067Y-84264293D01*
X137716065Y-84264294D01*
X137710757Y-84265716D01*
X137705776Y-84268039D01*
X137705775Y-84268039D01*
X137508238Y-84360151D01*
X137508233Y-84360154D01*
X137503251Y-84362477D01*
X137398389Y-84435902D01*
X137320211Y-84490643D01*
X137320208Y-84490645D01*
X137315700Y-84493802D01*
X137153802Y-84655700D01*
X137150645Y-84660208D01*
X137150643Y-84660211D01*
X137120352Y-84703471D01*
X137022477Y-84843251D01*
X137020154Y-84848233D01*
X137020151Y-84848238D01*
X137004195Y-84882457D01*
X136957278Y-84935742D01*
X136889001Y-84955203D01*
X136821041Y-84934661D01*
X136775805Y-84882457D01*
X136759849Y-84848238D01*
X136759846Y-84848233D01*
X136757523Y-84843251D01*
X136659648Y-84703471D01*
X136629357Y-84660211D01*
X136629355Y-84660208D01*
X136626198Y-84655700D01*
X136464300Y-84493802D01*
X136459792Y-84490645D01*
X136459789Y-84490643D01*
X136381611Y-84435902D01*
X136276749Y-84362477D01*
X136271767Y-84360154D01*
X136271762Y-84360151D01*
X136074225Y-84268039D01*
X136074224Y-84268039D01*
X136069243Y-84265716D01*
X136063935Y-84264294D01*
X136063933Y-84264293D01*
X135853402Y-84207881D01*
X135853400Y-84207881D01*
X135848087Y-84206457D01*
X135620000Y-84186502D01*
X135391913Y-84206457D01*
X135386600Y-84207881D01*
X135386598Y-84207881D01*
X135176067Y-84264293D01*
X135176065Y-84264294D01*
X135170757Y-84265716D01*
X135165776Y-84268039D01*
X135165775Y-84268039D01*
X134968238Y-84360151D01*
X134968233Y-84360154D01*
X134963251Y-84362477D01*
X134858389Y-84435902D01*
X134780211Y-84490643D01*
X134780208Y-84490645D01*
X134775700Y-84493802D01*
X134613802Y-84655700D01*
X134610645Y-84660208D01*
X134610643Y-84660211D01*
X134580352Y-84703471D01*
X134482477Y-84843251D01*
X134480154Y-84848233D01*
X134480151Y-84848238D01*
X134464195Y-84882457D01*
X134417278Y-84935742D01*
X134349001Y-84955203D01*
X134281041Y-84934661D01*
X134235805Y-84882457D01*
X134219849Y-84848238D01*
X134219846Y-84848233D01*
X134217523Y-84843251D01*
X134119648Y-84703471D01*
X134089357Y-84660211D01*
X134089355Y-84660208D01*
X134086198Y-84655700D01*
X133924300Y-84493802D01*
X133919792Y-84490645D01*
X133919789Y-84490643D01*
X133841611Y-84435902D01*
X133736749Y-84362477D01*
X133731767Y-84360154D01*
X133731762Y-84360151D01*
X133534225Y-84268039D01*
X133534224Y-84268039D01*
X133529243Y-84265716D01*
X133523935Y-84264294D01*
X133523933Y-84264293D01*
X133313402Y-84207881D01*
X133313400Y-84207881D01*
X133308087Y-84206457D01*
X133080000Y-84186502D01*
X132851913Y-84206457D01*
X132846600Y-84207881D01*
X132846598Y-84207881D01*
X132636067Y-84264293D01*
X132636065Y-84264294D01*
X132630757Y-84265716D01*
X132625776Y-84268039D01*
X132625775Y-84268039D01*
X132428238Y-84360151D01*
X132428233Y-84360154D01*
X132423251Y-84362477D01*
X132318389Y-84435902D01*
X132240211Y-84490643D01*
X132240208Y-84490645D01*
X132235700Y-84493802D01*
X132073802Y-84655700D01*
X132070645Y-84660208D01*
X132070643Y-84660211D01*
X132040352Y-84703471D01*
X131942477Y-84843251D01*
X131940154Y-84848233D01*
X131940151Y-84848238D01*
X131924195Y-84882457D01*
X131877278Y-84935742D01*
X131809001Y-84955203D01*
X131741041Y-84934661D01*
X131695805Y-84882457D01*
X131679849Y-84848238D01*
X131679846Y-84848233D01*
X131677523Y-84843251D01*
X131579648Y-84703471D01*
X131549357Y-84660211D01*
X131549355Y-84660208D01*
X131546198Y-84655700D01*
X131384300Y-84493802D01*
X131379792Y-84490645D01*
X131379789Y-84490643D01*
X131301611Y-84435902D01*
X131196749Y-84362477D01*
X131191767Y-84360154D01*
X131191762Y-84360151D01*
X130994225Y-84268039D01*
X130994224Y-84268039D01*
X130989243Y-84265716D01*
X130983935Y-84264294D01*
X130983933Y-84264293D01*
X130773402Y-84207881D01*
X130773400Y-84207881D01*
X130768087Y-84206457D01*
X130540000Y-84186502D01*
X130311913Y-84206457D01*
X130306600Y-84207881D01*
X130306598Y-84207881D01*
X130096067Y-84264293D01*
X130096065Y-84264294D01*
X130090757Y-84265716D01*
X130085776Y-84268039D01*
X130085775Y-84268039D01*
X129888238Y-84360151D01*
X129888233Y-84360154D01*
X129883251Y-84362477D01*
X129778389Y-84435902D01*
X129700211Y-84490643D01*
X129700208Y-84490645D01*
X129695700Y-84493802D01*
X129533802Y-84655700D01*
X129530643Y-84660211D01*
X129527108Y-84664424D01*
X129525974Y-84663473D01*
X129475929Y-84703471D01*
X129405310Y-84710776D01*
X129341951Y-84678742D01*
X129305970Y-84617538D01*
X129302918Y-84600483D01*
X129301745Y-84589684D01*
X129250615Y-84453295D01*
X129163261Y-84336739D01*
X129046705Y-84249385D01*
X128910316Y-84198255D01*
X128848134Y-84191500D01*
X127151866Y-84191500D01*
X127089684Y-84198255D01*
X126953295Y-84249385D01*
X126836739Y-84336739D01*
X126749385Y-84453295D01*
X126698255Y-84589684D01*
X126691500Y-84651866D01*
X126691500Y-86348134D01*
X126698255Y-86410316D01*
X126749385Y-86546705D01*
X126836739Y-86663261D01*
X126953295Y-86750615D01*
X127089684Y-86801745D01*
X127151866Y-86808500D01*
X128848134Y-86808500D01*
X128910316Y-86801745D01*
X129046705Y-86750615D01*
X129053891Y-86745229D01*
X129061033Y-86741319D01*
X129130390Y-86726149D01*
X129196938Y-86750884D01*
X129210639Y-86762743D01*
X139922643Y-97474747D01*
X139930187Y-97483037D01*
X139934300Y-97489518D01*
X139940077Y-97494943D01*
X139983967Y-97536158D01*
X139986809Y-97538913D01*
X140006530Y-97558634D01*
X140009725Y-97561112D01*
X140018747Y-97568818D01*
X140050979Y-97599086D01*
X140057928Y-97602906D01*
X140068732Y-97608846D01*
X140085256Y-97619699D01*
X140101259Y-97632113D01*
X140141843Y-97649676D01*
X140152473Y-97654883D01*
X140191240Y-97676195D01*
X140198917Y-97678166D01*
X140198922Y-97678168D01*
X140210858Y-97681232D01*
X140229566Y-97687637D01*
X140248155Y-97695681D01*
X140255983Y-97696921D01*
X140255990Y-97696923D01*
X140291824Y-97702599D01*
X140303444Y-97705005D01*
X140335259Y-97713173D01*
X140346270Y-97716000D01*
X140366524Y-97716000D01*
X140386234Y-97717551D01*
X140406243Y-97720720D01*
X140414135Y-97719974D01*
X140432880Y-97718202D01*
X140450262Y-97716559D01*
X140462119Y-97716000D01*
X149167301Y-97716000D01*
X149235422Y-97736002D01*
X149274445Y-97775698D01*
X149288884Y-97799031D01*
X149294066Y-97804204D01*
X149395786Y-97905747D01*
X149429865Y-97968030D01*
X149424862Y-98038850D01*
X149395941Y-98083937D01*
X149293246Y-98186812D01*
X149293242Y-98186817D01*
X149288071Y-98191997D01*
X149284231Y-98198227D01*
X149284230Y-98198228D01*
X149201364Y-98332662D01*
X149196791Y-98340080D01*
X149142026Y-98505191D01*
X149131500Y-98607928D01*
X149131500Y-99207072D01*
X149131837Y-99210318D01*
X149131837Y-99210322D01*
X149134335Y-99234391D01*
X149142293Y-99311093D01*
X149197346Y-99476107D01*
X149288884Y-99624031D01*
X149294066Y-99629204D01*
X149406816Y-99741758D01*
X149406821Y-99741762D01*
X149411997Y-99746929D01*
X149560080Y-99838209D01*
X149725191Y-99892974D01*
X149732027Y-99893674D01*
X149732030Y-99893675D01*
X149783526Y-99898951D01*
X149827928Y-99903500D01*
X149980892Y-99903500D01*
X150049013Y-99923502D01*
X150095506Y-99977158D01*
X150105610Y-100047432D01*
X150076116Y-100112012D01*
X150054954Y-100131435D01*
X150008847Y-100164934D01*
X150004432Y-100169837D01*
X149999520Y-100174260D01*
X149998395Y-100173011D01*
X149945086Y-100205851D01*
X149911900Y-100210300D01*
X146709967Y-100210300D01*
X146698784Y-100209773D01*
X146691291Y-100208098D01*
X146683365Y-100208347D01*
X146683364Y-100208347D01*
X146623214Y-100210238D01*
X146619255Y-100210300D01*
X146591344Y-100210300D01*
X146587410Y-100210797D01*
X146587409Y-100210797D01*
X146587344Y-100210805D01*
X146575507Y-100211738D01*
X146543249Y-100212752D01*
X146539230Y-100212878D01*
X146531311Y-100213127D01*
X146511857Y-100218779D01*
X146492500Y-100222787D01*
X146480270Y-100224332D01*
X146480269Y-100224332D01*
X146472403Y-100225326D01*
X146465032Y-100228245D01*
X146465030Y-100228245D01*
X146431288Y-100241604D01*
X146420058Y-100245449D01*
X146385217Y-100255571D01*
X146385216Y-100255571D01*
X146377607Y-100257782D01*
X146370788Y-100261815D01*
X146370783Y-100261817D01*
X146360172Y-100268093D01*
X146342424Y-100276788D01*
X146323583Y-100284248D01*
X146317167Y-100288910D01*
X146317166Y-100288910D01*
X146287813Y-100310236D01*
X146277893Y-100316752D01*
X146246665Y-100335220D01*
X146246662Y-100335222D01*
X146239838Y-100339258D01*
X146225517Y-100353579D01*
X146210484Y-100366419D01*
X146194093Y-100378328D01*
X146189043Y-100384432D01*
X146189038Y-100384437D01*
X146165907Y-100412398D01*
X146157917Y-100421179D01*
X145719499Y-100859596D01*
X145657187Y-100893621D01*
X145630404Y-100896500D01*
X145574513Y-100896500D01*
X145568061Y-100897872D01*
X145568056Y-100897872D01*
X145481112Y-100916353D01*
X145387712Y-100936206D01*
X145381682Y-100938891D01*
X145381681Y-100938891D01*
X145219278Y-101011197D01*
X145219276Y-101011198D01*
X145213248Y-101013882D01*
X145058747Y-101126134D01*
X145054326Y-101131044D01*
X145054325Y-101131045D01*
X145022716Y-101166151D01*
X144930960Y-101268056D01*
X144908448Y-101307048D01*
X144841356Y-101423255D01*
X144835473Y-101433444D01*
X144776458Y-101615072D01*
X144756496Y-101805000D01*
X144757186Y-101811565D01*
X144773132Y-101963279D01*
X144776458Y-101994928D01*
X144835473Y-102176556D01*
X144838776Y-102182278D01*
X144838777Y-102182279D01*
X144849900Y-102201544D01*
X144930960Y-102341944D01*
X145058747Y-102483866D01*
X145213248Y-102596118D01*
X145219276Y-102598802D01*
X145219278Y-102598803D01*
X145365438Y-102663877D01*
X145387712Y-102673794D01*
X145481112Y-102693647D01*
X145568056Y-102712128D01*
X145568061Y-102712128D01*
X145574513Y-102713500D01*
X145765487Y-102713500D01*
X145771939Y-102712128D01*
X145771944Y-102712128D01*
X145858888Y-102693647D01*
X145952288Y-102673794D01*
X145974562Y-102663877D01*
X146120722Y-102598803D01*
X146120724Y-102598802D01*
X146126752Y-102596118D01*
X146281253Y-102483866D01*
X146409040Y-102341944D01*
X146490100Y-102201544D01*
X146501223Y-102182279D01*
X146501224Y-102182278D01*
X146504527Y-102176556D01*
X146563542Y-101994928D01*
X146566869Y-101963279D01*
X146580907Y-101829708D01*
X146607920Y-101764051D01*
X146617122Y-101753782D01*
X146856701Y-101514204D01*
X146919013Y-101480179D01*
X146945796Y-101477300D01*
X148568247Y-101477300D01*
X148636368Y-101497302D01*
X148682861Y-101550958D01*
X148692965Y-101621232D01*
X148678766Y-101663810D01*
X148674767Y-101671114D01*
X148669385Y-101678295D01*
X148618255Y-101814684D01*
X148611500Y-101876866D01*
X148611500Y-102273134D01*
X148611869Y-102276529D01*
X148611869Y-102276533D01*
X148615656Y-102311393D01*
X148615656Y-102338606D01*
X148611500Y-102376866D01*
X148611500Y-102773134D01*
X148611869Y-102776529D01*
X148611869Y-102776533D01*
X148615656Y-102811393D01*
X148615656Y-102838606D01*
X148611500Y-102876866D01*
X148611500Y-103273134D01*
X148615909Y-103313720D01*
X148615909Y-103340933D01*
X148612369Y-103373517D01*
X148612000Y-103380328D01*
X148612000Y-103406885D01*
X148616475Y-103422124D01*
X148642170Y-103444389D01*
X148641712Y-103444918D01*
X148654100Y-103451682D01*
X148669207Y-103471839D01*
X148669385Y-103471705D01*
X148708997Y-103524559D01*
X148733845Y-103591065D01*
X148718792Y-103660448D01*
X148668618Y-103710678D01*
X148643670Y-103721020D01*
X148614877Y-103729475D01*
X148613672Y-103730865D01*
X148612001Y-103738548D01*
X148612001Y-103769669D01*
X148612371Y-103776493D01*
X148616161Y-103811393D01*
X148616161Y-103838603D01*
X148612369Y-103873510D01*
X148612000Y-103880329D01*
X148612000Y-103906885D01*
X148616475Y-103922124D01*
X148617865Y-103923329D01*
X148625548Y-103925000D01*
X149651885Y-103925000D01*
X149667124Y-103920525D01*
X149668329Y-103919135D01*
X149670000Y-103911452D01*
X149670000Y-103859500D01*
X149690002Y-103791379D01*
X149743658Y-103744886D01*
X149796000Y-103733500D01*
X149844000Y-103733500D01*
X149912121Y-103753502D01*
X149958614Y-103807158D01*
X149970000Y-103859500D01*
X149970000Y-104714884D01*
X149974475Y-104730123D01*
X149975865Y-104731328D01*
X149983548Y-104732999D01*
X150085600Y-104732999D01*
X150153721Y-104753001D01*
X150200214Y-104806657D01*
X150211600Y-104858999D01*
X150211600Y-116378292D01*
X150203160Y-116422539D01*
X150200905Y-116426640D01*
X150198933Y-116434322D01*
X150195867Y-116446262D01*
X150189463Y-116464966D01*
X150181419Y-116483555D01*
X150180180Y-116491378D01*
X150180177Y-116491388D01*
X150174501Y-116527224D01*
X150172095Y-116538844D01*
X150161100Y-116581670D01*
X150161100Y-116601924D01*
X150159549Y-116621634D01*
X150156380Y-116641643D01*
X150157126Y-116649535D01*
X150160541Y-116685661D01*
X150161100Y-116697519D01*
X150161100Y-118397633D01*
X150160573Y-118408816D01*
X150158898Y-118416309D01*
X150159147Y-118424235D01*
X150159147Y-118424236D01*
X150161038Y-118484386D01*
X150161100Y-118488345D01*
X150161100Y-118516256D01*
X150161597Y-118520190D01*
X150161597Y-118520191D01*
X150161605Y-118520256D01*
X150162538Y-118532093D01*
X150163927Y-118576289D01*
X150169578Y-118595739D01*
X150173587Y-118615100D01*
X150176126Y-118635197D01*
X150179045Y-118642568D01*
X150179045Y-118642570D01*
X150192404Y-118676312D01*
X150196249Y-118687542D01*
X150208582Y-118729993D01*
X150212615Y-118736812D01*
X150212617Y-118736817D01*
X150218893Y-118747428D01*
X150227588Y-118765176D01*
X150235048Y-118784017D01*
X150239710Y-118790433D01*
X150239710Y-118790434D01*
X150261036Y-118819787D01*
X150267552Y-118829707D01*
X150283385Y-118856478D01*
X150290058Y-118867762D01*
X150304379Y-118882083D01*
X150317219Y-118897116D01*
X150329128Y-118913507D01*
X150335234Y-118918558D01*
X150363205Y-118941698D01*
X150371984Y-118949688D01*
X150749353Y-119327057D01*
X150767421Y-119360144D01*
X150781446Y-119363974D01*
X150804451Y-119382155D01*
X151050378Y-119628082D01*
X151084404Y-119690394D01*
X151086592Y-119704003D01*
X151093455Y-119769293D01*
X151100406Y-119835429D01*
X151103958Y-119869228D01*
X151162973Y-120050856D01*
X151166276Y-120056578D01*
X151166277Y-120056579D01*
X151183148Y-120085800D01*
X151199886Y-120154795D01*
X151176666Y-120221887D01*
X151120859Y-120265774D01*
X151074029Y-120274800D01*
X151014843Y-120274800D01*
X150946722Y-120254798D01*
X150900229Y-120201142D01*
X150889533Y-120161970D01*
X150874332Y-120017335D01*
X150874332Y-120017333D01*
X150873642Y-120010772D01*
X150814627Y-119829144D01*
X150719140Y-119663756D01*
X150702981Y-119645809D01*
X150621720Y-119555560D01*
X150608823Y-119528687D01*
X150599873Y-119526740D01*
X150586197Y-119518088D01*
X150442194Y-119413463D01*
X150442193Y-119413462D01*
X150436852Y-119409582D01*
X150430824Y-119406898D01*
X150430822Y-119406897D01*
X150268419Y-119334591D01*
X150268418Y-119334591D01*
X150262388Y-119331906D01*
X150168987Y-119312053D01*
X150082044Y-119293572D01*
X150082039Y-119293572D01*
X150075587Y-119292200D01*
X149884613Y-119292200D01*
X149878161Y-119293572D01*
X149878156Y-119293572D01*
X149791213Y-119312053D01*
X149697812Y-119331906D01*
X149691782Y-119334591D01*
X149691781Y-119334591D01*
X149529378Y-119406897D01*
X149529376Y-119406898D01*
X149523348Y-119409582D01*
X149368847Y-119521834D01*
X149364432Y-119526737D01*
X149359520Y-119531160D01*
X149358395Y-119529911D01*
X149305086Y-119562751D01*
X149271900Y-119567200D01*
X144225667Y-119567200D01*
X144214484Y-119566673D01*
X144206991Y-119564998D01*
X144199065Y-119565247D01*
X144199064Y-119565247D01*
X144138914Y-119567138D01*
X144134955Y-119567200D01*
X144107044Y-119567200D01*
X144103110Y-119567697D01*
X144103109Y-119567697D01*
X144103044Y-119567705D01*
X144091207Y-119568638D01*
X144059390Y-119569638D01*
X144054929Y-119569778D01*
X144047010Y-119570027D01*
X144029354Y-119575156D01*
X144027558Y-119575678D01*
X144008206Y-119579686D01*
X144001135Y-119580580D01*
X143988103Y-119582226D01*
X143980734Y-119585143D01*
X143980732Y-119585144D01*
X143946997Y-119598500D01*
X143935769Y-119602345D01*
X143893307Y-119614682D01*
X143886485Y-119618716D01*
X143886479Y-119618719D01*
X143875868Y-119624994D01*
X143858118Y-119633690D01*
X143846656Y-119638228D01*
X143846651Y-119638231D01*
X143839283Y-119641148D01*
X143832868Y-119645809D01*
X143803525Y-119667127D01*
X143793607Y-119673643D01*
X143784042Y-119679300D01*
X143755537Y-119696158D01*
X143741213Y-119710482D01*
X143726181Y-119723321D01*
X143709793Y-119735228D01*
X143681612Y-119769293D01*
X143673622Y-119778073D01*
X135107747Y-128343948D01*
X135099461Y-128351488D01*
X135092982Y-128355600D01*
X135087557Y-128361377D01*
X135046357Y-128405251D01*
X135043602Y-128408093D01*
X135023865Y-128427830D01*
X135021385Y-128431027D01*
X135013682Y-128440047D01*
X134983414Y-128472279D01*
X134979595Y-128479225D01*
X134979593Y-128479228D01*
X134973652Y-128490034D01*
X134962801Y-128506553D01*
X134950386Y-128522559D01*
X134947241Y-128529828D01*
X134947238Y-128529832D01*
X134932826Y-128563137D01*
X134927609Y-128573787D01*
X134906305Y-128612540D01*
X134904334Y-128620215D01*
X134904334Y-128620216D01*
X134901267Y-128632162D01*
X134894863Y-128650866D01*
X134886819Y-128669455D01*
X134885580Y-128677278D01*
X134885577Y-128677288D01*
X134879901Y-128713124D01*
X134877495Y-128724744D01*
X134866500Y-128767570D01*
X134866500Y-128787824D01*
X134864949Y-128807534D01*
X134861780Y-128827543D01*
X134862526Y-128835435D01*
X134865941Y-128871561D01*
X134866500Y-128883419D01*
X134866500Y-130254000D01*
X134846498Y-130322121D01*
X134792842Y-130368614D01*
X134740500Y-130380000D01*
X119761000Y-130380000D01*
X119692879Y-130359998D01*
X119646386Y-130306342D01*
X119635000Y-130254000D01*
X119635000Y-101848900D01*
X132446296Y-101848900D01*
X132446986Y-101855465D01*
X132465317Y-102029871D01*
X132466258Y-102038828D01*
X132525273Y-102220456D01*
X132620760Y-102385844D01*
X132625178Y-102390751D01*
X132625179Y-102390752D01*
X132717359Y-102493128D01*
X132748547Y-102527766D01*
X132842625Y-102596118D01*
X132903048Y-102640018D01*
X132902935Y-102640174D01*
X132911600Y-102646196D01*
X132928402Y-102660096D01*
X132937181Y-102668085D01*
X140277878Y-110008782D01*
X140311904Y-110071094D01*
X140314092Y-110084703D01*
X140331458Y-110249928D01*
X140390473Y-110431556D01*
X140485960Y-110596944D01*
X140490378Y-110601851D01*
X140490379Y-110601852D01*
X140537263Y-110653922D01*
X140613747Y-110738866D01*
X140768248Y-110851118D01*
X140774276Y-110853802D01*
X140774278Y-110853803D01*
X140786746Y-110859354D01*
X140942712Y-110928794D01*
X141034513Y-110948307D01*
X141123056Y-110967128D01*
X141123061Y-110967128D01*
X141129513Y-110968500D01*
X141320487Y-110968500D01*
X141326939Y-110967128D01*
X141326944Y-110967128D01*
X141415487Y-110948307D01*
X141507288Y-110928794D01*
X141663254Y-110859354D01*
X141675722Y-110853803D01*
X141675724Y-110853802D01*
X141681752Y-110851118D01*
X141836253Y-110738866D01*
X141912737Y-110653922D01*
X141959621Y-110601852D01*
X141959622Y-110601851D01*
X141964040Y-110596944D01*
X142059527Y-110431556D01*
X142118542Y-110249928D01*
X142138504Y-110060000D01*
X142118542Y-109870072D01*
X142059527Y-109688444D01*
X141964040Y-109523056D01*
X141918491Y-109472468D01*
X141840675Y-109386045D01*
X141840674Y-109386044D01*
X141836253Y-109381134D01*
X141681752Y-109268882D01*
X141675724Y-109266198D01*
X141675722Y-109266197D01*
X141513319Y-109193891D01*
X141513318Y-109193891D01*
X141507288Y-109191206D01*
X141413887Y-109171353D01*
X141326944Y-109152872D01*
X141326939Y-109152872D01*
X141320487Y-109151500D01*
X141264594Y-109151500D01*
X141196473Y-109131498D01*
X141175499Y-109114595D01*
X136330574Y-104269669D01*
X148612001Y-104269669D01*
X148612371Y-104276490D01*
X148617895Y-104327352D01*
X148621521Y-104342604D01*
X148666676Y-104463054D01*
X148675214Y-104478649D01*
X148751715Y-104580724D01*
X148764276Y-104593285D01*
X148866351Y-104669786D01*
X148881946Y-104678324D01*
X149002394Y-104723478D01*
X149017649Y-104727105D01*
X149068514Y-104732631D01*
X149075328Y-104733000D01*
X149651885Y-104733000D01*
X149667124Y-104728525D01*
X149668329Y-104727135D01*
X149670000Y-104719452D01*
X149670000Y-104243115D01*
X149665525Y-104227876D01*
X149664135Y-104226671D01*
X149656452Y-104225000D01*
X148630116Y-104225000D01*
X148614877Y-104229475D01*
X148613672Y-104230865D01*
X148612001Y-104238548D01*
X148612001Y-104269669D01*
X136330574Y-104269669D01*
X134270269Y-102209364D01*
X134236243Y-102147052D01*
X134239531Y-102081334D01*
X134253342Y-102038828D01*
X134254284Y-102029871D01*
X134272614Y-101855465D01*
X134273304Y-101848900D01*
X134271287Y-101829708D01*
X134254032Y-101665535D01*
X134254032Y-101665533D01*
X134253342Y-101658972D01*
X134194327Y-101477344D01*
X134176835Y-101447046D01*
X134143780Y-101389794D01*
X134098840Y-101311956D01*
X133971053Y-101170034D01*
X133816552Y-101057782D01*
X133810524Y-101055098D01*
X133810522Y-101055097D01*
X133648119Y-100982791D01*
X133648118Y-100982791D01*
X133642088Y-100980106D01*
X133548687Y-100960253D01*
X133461744Y-100941772D01*
X133461739Y-100941772D01*
X133455287Y-100940400D01*
X133264313Y-100940400D01*
X133257861Y-100941772D01*
X133257856Y-100941772D01*
X133170912Y-100960253D01*
X133077512Y-100980106D01*
X133071482Y-100982791D01*
X133071481Y-100982791D01*
X132909078Y-101055097D01*
X132909076Y-101055098D01*
X132903048Y-101057782D01*
X132748547Y-101170034D01*
X132620760Y-101311956D01*
X132575820Y-101389794D01*
X132542766Y-101447046D01*
X132525273Y-101477344D01*
X132466258Y-101658972D01*
X132465568Y-101665533D01*
X132465568Y-101665535D01*
X132448313Y-101829708D01*
X132446296Y-101848900D01*
X119635000Y-101848900D01*
X119635000Y-97052817D01*
X130987514Y-97052817D01*
X130988095Y-97057837D01*
X130988095Y-97057841D01*
X131003923Y-97194631D01*
X131015415Y-97293956D01*
X131016791Y-97298820D01*
X131016792Y-97298823D01*
X131062476Y-97460266D01*
X131081510Y-97527532D01*
X131083644Y-97532108D01*
X131083646Y-97532114D01*
X131181962Y-97742954D01*
X131184099Y-97747536D01*
X131320544Y-97948307D01*
X131487332Y-98124681D01*
X131491358Y-98127759D01*
X131491359Y-98127760D01*
X131676154Y-98269047D01*
X131676158Y-98269050D01*
X131680174Y-98272120D01*
X131684632Y-98274510D01*
X131684633Y-98274511D01*
X131750139Y-98309635D01*
X131894109Y-98386831D01*
X132123631Y-98465862D01*
X132222978Y-98483022D01*
X132358926Y-98506504D01*
X132358932Y-98506505D01*
X132362836Y-98507179D01*
X132366797Y-98507359D01*
X132366798Y-98507359D01*
X132390506Y-98508436D01*
X132390525Y-98508436D01*
X132391925Y-98508500D01*
X132561001Y-98508500D01*
X132563509Y-98508298D01*
X132563514Y-98508298D01*
X132736924Y-98494346D01*
X132736929Y-98494345D01*
X132741965Y-98493940D01*
X132746873Y-98492734D01*
X132746876Y-98492734D01*
X132972792Y-98437244D01*
X132977706Y-98436037D01*
X132982358Y-98434062D01*
X132982362Y-98434061D01*
X133118171Y-98376413D01*
X133201156Y-98341188D01*
X133307037Y-98274511D01*
X133402288Y-98214528D01*
X133402291Y-98214526D01*
X133406567Y-98211833D01*
X133505422Y-98124681D01*
X133584858Y-98054650D01*
X133584861Y-98054647D01*
X133588655Y-98051302D01*
X133600328Y-98037091D01*
X133739526Y-97867628D01*
X133739528Y-97867625D01*
X133742734Y-97863722D01*
X133821499Y-97728391D01*
X133862299Y-97658290D01*
X133862300Y-97658288D01*
X133864841Y-97653922D01*
X133880713Y-97612573D01*
X133950020Y-97432022D01*
X133950021Y-97432018D01*
X133951833Y-97427298D01*
X133952868Y-97422345D01*
X134000440Y-97194631D01*
X134000440Y-97194627D01*
X134001474Y-97189680D01*
X134012486Y-96947183D01*
X133997235Y-96815373D01*
X133985167Y-96711071D01*
X133985166Y-96711067D01*
X133984585Y-96706044D01*
X133977270Y-96680191D01*
X133919866Y-96477331D01*
X133918490Y-96472468D01*
X133916356Y-96467892D01*
X133916354Y-96467886D01*
X133818038Y-96257046D01*
X133818036Y-96257042D01*
X133815901Y-96252464D01*
X133809518Y-96243071D01*
X133710446Y-96097293D01*
X133679456Y-96051693D01*
X133512668Y-95875319D01*
X133508641Y-95872240D01*
X133323846Y-95730953D01*
X133323842Y-95730950D01*
X133319826Y-95727880D01*
X133105891Y-95613169D01*
X132876369Y-95534138D01*
X132777022Y-95516978D01*
X132641074Y-95493496D01*
X132641068Y-95493495D01*
X132637164Y-95492821D01*
X132633203Y-95492641D01*
X132633202Y-95492641D01*
X132609494Y-95491564D01*
X132609475Y-95491564D01*
X132608075Y-95491500D01*
X132438999Y-95491500D01*
X132436491Y-95491702D01*
X132436486Y-95491702D01*
X132263076Y-95505654D01*
X132263071Y-95505655D01*
X132258035Y-95506060D01*
X132253127Y-95507266D01*
X132253124Y-95507266D01*
X132137007Y-95535787D01*
X132022294Y-95563963D01*
X132017642Y-95565938D01*
X132017638Y-95565939D01*
X131910252Y-95611522D01*
X131798844Y-95658812D01*
X131794560Y-95661510D01*
X131597712Y-95785472D01*
X131597709Y-95785474D01*
X131593433Y-95788167D01*
X131589639Y-95791512D01*
X131415142Y-95945350D01*
X131415139Y-95945353D01*
X131411345Y-95948698D01*
X131408135Y-95952606D01*
X131408134Y-95952607D01*
X131289508Y-96097026D01*
X131257266Y-96136278D01*
X131135159Y-96346078D01*
X131133346Y-96350801D01*
X131067619Y-96522028D01*
X131048167Y-96572702D01*
X131047133Y-96577652D01*
X131047132Y-96577655D01*
X131004917Y-96779729D01*
X130998526Y-96810320D01*
X130987514Y-97052817D01*
X119635000Y-97052817D01*
X119635000Y-86197966D01*
X120208257Y-86197966D01*
X120238565Y-86332446D01*
X120241645Y-86342275D01*
X120321770Y-86539603D01*
X120326413Y-86548794D01*
X120437694Y-86730388D01*
X120443777Y-86738699D01*
X120583213Y-86899667D01*
X120590580Y-86906883D01*
X120754434Y-87042916D01*
X120762881Y-87048831D01*
X120946756Y-87156279D01*
X120956042Y-87160729D01*
X121155001Y-87236703D01*
X121164899Y-87239579D01*
X121268250Y-87260606D01*
X121282299Y-87259410D01*
X121286000Y-87249065D01*
X121286000Y-87248517D01*
X121794000Y-87248517D01*
X121798064Y-87262359D01*
X121811478Y-87264393D01*
X121818184Y-87263534D01*
X121828262Y-87261392D01*
X122032255Y-87200191D01*
X122041842Y-87196433D01*
X122233095Y-87102739D01*
X122241945Y-87097464D01*
X122415328Y-86973792D01*
X122423193Y-86967145D01*
X122527897Y-86862805D01*
X122590268Y-86828889D01*
X122661075Y-86834077D01*
X122717837Y-86876723D01*
X122734819Y-86907826D01*
X122779385Y-87026705D01*
X122866739Y-87143261D01*
X122983295Y-87230615D01*
X123119684Y-87281745D01*
X123181866Y-87288500D01*
X124978134Y-87288500D01*
X125040316Y-87281745D01*
X125176705Y-87230615D01*
X125293261Y-87143261D01*
X125380615Y-87026705D01*
X125431745Y-86890316D01*
X125438500Y-86828134D01*
X125438500Y-85031866D01*
X125431745Y-84969684D01*
X125380615Y-84833295D01*
X125293261Y-84716739D01*
X125176705Y-84629385D01*
X125040316Y-84578255D01*
X124978134Y-84571500D01*
X123181866Y-84571500D01*
X123119684Y-84578255D01*
X122983295Y-84629385D01*
X122866739Y-84716739D01*
X122779385Y-84833295D01*
X122776233Y-84841703D01*
X122776232Y-84841705D01*
X122734722Y-84952433D01*
X122692081Y-85009198D01*
X122625519Y-85033898D01*
X122556170Y-85018691D01*
X122523546Y-84993004D01*
X122472799Y-84937234D01*
X122465273Y-84930215D01*
X122298139Y-84798222D01*
X122289552Y-84792517D01*
X122103117Y-84689599D01*
X122093705Y-84685369D01*
X121892959Y-84614280D01*
X121882988Y-84611646D01*
X121811837Y-84598972D01*
X121798540Y-84600432D01*
X121794000Y-84614989D01*
X121794000Y-87248517D01*
X121286000Y-87248517D01*
X121286000Y-86202115D01*
X121281525Y-86186876D01*
X121280135Y-86185671D01*
X121272452Y-86184000D01*
X120223225Y-86184000D01*
X120209694Y-86187973D01*
X120208257Y-86197966D01*
X119635000Y-86197966D01*
X119635000Y-85664183D01*
X120204389Y-85664183D01*
X120205912Y-85672607D01*
X120218292Y-85676000D01*
X121267885Y-85676000D01*
X121283124Y-85671525D01*
X121284329Y-85670135D01*
X121286000Y-85662452D01*
X121286000Y-84613102D01*
X121282082Y-84599758D01*
X121267806Y-84597771D01*
X121229324Y-84603660D01*
X121219288Y-84606051D01*
X121016868Y-84672212D01*
X121007359Y-84676209D01*
X120818463Y-84774542D01*
X120809738Y-84780036D01*
X120639433Y-84907905D01*
X120631726Y-84914748D01*
X120484590Y-85068717D01*
X120478104Y-85076727D01*
X120358098Y-85252649D01*
X120353000Y-85261623D01*
X120263338Y-85454783D01*
X120259775Y-85464470D01*
X120204389Y-85664183D01*
X119635000Y-85664183D01*
X119635000Y-73991000D01*
X119655002Y-73922879D01*
X119708658Y-73876386D01*
X119761000Y-73865000D01*
X184279000Y-73865000D01*
X184347121Y-73885002D01*
G37*
%TD.AperFunction*%
%TA.AperFunction,Conductor*%
G36*
X145575921Y-122036102D02*
G01*
X145595147Y-122052443D01*
X145595420Y-122052140D01*
X145600332Y-122056563D01*
X145604747Y-122061466D01*
X145759248Y-122173718D01*
X145765276Y-122176402D01*
X145765278Y-122176403D01*
X145882906Y-122228774D01*
X145933712Y-122251394D01*
X145940167Y-122252766D01*
X145940176Y-122252769D01*
X145999152Y-122265305D01*
X146061625Y-122299033D01*
X146095946Y-122361183D01*
X146092787Y-122427487D01*
X146046458Y-122570072D01*
X146045768Y-122576633D01*
X146045768Y-122576635D01*
X146036992Y-122660135D01*
X146026496Y-122760000D01*
X146027186Y-122766565D01*
X146043184Y-122918773D01*
X146046458Y-122949928D01*
X146105473Y-123131556D01*
X146108776Y-123137278D01*
X146108777Y-123137279D01*
X146116873Y-123151302D01*
X146200960Y-123296944D01*
X146205378Y-123301851D01*
X146205379Y-123301852D01*
X146324325Y-123433955D01*
X146328747Y-123438866D01*
X146483248Y-123551118D01*
X146489276Y-123553802D01*
X146489278Y-123553803D01*
X146651681Y-123626109D01*
X146657712Y-123628794D01*
X146751112Y-123648647D01*
X146838056Y-123667128D01*
X146838061Y-123667128D01*
X146844513Y-123668500D01*
X146898400Y-123668500D01*
X146966521Y-123688502D01*
X147013014Y-123742158D01*
X147024400Y-123794500D01*
X147024400Y-124171195D01*
X147004398Y-124239316D01*
X146950742Y-124285809D01*
X146880468Y-124295913D01*
X146847153Y-124286302D01*
X146710015Y-124225245D01*
X146695519Y-124218791D01*
X146695518Y-124218791D01*
X146689488Y-124216106D01*
X146596087Y-124196253D01*
X146509144Y-124177772D01*
X146509139Y-124177772D01*
X146502687Y-124176400D01*
X146311713Y-124176400D01*
X146305261Y-124177772D01*
X146305256Y-124177772D01*
X146218313Y-124196253D01*
X146124912Y-124216106D01*
X146118882Y-124218791D01*
X146118881Y-124218791D01*
X145956478Y-124291097D01*
X145956476Y-124291098D01*
X145950448Y-124293782D01*
X145795947Y-124406034D01*
X145668160Y-124547956D01*
X145664859Y-124553674D01*
X145578649Y-124702994D01*
X145572673Y-124713344D01*
X145513658Y-124894972D01*
X145512968Y-124901533D01*
X145512968Y-124901535D01*
X145496293Y-125060193D01*
X145469280Y-125125850D01*
X145460078Y-125136118D01*
X144131747Y-126464448D01*
X144123461Y-126471988D01*
X144116982Y-126476100D01*
X144111557Y-126481877D01*
X144070357Y-126525751D01*
X144067602Y-126528593D01*
X144047865Y-126548330D01*
X144045385Y-126551527D01*
X144037682Y-126560547D01*
X144007414Y-126592779D01*
X144003595Y-126599725D01*
X144003593Y-126599728D01*
X143997652Y-126610534D01*
X143986801Y-126627053D01*
X143974386Y-126643059D01*
X143971241Y-126650328D01*
X143971238Y-126650332D01*
X143956826Y-126683637D01*
X143951609Y-126694287D01*
X143930305Y-126733040D01*
X143928334Y-126740715D01*
X143928334Y-126740716D01*
X143925267Y-126752662D01*
X143918863Y-126771366D01*
X143910819Y-126789955D01*
X143909580Y-126797778D01*
X143909577Y-126797788D01*
X143903901Y-126833624D01*
X143901495Y-126845244D01*
X143897495Y-126860824D01*
X143890500Y-126888070D01*
X143890500Y-126908324D01*
X143888949Y-126928034D01*
X143885780Y-126948043D01*
X143886526Y-126955935D01*
X143889941Y-126992061D01*
X143890500Y-127003919D01*
X143890500Y-130254000D01*
X143870498Y-130322121D01*
X143816842Y-130368614D01*
X143764500Y-130380000D01*
X143027500Y-130380000D01*
X142959379Y-130359998D01*
X142912886Y-130306342D01*
X142901500Y-130254000D01*
X142901500Y-126921294D01*
X142921502Y-126853173D01*
X142938405Y-126832199D01*
X143925999Y-125844605D01*
X143988311Y-125810579D01*
X144015094Y-125807700D01*
X144070987Y-125807700D01*
X144077439Y-125806328D01*
X144077444Y-125806328D01*
X144164387Y-125787847D01*
X144257788Y-125767994D01*
X144263819Y-125765309D01*
X144426222Y-125693003D01*
X144426224Y-125693002D01*
X144432252Y-125690318D01*
X144458200Y-125671466D01*
X144487657Y-125650064D01*
X144586753Y-125578066D01*
X144671819Y-125483591D01*
X144710121Y-125441052D01*
X144710122Y-125441051D01*
X144714540Y-125436144D01*
X144810027Y-125270756D01*
X144869042Y-125089128D01*
X144877353Y-125010058D01*
X144888314Y-124905765D01*
X144889004Y-124899200D01*
X144880388Y-124817226D01*
X144869732Y-124715835D01*
X144869732Y-124715833D01*
X144869042Y-124709272D01*
X144810027Y-124527644D01*
X144714540Y-124362256D01*
X144603845Y-124239316D01*
X144591175Y-124225245D01*
X144591174Y-124225244D01*
X144586753Y-124220334D01*
X144447768Y-124119355D01*
X144437594Y-124111963D01*
X144437593Y-124111962D01*
X144432252Y-124108082D01*
X144426224Y-124105398D01*
X144426222Y-124105397D01*
X144263819Y-124033091D01*
X144263818Y-124033091D01*
X144257788Y-124030406D01*
X144251327Y-124029033D01*
X144251322Y-124029031D01*
X144150017Y-124007497D01*
X144087543Y-123973769D01*
X144053222Y-123911619D01*
X144050904Y-123871081D01*
X144059114Y-123792965D01*
X144059804Y-123786400D01*
X144048990Y-123683508D01*
X144040532Y-123603035D01*
X144040532Y-123603033D01*
X144039842Y-123596472D01*
X143980827Y-123414844D01*
X143959562Y-123378011D01*
X143943614Y-123350390D01*
X143885340Y-123249456D01*
X143850640Y-123210917D01*
X143761975Y-123112445D01*
X143761974Y-123112444D01*
X143757553Y-123107534D01*
X143603052Y-122995282D01*
X143597024Y-122992598D01*
X143597022Y-122992597D01*
X143434619Y-122920291D01*
X143434618Y-122920291D01*
X143428588Y-122917606D01*
X143335404Y-122897799D01*
X143285132Y-122887113D01*
X143222658Y-122853384D01*
X143188337Y-122791235D01*
X143193065Y-122720396D01*
X143222234Y-122674771D01*
X143844000Y-122053005D01*
X143906312Y-122018979D01*
X143933095Y-122016100D01*
X145507800Y-122016100D01*
X145575921Y-122036102D01*
G37*
%TD.AperFunction*%
%TD*%
M02*
