%TF.GenerationSoftware,KiCad,Pcbnew,6.0.2+dfsg-1*%
%TF.CreationDate,2023-01-23T22:47:46+09:00*%
%TF.ProjectId,EL-210-MOD,454c2d32-3130-42d4-9d4f-442e6b696361,rev?*%
%TF.SameCoordinates,Original*%
%TF.FileFunction,Soldermask,Bot*%
%TF.FilePolarity,Negative*%
%FSLAX46Y46*%
G04 Gerber Fmt 4.6, Leading zero omitted, Abs format (unit mm)*
G04 Created by KiCad (PCBNEW 6.0.2+dfsg-1) date 2023-01-23 22:47:46*
%MOMM*%
%LPD*%
G01*
G04 APERTURE LIST*
G04 Aperture macros list*
%AMRoundRect*
0 Rectangle with rounded corners*
0 $1 Rounding radius*
0 $2 $3 $4 $5 $6 $7 $8 $9 X,Y pos of 4 corners*
0 Add a 4 corners polygon primitive as box body*
4,1,4,$2,$3,$4,$5,$6,$7,$8,$9,$2,$3,0*
0 Add four circle primitives for the rounded corners*
1,1,$1+$1,$2,$3*
1,1,$1+$1,$4,$5*
1,1,$1+$1,$6,$7*
1,1,$1+$1,$8,$9*
0 Add four rect primitives between the rounded corners*
20,1,$1+$1,$2,$3,$4,$5,0*
20,1,$1+$1,$4,$5,$6,$7,0*
20,1,$1+$1,$6,$7,$8,$9,0*
20,1,$1+$1,$8,$9,$2,$3,0*%
G04 Aperture macros list end*
%ADD10R,0.500000X6.000000*%
%ADD11R,1.600000X1.600000*%
%ADD12C,1.600000*%
%ADD13C,2.800000*%
%ADD14C,2.000000*%
%ADD15C,1.900000*%
%ADD16R,1.700000X1.700000*%
%ADD17O,1.700000X1.700000*%
%ADD18R,1.400000X0.300000*%
%ADD19RoundRect,0.237500X-0.237500X0.250000X-0.237500X-0.250000X0.237500X-0.250000X0.237500X0.250000X0*%
%ADD20RoundRect,0.237500X0.237500X-0.250000X0.237500X0.250000X-0.237500X0.250000X-0.237500X-0.250000X0*%
G04 APERTURE END LIST*
D10*
%TO.C,P1*%
X130000000Y-134500000D03*
X135500000Y-134500000D03*
X137756000Y-134500000D03*
X140012000Y-134500000D03*
X142268000Y-134500000D03*
X144524000Y-134500000D03*
X146780000Y-134500000D03*
X149036000Y-134500000D03*
X151292000Y-134500000D03*
X153548000Y-134500000D03*
X155804000Y-134500000D03*
X162200000Y-134500000D03*
X164300000Y-134500000D03*
X166580000Y-134500000D03*
X168860000Y-134500000D03*
X174560000Y-134500000D03*
%TD*%
D11*
%TO.C,U1*%
X128000000Y-85500000D03*
D12*
X130540000Y-85500000D03*
X133080000Y-85500000D03*
X135620000Y-85500000D03*
X138160000Y-85500000D03*
X140700000Y-85500000D03*
X143240000Y-85500000D03*
X145780000Y-85500000D03*
X148320000Y-85500000D03*
X150860000Y-85500000D03*
X153400000Y-85500000D03*
X155940000Y-85500000D03*
X158480000Y-85500000D03*
X161020000Y-85500000D03*
X163560000Y-85500000D03*
X166100000Y-85500000D03*
X168640000Y-85500000D03*
X171180000Y-85500000D03*
X173720000Y-85500000D03*
%TD*%
D13*
%TO.C,H6*%
X171500000Y-134200000D03*
%TD*%
%TO.C,H5*%
X158500000Y-134200000D03*
%TD*%
D14*
%TO.C,H2*%
X171500000Y-110000000D03*
%TD*%
%TO.C,H1*%
X132500000Y-97000000D03*
%TD*%
D15*
%TO.C,H3*%
X127500000Y-134200000D03*
%TD*%
%TO.C,H7*%
X176500000Y-134200000D03*
%TD*%
D13*
%TO.C,H4*%
X132500000Y-134200000D03*
%TD*%
D16*
%TO.C,J2*%
X124080000Y-85930000D03*
D17*
X121540000Y-85930000D03*
%TD*%
D16*
%TO.C,J1*%
X178055000Y-113235000D03*
D17*
X175515000Y-113235000D03*
X172975000Y-113235000D03*
X170435000Y-113235000D03*
X167895000Y-113235000D03*
%TD*%
D18*
%TO.C,U5*%
X154220000Y-102075000D03*
X154220000Y-102575000D03*
X154220000Y-103075000D03*
X154220000Y-103575000D03*
X154220000Y-104075000D03*
X149820000Y-104075000D03*
X149820000Y-103575000D03*
X149820000Y-103075000D03*
X149820000Y-102575000D03*
X149820000Y-102075000D03*
%TD*%
D19*
%TO.C,R2*%
X153290000Y-97082500D03*
X153290000Y-98907500D03*
%TD*%
D20*
%TO.C,R3*%
X150115000Y-98907500D03*
X150115000Y-97082500D03*
%TD*%
M02*
