M48
; DRILL file {KiCad 6.0.2+dfsg-1} date 2023年01月11日 22時45分30秒
; FORMAT={-:-/ absolute / inch / decimal}
; #@! TF.CreationDate,2023-01-11T22:45:30+09:00
; #@! TF.GenerationSoftware,Kicad,Pcbnew,6.0.2+dfsg-1
; #@! TF.FileFunction,Plated,1,2,PTH
FMAT,2
INCH
; #@! TA.AperFunction,Plated,PTH,ViaDrill
T1C0.0157
; #@! TA.AperFunction,Plated,PTH,ComponentDrill
T2C0.0394
; #@! TA.AperFunction,Plated,PTH,ComponentDrill
T3C0.0472
%
G90
G05
T1
X4.8697Y-3.9519
X4.8993Y-3.8515
X5.213Y-3.6838
X5.3992Y-4.009
X5.482Y-3.8142
X5.4841Y-4.0285
X5.51Y-4.4581
X5.535Y-5.0331
X5.66Y-4.3081
X5.675Y-4.8081
X5.6827Y-5.0646
X5.7551Y-4.7646
X5.76Y-3.7831
X5.76Y-4.6925
X5.7641Y-4.9591
X5.785Y-4.1831
X5.8083Y-4.8668
X5.81Y-3.9581
X5.86Y-3.7831
X5.9255Y-3.9881
X5.946Y-4.7918
X5.9708Y-4.6145
X5.9746Y-4.9284
X5.9888Y-4.7295
X6.0155Y-3.9379
X6.0403Y-4.5746
X6.0542Y-4.7923
X6.085Y-3.7831
X6.0881Y-4.9305
X6.0949Y-5.0174
X6.1029Y-4.6737
X6.1426Y-4.0389
X6.1697Y-5.0017
X6.21Y-3.7831
X6.21Y-3.9581
X6.21Y-4.5081
X6.2462Y-4.0133
X6.2462Y-4.0998
X6.26Y-4.6081
X6.285Y-4.5081
X6.2987Y-4.7786
X6.2995Y-4.7183
X6.3919Y-4.2711
X6.435Y-3.9581
X6.7186Y-3.8272
X6.76Y-4.4081
X6.7681Y-4.609
X6.784Y-4.0567
X6.876Y-4.855
X7.0934Y-3.7121
T2
X4.785Y-3.3831
X4.885Y-3.3831
X6.61Y-4.4581
X6.71Y-4.4581
X6.81Y-4.4581
X6.91Y-4.4581
X7.01Y-4.4581
T3
X5.0394Y-3.3661
X5.1394Y-3.3661
X5.2394Y-3.3661
X5.3394Y-3.3661
X5.4394Y-3.3661
X5.5394Y-3.3661
X5.6394Y-3.3661
X5.7394Y-3.3661
X5.8394Y-3.3661
X5.9394Y-3.3661
X6.0394Y-3.3661
X6.1394Y-3.3661
X6.2394Y-3.3661
X6.3394Y-3.3661
X6.4394Y-3.3661
X6.5394Y-3.3661
X6.6394Y-3.3661
X6.7394Y-3.3661
X6.8394Y-3.3661
T0
M30
