M48
; DRILL file {KiCad 6.0.2+dfsg-1} date 2023年02月12日 21時56分41秒
; FORMAT={-:-/ absolute / inch / decimal}
; #@! TF.CreationDate,2023-02-12T21:56:41+09:00
; #@! TF.GenerationSoftware,Kicad,Pcbnew,6.0.2+dfsg-1
; #@! TF.FileFunction,Plated,1,2,PTH
FMAT,2
INCH
; #@! TA.AperFunction,Plated,PTH,ViaDrill
T1C0.0157
; #@! TA.AperFunction,Plated,PTH,ComponentDrill
T2C0.0394
; #@! TA.AperFunction,Plated,PTH,ComponentDrill
T3C0.0472
%
G90
G05
T1
X4.8697Y-3.9519
X4.8993Y-3.8515
X5.2504Y-4.0098
X5.3556Y-3.7159
X5.3992Y-4.009
X5.4841Y-4.0367
X5.56Y-4.3331
X5.5774Y-3.8517
X5.6307Y-4.7207
X5.6357Y-4.8735
X5.6461Y-4.8297
X5.6683Y-4.9173
X5.735Y-4.0081
X5.7565Y-4.7788
X5.7641Y-4.9246
X5.785Y-4.8331
X5.8133Y-4.9548
X5.8231Y-5.2105
X5.9047Y-4.7323
X5.9299Y-3.9702
X5.9494Y-4.7888
X5.967Y-4.6107
X5.9725Y-3.8938
X5.9842Y-4.7118
X6.0008Y-5.2105
X6.0019Y-4.775
X6.0026Y-4.9134
X6.0542Y-4.7923
X6.0773Y-4.9134
X6.106Y-4.6324
X6.135Y-4.1581
X6.1567Y-3.9994
X6.1703Y-4.8573
X6.1766Y-5.0595
X6.1968Y-4.8959
X6.21Y-4.0831
X6.2909Y-4.0025
X6.2909Y-4.6456
X6.2909Y-4.5495
X6.3317Y-4.1535
X6.3406Y-4.6491
X6.3667Y-4.7218
X6.4104Y-3.941
X6.435Y-4.5973
X6.5487Y-4.4948
X6.5561Y-4.3407
X6.605Y-4.6179
X6.6192Y-3.9803
X6.635Y-4.0581
X6.7186Y-3.8272
X6.8856Y-4.8641
X7.0934Y-3.7006
T2
X4.785Y-3.3831
X4.885Y-3.3831
X6.61Y-4.4581
X6.71Y-4.4581
X6.81Y-4.4581
X6.91Y-4.4581
X7.01Y-4.4581
T3
X5.0394Y-3.3661
X5.1394Y-3.3661
X5.2394Y-3.3661
X5.3394Y-3.3661
X5.4394Y-3.3661
X5.5394Y-3.3661
X5.6394Y-3.3661
X5.7394Y-3.3661
X5.8394Y-3.3661
X5.9394Y-3.3661
X6.0394Y-3.3661
X6.1394Y-3.3661
X6.2394Y-3.3661
X6.3394Y-3.3661
X6.4394Y-3.3661
X6.5394Y-3.3661
X6.6394Y-3.3661
X6.7394Y-3.3661
X6.8394Y-3.3661
T0
M30
