%TF.GenerationSoftware,KiCad,Pcbnew,6.0.2+dfsg-1*%
%TF.CreationDate,2023-01-11T22:45:24+09:00*%
%TF.ProjectId,EL-210-MOD,454c2d32-3130-42d4-9d4f-442e6b696361,rev?*%
%TF.SameCoordinates,Original*%
%TF.FileFunction,Legend,Top*%
%TF.FilePolarity,Positive*%
%FSLAX46Y46*%
G04 Gerber Fmt 4.6, Leading zero omitted, Abs format (unit mm)*
G04 Created by KiCad (PCBNEW 6.0.2+dfsg-1) date 2023-01-11 22:45:24*
%MOMM*%
%LPD*%
G01*
G04 APERTURE LIST*
%ADD10C,0.300000*%
%ADD11C,0.150000*%
%ADD12C,0.120000*%
G04 APERTURE END LIST*
D10*
X120870000Y-125192857D02*
X120370000Y-125192857D01*
X120370000Y-125978571D02*
X120370000Y-124478571D01*
X121084285Y-124478571D01*
X122512857Y-125978571D02*
X122012857Y-125264285D01*
X121655714Y-125978571D02*
X121655714Y-124478571D01*
X122227142Y-124478571D01*
X122370000Y-124550000D01*
X122441428Y-124621428D01*
X122512857Y-124764285D01*
X122512857Y-124978571D01*
X122441428Y-125121428D01*
X122370000Y-125192857D01*
X122227142Y-125264285D01*
X121655714Y-125264285D01*
X123441428Y-124478571D02*
X123727142Y-124478571D01*
X123870000Y-124550000D01*
X124012857Y-124692857D01*
X124084285Y-124978571D01*
X124084285Y-125478571D01*
X124012857Y-125764285D01*
X123870000Y-125907142D01*
X123727142Y-125978571D01*
X123441428Y-125978571D01*
X123298571Y-125907142D01*
X123155714Y-125764285D01*
X123084285Y-125478571D01*
X123084285Y-124978571D01*
X123155714Y-124692857D01*
X123298571Y-124550000D01*
X123441428Y-124478571D01*
X124727142Y-125978571D02*
X124727142Y-124478571D01*
X125584285Y-125978571D01*
X125584285Y-124478571D01*
X126084285Y-124478571D02*
X126941428Y-124478571D01*
X126512857Y-125978571D02*
X126512857Y-124478571D01*
X128512857Y-125907142D02*
X128727142Y-125978571D01*
X129084285Y-125978571D01*
X129227142Y-125907142D01*
X129298571Y-125835714D01*
X129370000Y-125692857D01*
X129370000Y-125550000D01*
X129298571Y-125407142D01*
X129227142Y-125335714D01*
X129084285Y-125264285D01*
X128798571Y-125192857D01*
X128655714Y-125121428D01*
X128584285Y-125050000D01*
X128512857Y-124907142D01*
X128512857Y-124764285D01*
X128584285Y-124621428D01*
X128655714Y-124550000D01*
X128798571Y-124478571D01*
X129155714Y-124478571D01*
X129370000Y-124550000D01*
X130012857Y-125978571D02*
X130012857Y-124478571D01*
X130727142Y-125978571D02*
X130727142Y-124478571D01*
X131084285Y-124478571D01*
X131298571Y-124550000D01*
X131441428Y-124692857D01*
X131512857Y-124835714D01*
X131584285Y-125121428D01*
X131584285Y-125335714D01*
X131512857Y-125621428D01*
X131441428Y-125764285D01*
X131298571Y-125907142D01*
X131084285Y-125978571D01*
X130727142Y-125978571D01*
X132227142Y-125192857D02*
X132727142Y-125192857D01*
X132941428Y-125978571D02*
X132227142Y-125978571D01*
X132227142Y-124478571D01*
X132941428Y-124478571D01*
D11*
X178437371Y-128917264D02*
X179437371Y-128583931D01*
X178437371Y-128250598D01*
X179389752Y-127536312D02*
X179437371Y-127631550D01*
X179437371Y-127822026D01*
X179389752Y-127917264D01*
X179294514Y-127964883D01*
X178913562Y-127964883D01*
X178818324Y-127917264D01*
X178770705Y-127822026D01*
X178770705Y-127631550D01*
X178818324Y-127536312D01*
X178913562Y-127488693D01*
X179008800Y-127488693D01*
X179104038Y-127964883D01*
X179437371Y-127060122D02*
X178770705Y-127060122D01*
X178961181Y-127060122D02*
X178865943Y-127012503D01*
X178818324Y-126964883D01*
X178770705Y-126869645D01*
X178770705Y-126774407D01*
X179437371Y-125155360D02*
X179437371Y-125726788D01*
X179437371Y-125441074D02*
X178437371Y-125441074D01*
X178580229Y-125536312D01*
X178675467Y-125631550D01*
X178723086Y-125726788D01*
X179342133Y-124726788D02*
X179389752Y-124679169D01*
X179437371Y-124726788D01*
X179389752Y-124774407D01*
X179342133Y-124726788D01*
X179437371Y-124726788D01*
X178437371Y-124060122D02*
X178437371Y-123964883D01*
X178484991Y-123869645D01*
X178532610Y-123822026D01*
X178627848Y-123774407D01*
X178818324Y-123726788D01*
X179056419Y-123726788D01*
X179246895Y-123774407D01*
X179342133Y-123822026D01*
X179389752Y-123869645D01*
X179437371Y-123964883D01*
X179437371Y-124060122D01*
X179389752Y-124155360D01*
X179342133Y-124202979D01*
X179246895Y-124250598D01*
X179056419Y-124298217D01*
X178818324Y-124298217D01*
X178627848Y-124250598D01*
X178532610Y-124202979D01*
X178484991Y-124155360D01*
X178437371Y-124060122D01*
X179342133Y-123298217D02*
X179389752Y-123250598D01*
X179437371Y-123298217D01*
X179389752Y-123345836D01*
X179342133Y-123298217D01*
X179437371Y-123298217D01*
X179437371Y-122298217D02*
X179437371Y-122869645D01*
X179437371Y-122583931D02*
X178437371Y-122583931D01*
X178580229Y-122679169D01*
X178675467Y-122774407D01*
X178723086Y-122869645D01*
X181428324Y-128488693D02*
X181380705Y-128536312D01*
X181237848Y-128631550D01*
X181142610Y-128679169D01*
X180999752Y-128726788D01*
X180761657Y-128774407D01*
X180571181Y-128774407D01*
X180333086Y-128726788D01*
X180190229Y-128679169D01*
X180094991Y-128631550D01*
X179952133Y-128536312D01*
X179904514Y-128488693D01*
X180952133Y-127536312D02*
X180999752Y-127583931D01*
X181047371Y-127726788D01*
X181047371Y-127822026D01*
X180999752Y-127964883D01*
X180904514Y-128060122D01*
X180809276Y-128107741D01*
X180618800Y-128155360D01*
X180475943Y-128155360D01*
X180285467Y-128107741D01*
X180190229Y-128060122D01*
X180094991Y-127964883D01*
X180047371Y-127822026D01*
X180047371Y-127726788D01*
X180094991Y-127583931D01*
X180142610Y-127536312D01*
X181428324Y-127202979D02*
X181380705Y-127155360D01*
X181237848Y-127060122D01*
X181142610Y-127012503D01*
X180999752Y-126964883D01*
X180761657Y-126917264D01*
X180571181Y-126917264D01*
X180333086Y-126964883D01*
X180190229Y-127012503D01*
X180094991Y-127060122D01*
X179952133Y-127155360D01*
X179904514Y-127202979D01*
X180999752Y-125726788D02*
X181047371Y-125583931D01*
X181047371Y-125345836D01*
X180999752Y-125250598D01*
X180952133Y-125202979D01*
X180856895Y-125155360D01*
X180761657Y-125155360D01*
X180666419Y-125202979D01*
X180618800Y-125250598D01*
X180571181Y-125345836D01*
X180523562Y-125536312D01*
X180475943Y-125631550D01*
X180428324Y-125679169D01*
X180333086Y-125726788D01*
X180237848Y-125726788D01*
X180142610Y-125679169D01*
X180094991Y-125631550D01*
X180047371Y-125536312D01*
X180047371Y-125298217D01*
X180094991Y-125155360D01*
X180999752Y-124345836D02*
X181047371Y-124441074D01*
X181047371Y-124631550D01*
X180999752Y-124726788D01*
X180904514Y-124774407D01*
X180523562Y-124774407D01*
X180428324Y-124726788D01*
X180380705Y-124631550D01*
X180380705Y-124441074D01*
X180428324Y-124345836D01*
X180523562Y-124298217D01*
X180618800Y-124298217D01*
X180714038Y-124774407D01*
X181047371Y-123869645D02*
X180380705Y-123869645D01*
X180047371Y-123869645D02*
X180094991Y-123917264D01*
X180142610Y-123869645D01*
X180094991Y-123822026D01*
X180047371Y-123869645D01*
X180142610Y-123869645D01*
X181047371Y-123393455D02*
X180380705Y-123393455D01*
X180047371Y-123393455D02*
X180094991Y-123441074D01*
X180142610Y-123393455D01*
X180094991Y-123345836D01*
X180047371Y-123393455D01*
X180142610Y-123393455D01*
X180999752Y-122488693D02*
X181047371Y-122583931D01*
X181047371Y-122774407D01*
X180999752Y-122869645D01*
X180952133Y-122917264D01*
X180856895Y-122964883D01*
X180571181Y-122964883D01*
X180475943Y-122917264D01*
X180428324Y-122869645D01*
X180380705Y-122774407D01*
X180380705Y-122583931D01*
X180428324Y-122488693D01*
X181047371Y-122060122D02*
X180047371Y-122060122D01*
X181047371Y-121631550D02*
X180523562Y-121631550D01*
X180428324Y-121679169D01*
X180380705Y-121774407D01*
X180380705Y-121917264D01*
X180428324Y-122012503D01*
X180475943Y-122060122D01*
X181047371Y-121155360D02*
X180380705Y-121155360D01*
X180047371Y-121155360D02*
X180094991Y-121202979D01*
X180142610Y-121155360D01*
X180094991Y-121107741D01*
X180047371Y-121155360D01*
X180142610Y-121155360D01*
X181047371Y-119917264D02*
X180047371Y-119917264D01*
X180523562Y-119917264D02*
X180523562Y-119345836D01*
X181047371Y-119345836D02*
X180047371Y-119345836D01*
X181047371Y-118726788D02*
X180999752Y-118822026D01*
X180952133Y-118869645D01*
X180856895Y-118917264D01*
X180571181Y-118917264D01*
X180475943Y-118869645D01*
X180428324Y-118822026D01*
X180380705Y-118726788D01*
X180380705Y-118583931D01*
X180428324Y-118488693D01*
X180475943Y-118441074D01*
X180571181Y-118393455D01*
X180856895Y-118393455D01*
X180952133Y-118441074D01*
X180999752Y-118488693D01*
X181047371Y-118583931D01*
X181047371Y-118726788D01*
X181047371Y-117964883D02*
X180380705Y-117964883D01*
X180571181Y-117964883D02*
X180475943Y-117917264D01*
X180428324Y-117869645D01*
X180380705Y-117774407D01*
X180380705Y-117679169D01*
X181047371Y-117345836D02*
X180380705Y-117345836D01*
X180047371Y-117345836D02*
X180094991Y-117393455D01*
X180142610Y-117345836D01*
X180094991Y-117298217D01*
X180047371Y-117345836D01*
X180142610Y-117345836D01*
X180999752Y-116488693D02*
X181047371Y-116583931D01*
X181047371Y-116774407D01*
X180999752Y-116869645D01*
X180904514Y-116917264D01*
X180523562Y-116917264D01*
X180428324Y-116869645D01*
X180380705Y-116774407D01*
X180380705Y-116583931D01*
X180428324Y-116488693D01*
X180523562Y-116441074D01*
X180618800Y-116441074D01*
X180714038Y-116917264D01*
X180142610Y-115298217D02*
X180094991Y-115250598D01*
X180047371Y-115155360D01*
X180047371Y-114917264D01*
X180094991Y-114822026D01*
X180142610Y-114774407D01*
X180237848Y-114726788D01*
X180333086Y-114726788D01*
X180475943Y-114774407D01*
X181047371Y-115345836D01*
X181047371Y-114726788D01*
X180047371Y-114107741D02*
X180047371Y-114012503D01*
X180094991Y-113917264D01*
X180142610Y-113869645D01*
X180237848Y-113822026D01*
X180428324Y-113774407D01*
X180666419Y-113774407D01*
X180856895Y-113822026D01*
X180952133Y-113869645D01*
X180999752Y-113917264D01*
X181047371Y-114012503D01*
X181047371Y-114107741D01*
X180999752Y-114202979D01*
X180952133Y-114250598D01*
X180856895Y-114298217D01*
X180666419Y-114345836D01*
X180428324Y-114345836D01*
X180237848Y-114298217D01*
X180142610Y-114250598D01*
X180094991Y-114202979D01*
X180047371Y-114107741D01*
X180142610Y-113393455D02*
X180094991Y-113345836D01*
X180047371Y-113250598D01*
X180047371Y-113012503D01*
X180094991Y-112917264D01*
X180142610Y-112869645D01*
X180237848Y-112822026D01*
X180333086Y-112822026D01*
X180475943Y-112869645D01*
X181047371Y-113441074D01*
X181047371Y-112822026D01*
X180142610Y-112441074D02*
X180094991Y-112393455D01*
X180047371Y-112298217D01*
X180047371Y-112060122D01*
X180094991Y-111964883D01*
X180142610Y-111917264D01*
X180237848Y-111869645D01*
X180333086Y-111869645D01*
X180475943Y-111917264D01*
X181047371Y-112488693D01*
X181047371Y-111869645D01*
X180999752Y-111393455D02*
X181047371Y-111393455D01*
X181142610Y-111441074D01*
X181190229Y-111488693D01*
X180142610Y-111012503D02*
X180094991Y-110964883D01*
X180047371Y-110869645D01*
X180047371Y-110631550D01*
X180094991Y-110536312D01*
X180142610Y-110488693D01*
X180237848Y-110441074D01*
X180333086Y-110441074D01*
X180475943Y-110488693D01*
X181047371Y-111060122D01*
X181047371Y-110441074D01*
X180047371Y-109822026D02*
X180047371Y-109726788D01*
X180094991Y-109631550D01*
X180142610Y-109583931D01*
X180237848Y-109536312D01*
X180428324Y-109488693D01*
X180666419Y-109488693D01*
X180856895Y-109536312D01*
X180952133Y-109583931D01*
X180999752Y-109631550D01*
X181047371Y-109726788D01*
X181047371Y-109822026D01*
X180999752Y-109917264D01*
X180952133Y-109964883D01*
X180856895Y-110012503D01*
X180666419Y-110060122D01*
X180428324Y-110060122D01*
X180237848Y-110012503D01*
X180142610Y-109964883D01*
X180094991Y-109917264D01*
X180047371Y-109822026D01*
X180142610Y-109107741D02*
X180094991Y-109060122D01*
X180047371Y-108964883D01*
X180047371Y-108726788D01*
X180094991Y-108631550D01*
X180142610Y-108583931D01*
X180237848Y-108536312D01*
X180333086Y-108536312D01*
X180475943Y-108583931D01*
X181047371Y-109155360D01*
X181047371Y-108536312D01*
X180047371Y-108202979D02*
X180047371Y-107583931D01*
X180428324Y-107917264D01*
X180428324Y-107774407D01*
X180475943Y-107679169D01*
X180523562Y-107631550D01*
X180618800Y-107583931D01*
X180856895Y-107583931D01*
X180952133Y-107631550D01*
X180999752Y-107679169D01*
X181047371Y-107774407D01*
X181047371Y-108060122D01*
X180999752Y-108155360D01*
X180952133Y-108202979D01*
X182657371Y-128774407D02*
X181657371Y-128774407D01*
X182657371Y-128345836D02*
X182133562Y-128345836D01*
X182038324Y-128393455D01*
X181990705Y-128488693D01*
X181990705Y-128631550D01*
X182038324Y-128726788D01*
X182085943Y-128774407D01*
X181990705Y-128012503D02*
X181990705Y-127631550D01*
X181657371Y-127869645D02*
X182514514Y-127869645D01*
X182609752Y-127822026D01*
X182657371Y-127726788D01*
X182657371Y-127631550D01*
X181990705Y-127441074D02*
X181990705Y-127060122D01*
X181657371Y-127298217D02*
X182514514Y-127298217D01*
X182609752Y-127250598D01*
X182657371Y-127155360D01*
X182657371Y-127060122D01*
X181990705Y-126726788D02*
X182990705Y-126726788D01*
X182038324Y-126726788D02*
X181990705Y-126631550D01*
X181990705Y-126441074D01*
X182038324Y-126345836D01*
X182085943Y-126298217D01*
X182181181Y-126250598D01*
X182466895Y-126250598D01*
X182562133Y-126298217D01*
X182609752Y-126345836D01*
X182657371Y-126441074D01*
X182657371Y-126631550D01*
X182609752Y-126726788D01*
X182609752Y-125869645D02*
X182657371Y-125774407D01*
X182657371Y-125583931D01*
X182609752Y-125488693D01*
X182514514Y-125441074D01*
X182466895Y-125441074D01*
X182371657Y-125488693D01*
X182324038Y-125583931D01*
X182324038Y-125726788D01*
X182276419Y-125822026D01*
X182181181Y-125869645D01*
X182133562Y-125869645D01*
X182038324Y-125822026D01*
X181990705Y-125726788D01*
X181990705Y-125583931D01*
X182038324Y-125488693D01*
X182562133Y-125012503D02*
X182609752Y-124964883D01*
X182657371Y-125012503D01*
X182609752Y-125060122D01*
X182562133Y-125012503D01*
X182657371Y-125012503D01*
X182038324Y-125012503D02*
X182085943Y-124964883D01*
X182133562Y-125012503D01*
X182085943Y-125060122D01*
X182038324Y-125012503D01*
X182133562Y-125012503D01*
X181609752Y-123822026D02*
X182895467Y-124679169D01*
X181609752Y-122774407D02*
X182895467Y-123631550D01*
X181990705Y-122012503D02*
X182800229Y-122012503D01*
X182895467Y-122060122D01*
X182943086Y-122107741D01*
X182990705Y-122202979D01*
X182990705Y-122345836D01*
X182943086Y-122441074D01*
X182609752Y-122012503D02*
X182657371Y-122107741D01*
X182657371Y-122298217D01*
X182609752Y-122393455D01*
X182562133Y-122441074D01*
X182466895Y-122488693D01*
X182181181Y-122488693D01*
X182085943Y-122441074D01*
X182038324Y-122393455D01*
X181990705Y-122298217D01*
X181990705Y-122107741D01*
X182038324Y-122012503D01*
X182657371Y-121536312D02*
X181990705Y-121536312D01*
X181657371Y-121536312D02*
X181704991Y-121583931D01*
X181752610Y-121536312D01*
X181704991Y-121488693D01*
X181657371Y-121536312D01*
X181752610Y-121536312D01*
X181990705Y-121202979D02*
X181990705Y-120822026D01*
X181657371Y-121060122D02*
X182514514Y-121060122D01*
X182609752Y-121012503D01*
X182657371Y-120917264D01*
X182657371Y-120822026D01*
X182657371Y-120488693D02*
X181657371Y-120488693D01*
X182657371Y-120060122D02*
X182133562Y-120060122D01*
X182038324Y-120107741D01*
X181990705Y-120202979D01*
X181990705Y-120345836D01*
X182038324Y-120441074D01*
X182085943Y-120488693D01*
X181990705Y-119155360D02*
X182657371Y-119155360D01*
X181990705Y-119583931D02*
X182514514Y-119583931D01*
X182609752Y-119536312D01*
X182657371Y-119441074D01*
X182657371Y-119298217D01*
X182609752Y-119202979D01*
X182562133Y-119155360D01*
X182657371Y-118679169D02*
X181657371Y-118679169D01*
X182038324Y-118679169D02*
X181990705Y-118583931D01*
X181990705Y-118393455D01*
X182038324Y-118298217D01*
X182085943Y-118250598D01*
X182181181Y-118202979D01*
X182466895Y-118202979D01*
X182562133Y-118250598D01*
X182609752Y-118298217D01*
X182657371Y-118393455D01*
X182657371Y-118583931D01*
X182609752Y-118679169D01*
X182562133Y-117774407D02*
X182609752Y-117726788D01*
X182657371Y-117774407D01*
X182609752Y-117822026D01*
X182562133Y-117774407D01*
X182657371Y-117774407D01*
X182609752Y-116869645D02*
X182657371Y-116964883D01*
X182657371Y-117155360D01*
X182609752Y-117250598D01*
X182562133Y-117298217D01*
X182466895Y-117345836D01*
X182181181Y-117345836D01*
X182085943Y-117298217D01*
X182038324Y-117250598D01*
X181990705Y-117155360D01*
X181990705Y-116964883D01*
X182038324Y-116869645D01*
X182657371Y-116298217D02*
X182609752Y-116393455D01*
X182562133Y-116441074D01*
X182466895Y-116488693D01*
X182181181Y-116488693D01*
X182085943Y-116441074D01*
X182038324Y-116393455D01*
X181990705Y-116298217D01*
X181990705Y-116155360D01*
X182038324Y-116060122D01*
X182085943Y-116012503D01*
X182181181Y-115964883D01*
X182466895Y-115964883D01*
X182562133Y-116012503D01*
X182609752Y-116060122D01*
X182657371Y-116155360D01*
X182657371Y-116298217D01*
X182657371Y-115536312D02*
X181990705Y-115536312D01*
X182085943Y-115536312D02*
X182038324Y-115488693D01*
X181990705Y-115393455D01*
X181990705Y-115250598D01*
X182038324Y-115155360D01*
X182133562Y-115107741D01*
X182657371Y-115107741D01*
X182133562Y-115107741D02*
X182038324Y-115060122D01*
X181990705Y-114964883D01*
X181990705Y-114822026D01*
X182038324Y-114726788D01*
X182133562Y-114679169D01*
X182657371Y-114679169D01*
X181609752Y-113488693D02*
X182895467Y-114345836D01*
X182609752Y-113202979D02*
X182657371Y-113107741D01*
X182657371Y-112917264D01*
X182609752Y-112822026D01*
X182514514Y-112774407D01*
X182466895Y-112774407D01*
X182371657Y-112822026D01*
X182324038Y-112917264D01*
X182324038Y-113060122D01*
X182276419Y-113155360D01*
X182181181Y-113202979D01*
X182133562Y-113202979D01*
X182038324Y-113155360D01*
X181990705Y-113060122D01*
X181990705Y-112917264D01*
X182038324Y-112822026D01*
X181990705Y-111917264D02*
X182657371Y-111917264D01*
X181990705Y-112345836D02*
X182514514Y-112345836D01*
X182609752Y-112298217D01*
X182657371Y-112202979D01*
X182657371Y-112060122D01*
X182609752Y-111964883D01*
X182562133Y-111917264D01*
X182657371Y-111441074D02*
X181990705Y-111441074D01*
X181657371Y-111441074D02*
X181704991Y-111488693D01*
X181752610Y-111441074D01*
X181704991Y-111393455D01*
X181657371Y-111441074D01*
X181752610Y-111441074D01*
X182657371Y-110964883D02*
X181657371Y-110964883D01*
X182276419Y-110869645D02*
X182657371Y-110583931D01*
X181990705Y-110583931D02*
X182371657Y-110964883D01*
X182657371Y-109726788D02*
X182133562Y-109726788D01*
X182038324Y-109774407D01*
X181990705Y-109869645D01*
X181990705Y-110060122D01*
X182038324Y-110155360D01*
X182609752Y-109726788D02*
X182657371Y-109822026D01*
X182657371Y-110060122D01*
X182609752Y-110155360D01*
X182514514Y-110202979D01*
X182419276Y-110202979D01*
X182324038Y-110155360D01*
X182276419Y-110060122D01*
X182276419Y-109822026D01*
X182228800Y-109726788D01*
X181990705Y-109250598D02*
X182657371Y-109250598D01*
X182085943Y-109250598D02*
X182038324Y-109202979D01*
X181990705Y-109107741D01*
X181990705Y-108964883D01*
X182038324Y-108869645D01*
X182133562Y-108822026D01*
X182657371Y-108822026D01*
X181990705Y-107917264D02*
X182657371Y-107917264D01*
X181609752Y-108155360D02*
X182324038Y-108393455D01*
X182324038Y-107774407D01*
X181990705Y-106964883D02*
X182800229Y-106964883D01*
X182895467Y-107012503D01*
X182943086Y-107060122D01*
X182990705Y-107155360D01*
X182990705Y-107298217D01*
X182943086Y-107393455D01*
X182609752Y-106964883D02*
X182657371Y-107060122D01*
X182657371Y-107250598D01*
X182609752Y-107345836D01*
X182562133Y-107393455D01*
X182466895Y-107441074D01*
X182181181Y-107441074D01*
X182085943Y-107393455D01*
X182038324Y-107345836D01*
X181990705Y-107250598D01*
X181990705Y-107060122D01*
X182038324Y-106964883D01*
X182657371Y-106488693D02*
X181990705Y-106488693D01*
X181657371Y-106488693D02*
X181704991Y-106536312D01*
X181752610Y-106488693D01*
X181704991Y-106441074D01*
X181657371Y-106488693D01*
X181752610Y-106488693D01*
X181990705Y-106155360D02*
X181990705Y-105774407D01*
X181657371Y-106012503D02*
X182514514Y-106012503D01*
X182609752Y-105964883D01*
X182657371Y-105869645D01*
X182657371Y-105774407D01*
X182657371Y-105441074D02*
X181657371Y-105441074D01*
X182657371Y-105012503D02*
X182133562Y-105012503D01*
X182038324Y-105060122D01*
X181990705Y-105155360D01*
X181990705Y-105298217D01*
X182038324Y-105393455D01*
X182085943Y-105441074D01*
X181990705Y-104107741D02*
X182657371Y-104107741D01*
X181990705Y-104536312D02*
X182514514Y-104536312D01*
X182609752Y-104488693D01*
X182657371Y-104393455D01*
X182657371Y-104250598D01*
X182609752Y-104155360D01*
X182562133Y-104107741D01*
X182657371Y-103631550D02*
X181657371Y-103631550D01*
X182038324Y-103631550D02*
X181990705Y-103536312D01*
X181990705Y-103345836D01*
X182038324Y-103250598D01*
X182085943Y-103202979D01*
X182181181Y-103155360D01*
X182466895Y-103155360D01*
X182562133Y-103202979D01*
X182609752Y-103250598D01*
X182657371Y-103345836D01*
X182657371Y-103536312D01*
X182609752Y-103631550D01*
X181609752Y-102012503D02*
X182895467Y-102869645D01*
X182133562Y-101679169D02*
X182133562Y-101345836D01*
X182657371Y-101202979D02*
X182657371Y-101679169D01*
X181657371Y-101679169D01*
X181657371Y-101202979D01*
X182657371Y-100298217D02*
X182657371Y-100774407D01*
X181657371Y-100774407D01*
X182276419Y-99964883D02*
X182276419Y-99202979D01*
X181752610Y-98774407D02*
X181704991Y-98726788D01*
X181657371Y-98631550D01*
X181657371Y-98393455D01*
X181704991Y-98298217D01*
X181752610Y-98250598D01*
X181847848Y-98202979D01*
X181943086Y-98202979D01*
X182085943Y-98250598D01*
X182657371Y-98822026D01*
X182657371Y-98202979D01*
X182657371Y-97250598D02*
X182657371Y-97822026D01*
X182657371Y-97536312D02*
X181657371Y-97536312D01*
X181800229Y-97631550D01*
X181895467Y-97726788D01*
X181943086Y-97822026D01*
X181657371Y-96631550D02*
X181657371Y-96536312D01*
X181704991Y-96441074D01*
X181752610Y-96393455D01*
X181847848Y-96345836D01*
X182038324Y-96298217D01*
X182276419Y-96298217D01*
X182466895Y-96345836D01*
X182562133Y-96393455D01*
X182609752Y-96441074D01*
X182657371Y-96536312D01*
X182657371Y-96631550D01*
X182609752Y-96726788D01*
X182562133Y-96774407D01*
X182466895Y-96822026D01*
X182276419Y-96869645D01*
X182038324Y-96869645D01*
X181847848Y-96822026D01*
X181752610Y-96774407D01*
X181704991Y-96726788D01*
X181657371Y-96631550D01*
X182276419Y-95869645D02*
X182276419Y-95107741D01*
X182657371Y-94631550D02*
X181657371Y-94631550D01*
X182371657Y-94298217D01*
X181657371Y-93964883D01*
X182657371Y-93964883D01*
X181657371Y-93298217D02*
X181657371Y-93107741D01*
X181704991Y-93012503D01*
X181800229Y-92917264D01*
X181990705Y-92869645D01*
X182324038Y-92869645D01*
X182514514Y-92917264D01*
X182609752Y-93012503D01*
X182657371Y-93107741D01*
X182657371Y-93298217D01*
X182609752Y-93393455D01*
X182514514Y-93488693D01*
X182324038Y-93536312D01*
X181990705Y-93536312D01*
X181800229Y-93488693D01*
X181704991Y-93393455D01*
X181657371Y-93298217D01*
X182657371Y-92441074D02*
X181657371Y-92441074D01*
X181657371Y-92202979D01*
X181704991Y-92060122D01*
X181800229Y-91964883D01*
X181895467Y-91917264D01*
X182085943Y-91869645D01*
X182228800Y-91869645D01*
X182419276Y-91917264D01*
X182514514Y-91964883D01*
X182609752Y-92060122D01*
X182657371Y-92202979D01*
X182657371Y-92441074D01*
%TO.C,U6*%
X123318095Y-96812380D02*
X123318095Y-97621904D01*
X123365714Y-97717142D01*
X123413333Y-97764761D01*
X123508571Y-97812380D01*
X123699047Y-97812380D01*
X123794285Y-97764761D01*
X123841904Y-97717142D01*
X123889523Y-97621904D01*
X123889523Y-96812380D01*
X124794285Y-96812380D02*
X124603809Y-96812380D01*
X124508571Y-96860000D01*
X124460952Y-96907619D01*
X124365714Y-97050476D01*
X124318095Y-97240952D01*
X124318095Y-97621904D01*
X124365714Y-97717142D01*
X124413333Y-97764761D01*
X124508571Y-97812380D01*
X124699047Y-97812380D01*
X124794285Y-97764761D01*
X124841904Y-97717142D01*
X124889523Y-97621904D01*
X124889523Y-97383809D01*
X124841904Y-97288571D01*
X124794285Y-97240952D01*
X124699047Y-97193333D01*
X124508571Y-97193333D01*
X124413333Y-97240952D01*
X124365714Y-97288571D01*
X124318095Y-97383809D01*
%TO.C,L1*%
X173416233Y-89308380D02*
X172940042Y-89308380D01*
X172940042Y-88308380D01*
X174273376Y-89308380D02*
X173701947Y-89308380D01*
X173987661Y-89308380D02*
X173987661Y-88308380D01*
X173892423Y-88451238D01*
X173797185Y-88546476D01*
X173701947Y-88594095D01*
X170082900Y-88633380D02*
X170082900Y-88871476D01*
X169844804Y-88776238D02*
X170082900Y-88871476D01*
X170320995Y-88776238D01*
X169940042Y-89061952D02*
X170082900Y-88871476D01*
X170225757Y-89061952D01*
%TO.C,L2*%
X127723333Y-89232380D02*
X127247142Y-89232380D01*
X127247142Y-88232380D01*
X128009047Y-88327619D02*
X128056666Y-88280000D01*
X128151904Y-88232380D01*
X128390000Y-88232380D01*
X128485238Y-88280000D01*
X128532857Y-88327619D01*
X128580476Y-88422857D01*
X128580476Y-88518095D01*
X128532857Y-88660952D01*
X127961428Y-89232380D01*
X128580476Y-89232380D01*
X124390000Y-88557380D02*
X124390000Y-88795476D01*
X124151904Y-88700238D02*
X124390000Y-88795476D01*
X124628095Y-88700238D01*
X124247142Y-88985952D02*
X124390000Y-88795476D01*
X124532857Y-88985952D01*
%TO.C,C3*%
X143962142Y-118481666D02*
X144009761Y-118529285D01*
X144057380Y-118672142D01*
X144057380Y-118767380D01*
X144009761Y-118910238D01*
X143914523Y-119005476D01*
X143819285Y-119053095D01*
X143628809Y-119100714D01*
X143485952Y-119100714D01*
X143295476Y-119053095D01*
X143200238Y-119005476D01*
X143105000Y-118910238D01*
X143057380Y-118767380D01*
X143057380Y-118672142D01*
X143105000Y-118529285D01*
X143152619Y-118481666D01*
X143057380Y-118148333D02*
X143057380Y-117529285D01*
X143438333Y-117862619D01*
X143438333Y-117719761D01*
X143485952Y-117624523D01*
X143533571Y-117576904D01*
X143628809Y-117529285D01*
X143866904Y-117529285D01*
X143962142Y-117576904D01*
X144009761Y-117624523D01*
X144057380Y-117719761D01*
X144057380Y-118005476D01*
X144009761Y-118100714D01*
X143962142Y-118148333D01*
%TO.C,C5*%
X168633142Y-119878666D02*
X168680761Y-119926285D01*
X168728380Y-120069142D01*
X168728380Y-120164380D01*
X168680761Y-120307238D01*
X168585523Y-120402476D01*
X168490285Y-120450095D01*
X168299809Y-120497714D01*
X168156952Y-120497714D01*
X167966476Y-120450095D01*
X167871238Y-120402476D01*
X167776000Y-120307238D01*
X167728380Y-120164380D01*
X167728380Y-120069142D01*
X167776000Y-119926285D01*
X167823619Y-119878666D01*
X167728380Y-118973904D02*
X167728380Y-119450095D01*
X168204571Y-119497714D01*
X168156952Y-119450095D01*
X168109333Y-119354857D01*
X168109333Y-119116761D01*
X168156952Y-119021523D01*
X168204571Y-118973904D01*
X168299809Y-118926285D01*
X168537904Y-118926285D01*
X168633142Y-118973904D01*
X168680761Y-119021523D01*
X168728380Y-119116761D01*
X168728380Y-119354857D01*
X168680761Y-119450095D01*
X168633142Y-119497714D01*
%TO.C,D1*%
X175586380Y-124006095D02*
X174586380Y-124006095D01*
X174586380Y-123768000D01*
X174634000Y-123625142D01*
X174729238Y-123529904D01*
X174824476Y-123482285D01*
X175014952Y-123434666D01*
X175157809Y-123434666D01*
X175348285Y-123482285D01*
X175443523Y-123529904D01*
X175538761Y-123625142D01*
X175586380Y-123768000D01*
X175586380Y-124006095D01*
X175586380Y-122482285D02*
X175586380Y-123053714D01*
X175586380Y-122768000D02*
X174586380Y-122768000D01*
X174729238Y-122863238D01*
X174824476Y-122958476D01*
X174872095Y-123053714D01*
%TO.C,C8*%
X139550142Y-101844666D02*
X139597761Y-101892285D01*
X139645380Y-102035142D01*
X139645380Y-102130380D01*
X139597761Y-102273238D01*
X139502523Y-102368476D01*
X139407285Y-102416095D01*
X139216809Y-102463714D01*
X139073952Y-102463714D01*
X138883476Y-102416095D01*
X138788238Y-102368476D01*
X138693000Y-102273238D01*
X138645380Y-102130380D01*
X138645380Y-102035142D01*
X138693000Y-101892285D01*
X138740619Y-101844666D01*
X139073952Y-101273238D02*
X139026333Y-101368476D01*
X138978714Y-101416095D01*
X138883476Y-101463714D01*
X138835857Y-101463714D01*
X138740619Y-101416095D01*
X138693000Y-101368476D01*
X138645380Y-101273238D01*
X138645380Y-101082761D01*
X138693000Y-100987523D01*
X138740619Y-100939904D01*
X138835857Y-100892285D01*
X138883476Y-100892285D01*
X138978714Y-100939904D01*
X139026333Y-100987523D01*
X139073952Y-101082761D01*
X139073952Y-101273238D01*
X139121571Y-101368476D01*
X139169190Y-101416095D01*
X139264428Y-101463714D01*
X139454904Y-101463714D01*
X139550142Y-101416095D01*
X139597761Y-101368476D01*
X139645380Y-101273238D01*
X139645380Y-101082761D01*
X139597761Y-100987523D01*
X139550142Y-100939904D01*
X139454904Y-100892285D01*
X139264428Y-100892285D01*
X139169190Y-100939904D01*
X139121571Y-100987523D01*
X139073952Y-101082761D01*
%TO.C,D2*%
X170049904Y-124609380D02*
X170049904Y-123609380D01*
X170288000Y-123609380D01*
X170430857Y-123657000D01*
X170526095Y-123752238D01*
X170573714Y-123847476D01*
X170621333Y-124037952D01*
X170621333Y-124180809D01*
X170573714Y-124371285D01*
X170526095Y-124466523D01*
X170430857Y-124561761D01*
X170288000Y-124609380D01*
X170049904Y-124609380D01*
X171002285Y-123704619D02*
X171049904Y-123657000D01*
X171145142Y-123609380D01*
X171383238Y-123609380D01*
X171478476Y-123657000D01*
X171526095Y-123704619D01*
X171573714Y-123799857D01*
X171573714Y-123895095D01*
X171526095Y-124037952D01*
X170954666Y-124609380D01*
X171573714Y-124609380D01*
%TO.C,U3*%
X140677380Y-107646904D02*
X141486904Y-107646904D01*
X141582142Y-107599285D01*
X141629761Y-107551666D01*
X141677380Y-107456428D01*
X141677380Y-107265952D01*
X141629761Y-107170714D01*
X141582142Y-107123095D01*
X141486904Y-107075476D01*
X140677380Y-107075476D01*
X140677380Y-106694523D02*
X140677380Y-106075476D01*
X141058333Y-106408809D01*
X141058333Y-106265952D01*
X141105952Y-106170714D01*
X141153571Y-106123095D01*
X141248809Y-106075476D01*
X141486904Y-106075476D01*
X141582142Y-106123095D01*
X141629761Y-106170714D01*
X141677380Y-106265952D01*
X141677380Y-106551666D01*
X141629761Y-106646904D01*
X141582142Y-106694523D01*
%TO.C,R4*%
X129628333Y-102417380D02*
X129295000Y-101941190D01*
X129056904Y-102417380D02*
X129056904Y-101417380D01*
X129437857Y-101417380D01*
X129533095Y-101465000D01*
X129580714Y-101512619D01*
X129628333Y-101607857D01*
X129628333Y-101750714D01*
X129580714Y-101845952D01*
X129533095Y-101893571D01*
X129437857Y-101941190D01*
X129056904Y-101941190D01*
X130485476Y-101750714D02*
X130485476Y-102417380D01*
X130247380Y-101369761D02*
X130009285Y-102084047D01*
X130628333Y-102084047D01*
%TO.C,U4*%
X176630995Y-96888380D02*
X176630995Y-97697904D01*
X176678614Y-97793142D01*
X176726233Y-97840761D01*
X176821471Y-97888380D01*
X177011947Y-97888380D01*
X177107185Y-97840761D01*
X177154804Y-97793142D01*
X177202423Y-97697904D01*
X177202423Y-96888380D01*
X178107185Y-97221714D02*
X178107185Y-97888380D01*
X177869090Y-96840761D02*
X177630995Y-97555047D01*
X178250042Y-97555047D01*
%TO.C,C1*%
X172443142Y-119878666D02*
X172490761Y-119926285D01*
X172538380Y-120069142D01*
X172538380Y-120164380D01*
X172490761Y-120307238D01*
X172395523Y-120402476D01*
X172300285Y-120450095D01*
X172109809Y-120497714D01*
X171966952Y-120497714D01*
X171776476Y-120450095D01*
X171681238Y-120402476D01*
X171586000Y-120307238D01*
X171538380Y-120164380D01*
X171538380Y-120069142D01*
X171586000Y-119926285D01*
X171633619Y-119878666D01*
X172538380Y-118926285D02*
X172538380Y-119497714D01*
X172538380Y-119212000D02*
X171538380Y-119212000D01*
X171681238Y-119307238D01*
X171776476Y-119402476D01*
X171824095Y-119497714D01*
%TO.C,R1*%
X177618380Y-119624666D02*
X177142190Y-119958000D01*
X177618380Y-120196095D02*
X176618380Y-120196095D01*
X176618380Y-119815142D01*
X176666000Y-119719904D01*
X176713619Y-119672285D01*
X176808857Y-119624666D01*
X176951714Y-119624666D01*
X177046952Y-119672285D01*
X177094571Y-119719904D01*
X177142190Y-119815142D01*
X177142190Y-120196095D01*
X177618380Y-118672285D02*
X177618380Y-119243714D01*
X177618380Y-118958000D02*
X176618380Y-118958000D01*
X176761238Y-119053238D01*
X176856476Y-119148476D01*
X176904095Y-119243714D01*
%TO.C,C7*%
X165458142Y-108575666D02*
X165505761Y-108623285D01*
X165553380Y-108766142D01*
X165553380Y-108861380D01*
X165505761Y-109004238D01*
X165410523Y-109099476D01*
X165315285Y-109147095D01*
X165124809Y-109194714D01*
X164981952Y-109194714D01*
X164791476Y-109147095D01*
X164696238Y-109099476D01*
X164601000Y-109004238D01*
X164553380Y-108861380D01*
X164553380Y-108766142D01*
X164601000Y-108623285D01*
X164648619Y-108575666D01*
X164553380Y-108242333D02*
X164553380Y-107575666D01*
X165553380Y-108004238D01*
%TO.C,C11*%
X136502142Y-95462857D02*
X136549761Y-95510476D01*
X136597380Y-95653333D01*
X136597380Y-95748571D01*
X136549761Y-95891428D01*
X136454523Y-95986666D01*
X136359285Y-96034285D01*
X136168809Y-96081904D01*
X136025952Y-96081904D01*
X135835476Y-96034285D01*
X135740238Y-95986666D01*
X135645000Y-95891428D01*
X135597380Y-95748571D01*
X135597380Y-95653333D01*
X135645000Y-95510476D01*
X135692619Y-95462857D01*
X136597380Y-94510476D02*
X136597380Y-95081904D01*
X136597380Y-94796190D02*
X135597380Y-94796190D01*
X135740238Y-94891428D01*
X135835476Y-94986666D01*
X135883095Y-95081904D01*
X136597380Y-93558095D02*
X136597380Y-94129523D01*
X136597380Y-93843809D02*
X135597380Y-93843809D01*
X135740238Y-93939047D01*
X135835476Y-94034285D01*
X135883095Y-94129523D01*
%TO.C,U2*%
X151893095Y-112522380D02*
X151893095Y-113331904D01*
X151940714Y-113427142D01*
X151988333Y-113474761D01*
X152083571Y-113522380D01*
X152274047Y-113522380D01*
X152369285Y-113474761D01*
X152416904Y-113427142D01*
X152464523Y-113331904D01*
X152464523Y-112522380D01*
X152893095Y-112617619D02*
X152940714Y-112570000D01*
X153035952Y-112522380D01*
X153274047Y-112522380D01*
X153369285Y-112570000D01*
X153416904Y-112617619D01*
X153464523Y-112712857D01*
X153464523Y-112808095D01*
X153416904Y-112950952D01*
X152845476Y-113522380D01*
X153464523Y-113522380D01*
%TO.C,C6*%
X172146233Y-107858142D02*
X172098614Y-107905761D01*
X171955757Y-107953380D01*
X171860519Y-107953380D01*
X171717661Y-107905761D01*
X171622423Y-107810523D01*
X171574804Y-107715285D01*
X171527185Y-107524809D01*
X171527185Y-107381952D01*
X171574804Y-107191476D01*
X171622423Y-107096238D01*
X171717661Y-107001000D01*
X171860519Y-106953380D01*
X171955757Y-106953380D01*
X172098614Y-107001000D01*
X172146233Y-107048619D01*
X173003376Y-106953380D02*
X172812900Y-106953380D01*
X172717661Y-107001000D01*
X172670042Y-107048619D01*
X172574804Y-107191476D01*
X172527185Y-107381952D01*
X172527185Y-107762904D01*
X172574804Y-107858142D01*
X172622423Y-107905761D01*
X172717661Y-107953380D01*
X172908138Y-107953380D01*
X173003376Y-107905761D01*
X173050995Y-107858142D01*
X173098614Y-107762904D01*
X173098614Y-107524809D01*
X173050995Y-107429571D01*
X173003376Y-107381952D01*
X172908138Y-107334333D01*
X172717661Y-107334333D01*
X172622423Y-107381952D01*
X172574804Y-107429571D01*
X172527185Y-107524809D01*
%TO.C,C2*%
X143995142Y-122291666D02*
X144042761Y-122339285D01*
X144090380Y-122482142D01*
X144090380Y-122577380D01*
X144042761Y-122720238D01*
X143947523Y-122815476D01*
X143852285Y-122863095D01*
X143661809Y-122910714D01*
X143518952Y-122910714D01*
X143328476Y-122863095D01*
X143233238Y-122815476D01*
X143138000Y-122720238D01*
X143090380Y-122577380D01*
X143090380Y-122482142D01*
X143138000Y-122339285D01*
X143185619Y-122291666D01*
X143185619Y-121910714D02*
X143138000Y-121863095D01*
X143090380Y-121767857D01*
X143090380Y-121529761D01*
X143138000Y-121434523D01*
X143185619Y-121386904D01*
X143280857Y-121339285D01*
X143376095Y-121339285D01*
X143518952Y-121386904D01*
X144090380Y-121958333D01*
X144090380Y-121339285D01*
%TO.C,C4*%
X180450042Y-93565166D02*
X180497661Y-93612785D01*
X180545280Y-93755642D01*
X180545280Y-93850880D01*
X180497661Y-93993738D01*
X180402423Y-94088976D01*
X180307185Y-94136595D01*
X180116709Y-94184214D01*
X179973852Y-94184214D01*
X179783376Y-94136595D01*
X179688138Y-94088976D01*
X179592900Y-93993738D01*
X179545280Y-93850880D01*
X179545280Y-93755642D01*
X179592900Y-93612785D01*
X179640519Y-93565166D01*
X179878614Y-92708023D02*
X180545280Y-92708023D01*
X179497661Y-92946119D02*
X180211947Y-93184214D01*
X180211947Y-92565166D01*
%TO.C,R5*%
X125818333Y-102417380D02*
X125485000Y-101941190D01*
X125246904Y-102417380D02*
X125246904Y-101417380D01*
X125627857Y-101417380D01*
X125723095Y-101465000D01*
X125770714Y-101512619D01*
X125818333Y-101607857D01*
X125818333Y-101750714D01*
X125770714Y-101845952D01*
X125723095Y-101893571D01*
X125627857Y-101941190D01*
X125246904Y-101941190D01*
X126723095Y-101417380D02*
X126246904Y-101417380D01*
X126199285Y-101893571D01*
X126246904Y-101845952D01*
X126342142Y-101798333D01*
X126580238Y-101798333D01*
X126675476Y-101845952D01*
X126723095Y-101893571D01*
X126770714Y-101988809D01*
X126770714Y-102226904D01*
X126723095Y-102322142D01*
X126675476Y-102369761D01*
X126580238Y-102417380D01*
X126342142Y-102417380D01*
X126246904Y-102369761D01*
X126199285Y-102322142D01*
%TO.C,C10*%
X139517142Y-98637857D02*
X139564761Y-98685476D01*
X139612380Y-98828333D01*
X139612380Y-98923571D01*
X139564761Y-99066428D01*
X139469523Y-99161666D01*
X139374285Y-99209285D01*
X139183809Y-99256904D01*
X139040952Y-99256904D01*
X138850476Y-99209285D01*
X138755238Y-99161666D01*
X138660000Y-99066428D01*
X138612380Y-98923571D01*
X138612380Y-98828333D01*
X138660000Y-98685476D01*
X138707619Y-98637857D01*
X139612380Y-97685476D02*
X139612380Y-98256904D01*
X139612380Y-97971190D02*
X138612380Y-97971190D01*
X138755238Y-98066428D01*
X138850476Y-98161666D01*
X138898095Y-98256904D01*
X138612380Y-97066428D02*
X138612380Y-96971190D01*
X138660000Y-96875952D01*
X138707619Y-96828333D01*
X138802857Y-96780714D01*
X138993333Y-96733095D01*
X139231428Y-96733095D01*
X139421904Y-96780714D01*
X139517142Y-96828333D01*
X139564761Y-96875952D01*
X139612380Y-96971190D01*
X139612380Y-97066428D01*
X139564761Y-97161666D01*
X139517142Y-97209285D01*
X139421904Y-97256904D01*
X139231428Y-97304523D01*
X138993333Y-97304523D01*
X138802857Y-97256904D01*
X138707619Y-97209285D01*
X138660000Y-97161666D01*
X138612380Y-97066428D01*
%TO.C,C9*%
X132692142Y-93862933D02*
X132739761Y-93910552D01*
X132787380Y-94053409D01*
X132787380Y-94148647D01*
X132739761Y-94291505D01*
X132644523Y-94386743D01*
X132549285Y-94434362D01*
X132358809Y-94481981D01*
X132215952Y-94481981D01*
X132025476Y-94434362D01*
X131930238Y-94386743D01*
X131835000Y-94291505D01*
X131787380Y-94148647D01*
X131787380Y-94053409D01*
X131835000Y-93910552D01*
X131882619Y-93862933D01*
X132787380Y-93386743D02*
X132787380Y-93196267D01*
X132739761Y-93101028D01*
X132692142Y-93053409D01*
X132549285Y-92958171D01*
X132358809Y-92910552D01*
X131977857Y-92910552D01*
X131882619Y-92958171D01*
X131835000Y-93005790D01*
X131787380Y-93101028D01*
X131787380Y-93291505D01*
X131835000Y-93386743D01*
X131882619Y-93434362D01*
X131977857Y-93481981D01*
X132215952Y-93481981D01*
X132311190Y-93434362D01*
X132358809Y-93386743D01*
X132406428Y-93291505D01*
X132406428Y-93101028D01*
X132358809Y-93005790D01*
X132311190Y-92958171D01*
X132215952Y-92910552D01*
D12*
%TO.C,P1*%
X128500000Y-138000000D02*
X128500000Y-131000000D01*
X176000000Y-131000000D02*
X176000000Y-138000000D01*
X128500000Y-131000000D02*
X175500000Y-131000000D01*
X175500000Y-131000000D02*
X176000000Y-131000000D01*
%TO.C,U1*%
X176260000Y-82960000D02*
X176260000Y-88040000D01*
X125460000Y-88040000D02*
X125460000Y-82960000D01*
X125460000Y-82960000D02*
X176260000Y-82960000D01*
X176260000Y-88040000D02*
X125460000Y-88040000D01*
X125460000Y-72800000D02*
X176260000Y-72800000D01*
X176260000Y-72800000D02*
X176260000Y-82960000D01*
X125460000Y-82960000D02*
X125460000Y-72800000D01*
%TO.C,U6*%
X127890000Y-98920000D02*
X128690000Y-98920000D01*
X127890000Y-95800000D02*
X126090000Y-95800000D01*
X127890000Y-95800000D02*
X128690000Y-95800000D01*
X127890000Y-98920000D02*
X127090000Y-98920000D01*
%TO.C,L1*%
X170903200Y-95035700D02*
X176262600Y-95035700D01*
X176262600Y-89978560D02*
X176262600Y-89676300D01*
X170903200Y-89676300D02*
X170903200Y-89978560D01*
X176262600Y-95035700D02*
X176262600Y-94733440D01*
X176262600Y-89676300D02*
X170903200Y-89676300D01*
X170903200Y-94733440D02*
X170903200Y-95035700D01*
%TO.C,L2*%
X130569700Y-94959700D02*
X130569700Y-94657440D01*
X125210300Y-89600300D02*
X125210300Y-89902560D01*
X130569700Y-89600300D02*
X125210300Y-89600300D01*
X125210300Y-94959700D02*
X130569700Y-94959700D01*
X130569700Y-89902560D02*
X130569700Y-89600300D01*
X125210300Y-94657440D02*
X125210300Y-94959700D01*
%TO.C,C3*%
X144525000Y-118461267D02*
X144525000Y-118168733D01*
X145545000Y-118461267D02*
X145545000Y-118168733D01*
%TO.C,C5*%
X170310000Y-119731267D02*
X170310000Y-119438733D01*
X169290000Y-119731267D02*
X169290000Y-119438733D01*
%TO.C,D1*%
X172875000Y-125041000D02*
X174345000Y-125041000D01*
X172875000Y-122581000D02*
X172875000Y-125041000D01*
X174345000Y-125041000D02*
X174345000Y-122581000D01*
%TO.C,C8*%
X141100000Y-101658733D02*
X141100000Y-101951267D01*
X140080000Y-101658733D02*
X140080000Y-101951267D01*
%TO.C,D2*%
X169015000Y-121771000D02*
X169015000Y-123241000D01*
X169015000Y-123241000D02*
X171475000Y-123241000D01*
X171475000Y-121771000D02*
X169015000Y-121771000D01*
%TO.C,U3*%
X143912900Y-107489000D02*
X143912900Y-107806882D01*
X160719100Y-93669000D02*
X160719100Y-92175900D01*
X145088118Y-108982100D02*
X145406000Y-108982100D01*
X160719100Y-92175900D02*
X159226000Y-92175900D01*
X143912900Y-107806882D02*
X145088118Y-108982100D01*
X160719100Y-108982100D02*
X159226000Y-108982100D01*
X160719100Y-107489000D02*
X160719100Y-108982100D01*
X143912900Y-93669000D02*
X143912900Y-92175900D01*
X143912900Y-92175900D02*
X145406000Y-92175900D01*
%TO.C,R4*%
X130049724Y-101057500D02*
X129540276Y-101057500D01*
X130049724Y-100012500D02*
X129540276Y-100012500D01*
%TO.C,U4*%
X173582900Y-98996000D02*
X174382900Y-98996000D01*
X173582900Y-95876000D02*
X174382900Y-95876000D01*
X173582900Y-95876000D02*
X171782900Y-95876000D01*
X173582900Y-98996000D02*
X172782900Y-98996000D01*
%TO.C,C1*%
X174120000Y-119412233D02*
X174120000Y-119704767D01*
X173100000Y-119412233D02*
X173100000Y-119704767D01*
%TO.C,R1*%
X176037500Y-119863224D02*
X176037500Y-119353776D01*
X174992500Y-119863224D02*
X174992500Y-119353776D01*
%TO.C,C7*%
X163960000Y-108008733D02*
X163960000Y-108301267D01*
X162940000Y-108008733D02*
X162940000Y-108301267D01*
%TO.C,C11*%
X137770000Y-98704437D02*
X137770000Y-102160000D01*
X133250000Y-98704437D02*
X133250000Y-102160000D01*
X133250000Y-102160000D02*
X134450000Y-102160000D01*
X134314437Y-97640000D02*
X133250000Y-98704437D01*
X137070000Y-96900000D02*
X137070000Y-97400000D01*
X134314437Y-97640000D02*
X134450000Y-97640000D01*
X137770000Y-102160000D02*
X136570000Y-102160000D01*
X136705563Y-97640000D02*
X136570000Y-97640000D01*
X137320000Y-97150000D02*
X136820000Y-97150000D01*
X136705563Y-97640000D02*
X137770000Y-98704437D01*
%TO.C,U2*%
X149045000Y-122560000D02*
X149045000Y-122260000D01*
X156265000Y-122560000D02*
X156265000Y-122260000D01*
X149045000Y-115640000D02*
X147730000Y-115640000D01*
X155965000Y-122560000D02*
X156265000Y-122560000D01*
X156265000Y-115340000D02*
X156265000Y-115640000D01*
X155965000Y-115340000D02*
X156265000Y-115340000D01*
X149345000Y-115340000D02*
X149045000Y-115340000D01*
X149345000Y-122560000D02*
X149045000Y-122560000D01*
X149045000Y-115340000D02*
X149045000Y-115640000D01*
%TO.C,C6*%
X176356650Y-105392250D02*
X176356650Y-104604750D01*
X176750400Y-104998500D02*
X175962900Y-104998500D01*
X174658463Y-106561000D02*
X168902900Y-106561000D01*
X175722900Y-100805437D02*
X175722900Y-102091000D01*
X174658463Y-99741000D02*
X168902900Y-99741000D01*
X175722900Y-105496563D02*
X175722900Y-104211000D01*
X175722900Y-100805437D02*
X174658463Y-99741000D01*
X168902900Y-106561000D02*
X168902900Y-104211000D01*
X168902900Y-99741000D02*
X168902900Y-102091000D01*
X175722900Y-105496563D02*
X174658463Y-106561000D01*
%TO.C,C2*%
X145545000Y-121978733D02*
X145545000Y-122271267D01*
X144525000Y-121978733D02*
X144525000Y-122271267D01*
%TO.C,C4*%
X179172900Y-93252233D02*
X179172900Y-93544767D01*
X178152900Y-93252233D02*
X178152900Y-93544767D01*
%TO.C,R5*%
X126239724Y-100012500D02*
X125730276Y-100012500D01*
X126239724Y-101057500D02*
X125730276Y-101057500D01*
%TO.C,C10*%
X141100000Y-98141267D02*
X141100000Y-97848733D01*
X140080000Y-98141267D02*
X140080000Y-97848733D01*
%TO.C,C9*%
X133095000Y-93403733D02*
X133095000Y-93696267D01*
X134115000Y-93403733D02*
X134115000Y-93696267D01*
%TD*%
M02*
