%TF.GenerationSoftware,KiCad,Pcbnew,6.0.2+dfsg-1*%
%TF.CreationDate,2023-01-11T22:45:24+09:00*%
%TF.ProjectId,EL-210-MOD,454c2d32-3130-42d4-9d4f-442e6b696361,rev?*%
%TF.SameCoordinates,Original*%
%TF.FileFunction,Copper,L2,Bot*%
%TF.FilePolarity,Positive*%
%FSLAX46Y46*%
G04 Gerber Fmt 4.6, Leading zero omitted, Abs format (unit mm)*
G04 Created by KiCad (PCBNEW 6.0.2+dfsg-1) date 2023-01-11 22:45:24*
%MOMM*%
%LPD*%
G01*
G04 APERTURE LIST*
G04 Aperture macros list*
%AMRoundRect*
0 Rectangle with rounded corners*
0 $1 Rounding radius*
0 $2 $3 $4 $5 $6 $7 $8 $9 X,Y pos of 4 corners*
0 Add a 4 corners polygon primitive as box body*
4,1,4,$2,$3,$4,$5,$6,$7,$8,$9,$2,$3,0*
0 Add four circle primitives for the rounded corners*
1,1,$1+$1,$2,$3*
1,1,$1+$1,$4,$5*
1,1,$1+$1,$6,$7*
1,1,$1+$1,$8,$9*
0 Add four rect primitives between the rounded corners*
20,1,$1+$1,$2,$3,$4,$5,0*
20,1,$1+$1,$4,$5,$6,$7,0*
20,1,$1+$1,$6,$7,$8,$9,0*
20,1,$1+$1,$8,$9,$2,$3,0*%
G04 Aperture macros list end*
%TA.AperFunction,SMDPad,CuDef*%
%ADD10R,0.500000X6.000000*%
%TD*%
%TA.AperFunction,ComponentPad*%
%ADD11R,1.600000X1.600000*%
%TD*%
%TA.AperFunction,ComponentPad*%
%ADD12C,1.600000*%
%TD*%
%TA.AperFunction,ComponentPad*%
%ADD13R,1.700000X1.700000*%
%TD*%
%TA.AperFunction,ComponentPad*%
%ADD14O,1.700000X1.700000*%
%TD*%
%TA.AperFunction,SMDPad,CuDef*%
%ADD15R,1.400000X0.300000*%
%TD*%
%TA.AperFunction,SMDPad,CuDef*%
%ADD16RoundRect,0.237500X-0.237500X0.250000X-0.237500X-0.250000X0.237500X-0.250000X0.237500X0.250000X0*%
%TD*%
%TA.AperFunction,SMDPad,CuDef*%
%ADD17RoundRect,0.237500X0.237500X-0.250000X0.237500X0.250000X-0.237500X0.250000X-0.237500X-0.250000X0*%
%TD*%
%TA.AperFunction,ViaPad*%
%ADD18C,0.800000*%
%TD*%
%TA.AperFunction,Conductor*%
%ADD19C,0.250000*%
%TD*%
G04 APERTURE END LIST*
D10*
%TO.P,P1,1,GND*%
%TO.N,GND*%
X130000000Y-134500000D03*
%TO.P,P1,2,KC0*%
%TO.N,/KC0*%
X135500000Y-134500000D03*
%TO.P,P1,3,KC1*%
%TO.N,/KC1*%
X137756000Y-134500000D03*
%TO.P,P1,4,KC2*%
%TO.N,/KC2*%
X140012000Y-134500000D03*
%TO.P,P1,5,KR0*%
%TO.N,/KR0*%
X142268000Y-134500000D03*
%TO.P,P1,6,KR1*%
%TO.N,/KR1*%
X144524000Y-134500000D03*
%TO.P,P1,7,KR2*%
%TO.N,/KR2*%
X146780000Y-134500000D03*
%TO.P,P1,8,KR3*%
%TO.N,/KR3*%
X149036000Y-134500000D03*
%TO.P,P1,9,KR4*%
%TO.N,/KR4*%
X151292000Y-134500000D03*
%TO.P,P1,10,KR5*%
%TO.N,/KR5*%
X153548000Y-134500000D03*
%TO.P,P1,11,KR6*%
%TO.N,/KR6*%
X155804000Y-134500000D03*
%TO.P,P1,12,NC*%
%TO.N,unconnected-(P1-Pad12)*%
X162200000Y-134500000D03*
%TO.P,P1,13,KR7*%
%TO.N,/KR7*%
X164300000Y-134500000D03*
%TO.P,P1,14,KR8*%
%TO.N,/KR8*%
X166580000Y-134500000D03*
%TO.P,P1,15,GND*%
%TO.N,GND*%
X168860000Y-134500000D03*
%TO.P,P1,16,GND*%
X174560000Y-134500000D03*
%TD*%
D11*
%TO.P,U1,1,H1*%
%TO.N,/H1*%
X128000000Y-85500000D03*
D12*
%TO.P,U1,2,Seg_a*%
%TO.N,/SEG_A*%
X130540000Y-85500000D03*
%TO.P,U1,3,D8*%
%TO.N,Net-(U1-Pad3)*%
X133080000Y-85500000D03*
%TO.P,U1,4,Seg_g*%
%TO.N,Net-(U1-Pad4)*%
X135620000Y-85500000D03*
%TO.P,U1,5,D7*%
%TO.N,Net-(U1-Pad5)*%
X138160000Y-85500000D03*
%TO.P,U1,6,Seg_f*%
%TO.N,Net-(U1-Pad6)*%
X140700000Y-85500000D03*
%TO.P,U1,7,D6*%
%TO.N,Net-(U1-Pad7)*%
X143240000Y-85500000D03*
%TO.P,U1,8,Seg_e*%
%TO.N,Net-(U1-Pad8)*%
X145780000Y-85500000D03*
%TO.P,U1,9,D5*%
%TO.N,Net-(U1-Pad9)*%
X148320000Y-85500000D03*
%TO.P,U1,10,D4*%
%TO.N,Net-(U1-Pad10)*%
X150860000Y-85500000D03*
%TO.P,U1,11,Seg_d*%
%TO.N,Net-(U1-Pad11)*%
X153400000Y-85500000D03*
%TO.P,U1,12,D3*%
%TO.N,Net-(U1-Pad12)*%
X155940000Y-85500000D03*
%TO.P,U1,13,DP*%
%TO.N,Net-(U1-Pad13)*%
X158480000Y-85500000D03*
%TO.P,U1,14,D2*%
%TO.N,Net-(U1-Pad14)*%
X161020000Y-85500000D03*
%TO.P,U1,15,Seg_c*%
%TO.N,Net-(U1-Pad15)*%
X163560000Y-85500000D03*
%TO.P,U1,16,D1*%
%TO.N,Net-(U1-Pad16)*%
X166100000Y-85500000D03*
%TO.P,U1,17,Seg_b*%
%TO.N,Net-(U1-Pad17)*%
X168640000Y-85500000D03*
%TO.P,U1,18,D0*%
%TO.N,Net-(U1-Pad18)*%
X171180000Y-85500000D03*
%TO.P,U1,19,H2*%
%TO.N,/H2*%
X173720000Y-85500000D03*
%TD*%
D13*
%TO.P,J2,1,Pin_1*%
%TO.N,+BATT*%
X124080000Y-85930000D03*
D14*
%TO.P,J2,2,Pin_2*%
%TO.N,GND*%
X121540000Y-85930000D03*
%TD*%
D13*
%TO.P,J1,1,Pin_1*%
%TO.N,/SWCLK*%
X178055000Y-113235000D03*
D14*
%TO.P,J1,2,Pin_2*%
%TO.N,GND*%
X175515000Y-113235000D03*
%TO.P,J1,3,Pin_3*%
%TO.N,/SWDIO*%
X172975000Y-113235000D03*
%TO.P,J1,4,Pin_4*%
%TO.N,/NRST*%
X170435000Y-113235000D03*
%TO.P,J1,5,Pin_5*%
%TO.N,/LPUART2_TX*%
X167895000Y-113235000D03*
%TD*%
D15*
%TO.P,U5,1,V+*%
%TO.N,+3V3*%
X154220000Y-102075000D03*
%TO.P,U5,2,NO1*%
X154220000Y-102575000D03*
%TO.P,U5,3,COM1*%
%TO.N,Net-(R2-Pad2)*%
X154220000Y-103075000D03*
%TO.P,U5,4,IN1*%
%TO.N,/TIM1_CH1N*%
X154220000Y-103575000D03*
%TO.P,U5,5,NC1*%
%TO.N,GND*%
X154220000Y-104075000D03*
%TO.P,U5,6,GND*%
X149820000Y-104075000D03*
%TO.P,U5,7,NC2*%
X149820000Y-103575000D03*
%TO.P,U5,8,IN2*%
%TO.N,/TIM1_CH1*%
X149820000Y-103075000D03*
%TO.P,U5,9,COM2*%
%TO.N,Net-(R3-Pad1)*%
X149820000Y-102575000D03*
%TO.P,U5,10,NO2*%
%TO.N,+3V3*%
X149820000Y-102075000D03*
%TD*%
D16*
%TO.P,R2,1*%
%TO.N,/H2*%
X153290000Y-97082500D03*
%TO.P,R2,2*%
%TO.N,Net-(R2-Pad2)*%
X153290000Y-98907500D03*
%TD*%
D17*
%TO.P,R3,1*%
%TO.N,Net-(R3-Pad1)*%
X150115000Y-98907500D03*
%TO.P,R3,2*%
%TO.N,/H1*%
X150115000Y-97082500D03*
%TD*%
D18*
%TO.N,GND*%
X171909000Y-117067500D03*
X124441800Y-97829300D03*
X132409600Y-93568600D03*
X180173000Y-94286300D03*
X137140800Y-101829700D03*
X123689200Y-100378900D03*
X158653700Y-101936800D03*
X170653500Y-97211200D03*
X162355200Y-108486700D03*
X146305000Y-119188500D03*
X144144500Y-122125200D03*
X139295800Y-102324900D03*
X139242600Y-96879900D03*
X159640000Y-114505000D03*
X157735000Y-114505000D03*
X172312900Y-103039700D03*
X174649600Y-123317300D03*
%TO.N,/H1*%
X148845000Y-96090000D03*
X146305000Y-96090000D03*
%TO.N,/H2*%
X157735000Y-96090000D03*
X154560000Y-96090000D03*
%TO.N,/BLANK*%
X159005000Y-117045000D03*
X158653700Y-104135900D03*
%TO.N,/LOAD*%
X152793100Y-100023800D03*
X151658900Y-117207600D03*
%TO.N,+3V3*%
X146940000Y-106250000D03*
X150507000Y-101298800D03*
X157735000Y-100535000D03*
X139955000Y-113235000D03*
X163450000Y-100535000D03*
X147575000Y-100535000D03*
X156021900Y-102588600D03*
X143765000Y-109425000D03*
%TO.N,/NRST*%
X155013700Y-118710800D03*
%TO.N,/TIM1_CH1N*%
X153776200Y-121724700D03*
%TO.N,/TIM1_CH1*%
X152114900Y-120130400D03*
%TO.N,/SWCLK*%
X171705000Y-111965000D03*
%TO.N,/LPUART2_TX*%
X153424800Y-116194700D03*
%TO.N,/KC0*%
X146179400Y-121020700D03*
%TO.N,/KC1*%
X140590000Y-127840000D03*
%TO.N,/KC2*%
X147531900Y-123617200D03*
%TO.N,/KR0*%
X144340800Y-128640300D03*
%TO.N,/KR1*%
X146407200Y-125960800D03*
%TO.N,/KR2*%
X151029100Y-121711700D03*
%TO.N,/KR3*%
X151756000Y-125180200D03*
%TO.N,/KR4*%
X154638900Y-125234800D03*
%TO.N,/KR5*%
X154809300Y-127440800D03*
%TO.N,/KR6*%
X156711000Y-127043300D03*
%TO.N,/KR7*%
X159986600Y-121376600D03*
%TO.N,/KR8*%
X160006200Y-119846000D03*
%TD*%
D19*
%TO.N,GND*%
X149820000Y-103575000D02*
X148345000Y-103575000D01*
X130000000Y-128382000D02*
X130000000Y-134500000D01*
X154220000Y-104075000D02*
X155560000Y-104075000D01*
X168860000Y-128755800D02*
X168860000Y-134500000D01*
X174560000Y-128536700D02*
X174560000Y-134500000D01*
%TO.N,/H1*%
X149480000Y-96090000D02*
X148845000Y-96090000D01*
X150115000Y-97082500D02*
X150115000Y-96725000D01*
X139433800Y-96090000D02*
X129125100Y-85781300D01*
X146305000Y-96090000D02*
X139433800Y-96090000D01*
X150115000Y-96725000D02*
X149480000Y-96090000D01*
X129125100Y-85500000D02*
X128000000Y-85500000D01*
X129125100Y-85781300D02*
X129125100Y-85500000D01*
%TO.N,/H2*%
X153925000Y-96090000D02*
X154560000Y-96090000D01*
X153290000Y-96725000D02*
X153925000Y-96090000D01*
X153290000Y-97082500D02*
X153290000Y-96725000D01*
X163130000Y-96090000D02*
X173720000Y-85500000D01*
X157735000Y-96090000D02*
X163130000Y-96090000D01*
%TO.N,/BLANK*%
X158653700Y-116463800D02*
X158653700Y-104135900D01*
X159005000Y-117045000D02*
X158653700Y-116463800D01*
%TO.N,/LOAD*%
X152054300Y-100762600D02*
X152793100Y-100023800D01*
X151658900Y-117207600D02*
X152054300Y-116812200D01*
X152054300Y-116812200D02*
X152054300Y-100762600D01*
%TO.N,+3V3*%
X143765000Y-109425000D02*
X146940000Y-106250000D01*
X149820000Y-101985800D02*
X149820000Y-102075000D01*
X155258700Y-102588600D02*
X155245100Y-102575000D01*
X154220000Y-102075000D02*
X155245100Y-102075000D01*
X149743200Y-100535000D02*
X147575000Y-100535000D01*
X154220000Y-102575000D02*
X155245100Y-102575000D01*
X156021900Y-102588600D02*
X155258700Y-102588600D01*
X143765000Y-109425000D02*
X139955000Y-113235000D01*
X157735000Y-100535000D02*
X163450000Y-100535000D01*
X150507000Y-101298800D02*
X149820000Y-101985800D01*
X150507000Y-101298800D02*
X149743200Y-100535000D01*
X155245100Y-102075000D02*
X155245100Y-102575000D01*
%TO.N,/NRST*%
X155013700Y-118710800D02*
X169404200Y-118710800D01*
X170435000Y-117680000D02*
X170435000Y-113235000D01*
X169404200Y-118710800D02*
X170435000Y-117680000D01*
%TO.N,/TIM1_CH1N*%
X153776200Y-120571100D02*
X153776200Y-121724700D01*
X154220000Y-103575000D02*
X153194900Y-103575000D01*
X153194900Y-103575000D02*
X152699700Y-104070200D01*
X152699700Y-104070200D02*
X152699700Y-119494600D01*
X152699700Y-119494600D02*
X153776200Y-120571100D01*
%TO.N,/TIM1_CH1*%
X149820000Y-103075000D02*
X150845100Y-103075000D01*
X150845100Y-118860600D02*
X152114900Y-120130400D01*
X150845100Y-103075000D02*
X150845100Y-118860600D01*
%TO.N,/SWCLK*%
X171705000Y-111965000D02*
X176785000Y-111965000D01*
X176785000Y-111965000D02*
X178055000Y-113235000D01*
%TO.N,/LPUART2_TX*%
X167736988Y-117769511D02*
X167895000Y-117611499D01*
X153424800Y-116194700D02*
X154999611Y-117769511D01*
X154999611Y-117769511D02*
X167736988Y-117769511D01*
X167895000Y-117611499D02*
X167895000Y-113235000D01*
%TO.N,/KC0*%
X144130000Y-121020700D02*
X135500000Y-129650700D01*
X146179400Y-121020700D02*
X144130000Y-121020700D01*
X135500000Y-129650700D02*
X135500000Y-134500000D01*
%TO.N,/KC1*%
X137756000Y-130674000D02*
X140590000Y-127840000D01*
X137756000Y-134500000D02*
X137756000Y-130674000D01*
%TO.N,/KC2*%
X140012000Y-131137100D02*
X140012000Y-134500000D01*
X147531900Y-123617200D02*
X140012000Y-131137100D01*
%TO.N,/KR0*%
X144340800Y-128640300D02*
X142268000Y-130713100D01*
X142268000Y-130713100D02*
X142268000Y-134500000D01*
%TO.N,/KR1*%
X144524000Y-134500000D02*
X144524000Y-131174900D01*
X146407200Y-129291700D02*
X146407200Y-125960800D01*
X144524000Y-131174900D02*
X146407200Y-129291700D01*
%TO.N,/KR2*%
X147132300Y-130822600D02*
X147132300Y-125608500D01*
X146780000Y-134500000D02*
X146780000Y-131174900D01*
X147132300Y-125608500D02*
X151029100Y-121711700D01*
X146780000Y-131174900D02*
X147132300Y-130822600D01*
%TO.N,/KR3*%
X149036000Y-127900200D02*
X149036000Y-134500000D01*
X151756000Y-125180200D02*
X149036000Y-127900200D01*
%TO.N,/KR4*%
X154638900Y-125234800D02*
X151292000Y-128581700D01*
X151292000Y-128581700D02*
X151292000Y-134500000D01*
%TO.N,/KR5*%
X154809300Y-127440800D02*
X153548000Y-128702100D01*
X153548000Y-128702100D02*
X153548000Y-134500000D01*
%TO.N,/KR6*%
X155804000Y-134500000D02*
X155804000Y-131174900D01*
X156711000Y-127043300D02*
X156711000Y-130267900D01*
X156711000Y-130267900D02*
X155804000Y-131174900D01*
%TO.N,/KR7*%
X164300000Y-125690000D02*
X164300000Y-134500000D01*
X159986600Y-121376600D02*
X164300000Y-125690000D01*
%TO.N,/KR8*%
X160006200Y-119846000D02*
X166580000Y-126419800D01*
X166580000Y-126419800D02*
X166580000Y-134500000D01*
%TO.N,Net-(R2-Pad2)*%
X153518200Y-100324200D02*
X153518200Y-99135700D01*
X153194900Y-103075000D02*
X153194900Y-100647500D01*
X153518200Y-99135700D02*
X153290000Y-98907500D01*
X153194900Y-100647500D02*
X153518200Y-100324200D01*
X154220000Y-103075000D02*
X153194900Y-103075000D01*
%TO.N,Net-(R3-Pad1)*%
X150845100Y-102575000D02*
X151232100Y-102188000D01*
X151232100Y-102188000D02*
X151232100Y-100024600D01*
X149820000Y-102575000D02*
X150845100Y-102575000D01*
X151232100Y-100024600D02*
X150115000Y-98907500D01*
%TD*%
%TA.AperFunction,Conductor*%
%TO.N,GND*%
G36*
X184347121Y-73885002D02*
G01*
X184393614Y-73938658D01*
X184405000Y-73991000D01*
X184405000Y-130254000D01*
X184384998Y-130322121D01*
X184331342Y-130368614D01*
X184279000Y-130380000D01*
X167339500Y-130380000D01*
X167271379Y-130359998D01*
X167224886Y-130306342D01*
X167213500Y-130254000D01*
X167213500Y-126498567D01*
X167214027Y-126487384D01*
X167215702Y-126479891D01*
X167213562Y-126411814D01*
X167213500Y-126407855D01*
X167213500Y-126379944D01*
X167212995Y-126375944D01*
X167212062Y-126364101D01*
X167211951Y-126360551D01*
X167210673Y-126319910D01*
X167205022Y-126300458D01*
X167201014Y-126281106D01*
X167199467Y-126268863D01*
X167198474Y-126261003D01*
X167193919Y-126249497D01*
X167182200Y-126219897D01*
X167178355Y-126208670D01*
X167177721Y-126206487D01*
X167166018Y-126166207D01*
X167155707Y-126148772D01*
X167147012Y-126131024D01*
X167139552Y-126112183D01*
X167113564Y-126076413D01*
X167107048Y-126066493D01*
X167088580Y-126035265D01*
X167088578Y-126035262D01*
X167084542Y-126028438D01*
X167070221Y-126014117D01*
X167057380Y-125999083D01*
X167050131Y-125989106D01*
X167045472Y-125982693D01*
X167011395Y-125954502D01*
X167002616Y-125946512D01*
X160953322Y-119897217D01*
X160919296Y-119834905D01*
X160917107Y-119821292D01*
X160900432Y-119662635D01*
X160900432Y-119662633D01*
X160899742Y-119656072D01*
X160852032Y-119509236D01*
X160850004Y-119438269D01*
X160886667Y-119377471D01*
X160950379Y-119346145D01*
X160971865Y-119344300D01*
X169325433Y-119344300D01*
X169336616Y-119344827D01*
X169344109Y-119346502D01*
X169352035Y-119346253D01*
X169352036Y-119346253D01*
X169412186Y-119344362D01*
X169416145Y-119344300D01*
X169444056Y-119344300D01*
X169447991Y-119343803D01*
X169448056Y-119343795D01*
X169459893Y-119342862D01*
X169492151Y-119341848D01*
X169496170Y-119341722D01*
X169504089Y-119341473D01*
X169523543Y-119335821D01*
X169542900Y-119331813D01*
X169555130Y-119330268D01*
X169555131Y-119330268D01*
X169562997Y-119329274D01*
X169570368Y-119326355D01*
X169570370Y-119326355D01*
X169604112Y-119312996D01*
X169615342Y-119309151D01*
X169650183Y-119299029D01*
X169650184Y-119299029D01*
X169657793Y-119296818D01*
X169664612Y-119292785D01*
X169664617Y-119292783D01*
X169675228Y-119286507D01*
X169692976Y-119277812D01*
X169711817Y-119270352D01*
X169747587Y-119244364D01*
X169757507Y-119237848D01*
X169788735Y-119219380D01*
X169788738Y-119219378D01*
X169795562Y-119215342D01*
X169809883Y-119201021D01*
X169824917Y-119188180D01*
X169834894Y-119180931D01*
X169841307Y-119176272D01*
X169869498Y-119142195D01*
X169877488Y-119133416D01*
X170827247Y-118183657D01*
X170835537Y-118176113D01*
X170842018Y-118172000D01*
X170888659Y-118122332D01*
X170891413Y-118119491D01*
X170911134Y-118099770D01*
X170913612Y-118096575D01*
X170921318Y-118087553D01*
X170946158Y-118061101D01*
X170951586Y-118055321D01*
X170961346Y-118037568D01*
X170972199Y-118021045D01*
X170979753Y-118011306D01*
X170984613Y-118005041D01*
X171002176Y-117964457D01*
X171007383Y-117953827D01*
X171028695Y-117915060D01*
X171030666Y-117907383D01*
X171030668Y-117907378D01*
X171033732Y-117895442D01*
X171040138Y-117876730D01*
X171045034Y-117865417D01*
X171048181Y-117858145D01*
X171055097Y-117814481D01*
X171057504Y-117802860D01*
X171066528Y-117767711D01*
X171066528Y-117767710D01*
X171068500Y-117760030D01*
X171068500Y-117739769D01*
X171070051Y-117720058D01*
X171071979Y-117707885D01*
X171073219Y-117700057D01*
X171069059Y-117656046D01*
X171068500Y-117644189D01*
X171068500Y-114515427D01*
X171088502Y-114447306D01*
X171129618Y-114407550D01*
X171132994Y-114405896D01*
X171314860Y-114276173D01*
X171473096Y-114118489D01*
X171482670Y-114105166D01*
X171603453Y-113937077D01*
X171604776Y-113938028D01*
X171651645Y-113894857D01*
X171721580Y-113882625D01*
X171787026Y-113910144D01*
X171814875Y-113941994D01*
X171874987Y-114040088D01*
X172021250Y-114208938D01*
X172193126Y-114351632D01*
X172386000Y-114464338D01*
X172594692Y-114544030D01*
X172599760Y-114545061D01*
X172599763Y-114545062D01*
X172694862Y-114564410D01*
X172813597Y-114588567D01*
X172818772Y-114588757D01*
X172818774Y-114588757D01*
X173031673Y-114596564D01*
X173031677Y-114596564D01*
X173036837Y-114596753D01*
X173041957Y-114596097D01*
X173041959Y-114596097D01*
X173253288Y-114569025D01*
X173253289Y-114569025D01*
X173258416Y-114568368D01*
X173263366Y-114566883D01*
X173467429Y-114505661D01*
X173467434Y-114505659D01*
X173472384Y-114504174D01*
X173672994Y-114405896D01*
X173854860Y-114276173D01*
X174013096Y-114118489D01*
X174022670Y-114105166D01*
X174143453Y-113937077D01*
X174144640Y-113937930D01*
X174191960Y-113894362D01*
X174261897Y-113882145D01*
X174327338Y-113909678D01*
X174355166Y-113941511D01*
X174412694Y-114035388D01*
X174418777Y-114043699D01*
X174558213Y-114204667D01*
X174565580Y-114211883D01*
X174729434Y-114347916D01*
X174737881Y-114353831D01*
X174921756Y-114461279D01*
X174931042Y-114465729D01*
X175130001Y-114541703D01*
X175139899Y-114544579D01*
X175243250Y-114565606D01*
X175257299Y-114564410D01*
X175261000Y-114554065D01*
X175261000Y-113107000D01*
X175281002Y-113038879D01*
X175334658Y-112992386D01*
X175387000Y-112981000D01*
X175643000Y-112981000D01*
X175711121Y-113001002D01*
X175757614Y-113054658D01*
X175769000Y-113107000D01*
X175769000Y-114553517D01*
X175773064Y-114567359D01*
X175786478Y-114569393D01*
X175793184Y-114568534D01*
X175803262Y-114566392D01*
X176007255Y-114505191D01*
X176016842Y-114501433D01*
X176208095Y-114407739D01*
X176216945Y-114402464D01*
X176390328Y-114278792D01*
X176398193Y-114272145D01*
X176502897Y-114167805D01*
X176565268Y-114133889D01*
X176636075Y-114139077D01*
X176692837Y-114181723D01*
X176709819Y-114212826D01*
X176754385Y-114331705D01*
X176841739Y-114448261D01*
X176958295Y-114535615D01*
X177094684Y-114586745D01*
X177156866Y-114593500D01*
X178953134Y-114593500D01*
X179015316Y-114586745D01*
X179151705Y-114535615D01*
X179268261Y-114448261D01*
X179355615Y-114331705D01*
X179406745Y-114195316D01*
X179413500Y-114133134D01*
X179413500Y-112336866D01*
X179406745Y-112274684D01*
X179355615Y-112138295D01*
X179268261Y-112021739D01*
X179151705Y-111934385D01*
X179015316Y-111883255D01*
X178953134Y-111876500D01*
X177644595Y-111876500D01*
X177576474Y-111856498D01*
X177555500Y-111839595D01*
X177288652Y-111572747D01*
X177281112Y-111564461D01*
X177277000Y-111557982D01*
X177227348Y-111511356D01*
X177224507Y-111508602D01*
X177204770Y-111488865D01*
X177201573Y-111486385D01*
X177192551Y-111478680D01*
X177166100Y-111453841D01*
X177160321Y-111448414D01*
X177153375Y-111444595D01*
X177153372Y-111444593D01*
X177142566Y-111438652D01*
X177126047Y-111427801D01*
X177125583Y-111427441D01*
X177110041Y-111415386D01*
X177102772Y-111412241D01*
X177102768Y-111412238D01*
X177069463Y-111397826D01*
X177058813Y-111392609D01*
X177020060Y-111371305D01*
X177000437Y-111366267D01*
X176981734Y-111359863D01*
X176970420Y-111354967D01*
X176970419Y-111354967D01*
X176963145Y-111351819D01*
X176955322Y-111350580D01*
X176955312Y-111350577D01*
X176919476Y-111344901D01*
X176907856Y-111342495D01*
X176872711Y-111333472D01*
X176872710Y-111333472D01*
X176865030Y-111331500D01*
X176844776Y-111331500D01*
X176825065Y-111329949D01*
X176812886Y-111328020D01*
X176805057Y-111326780D01*
X176797165Y-111327526D01*
X176761039Y-111330941D01*
X176749181Y-111331500D01*
X172604281Y-111331500D01*
X172536160Y-111311498D01*
X172489667Y-111257842D01*
X172479563Y-111187568D01*
X172509057Y-111122988D01*
X172520956Y-111110986D01*
X172584858Y-111054650D01*
X172584861Y-111054647D01*
X172588655Y-111051302D01*
X172742734Y-110863722D01*
X172864841Y-110653922D01*
X172951833Y-110427298D01*
X172970827Y-110336379D01*
X173000440Y-110194631D01*
X173000440Y-110194627D01*
X173001474Y-110189680D01*
X173012486Y-109947183D01*
X172997235Y-109815373D01*
X172985167Y-109711071D01*
X172985166Y-109711067D01*
X172984585Y-109706044D01*
X172945517Y-109567978D01*
X172919866Y-109477331D01*
X172918490Y-109472468D01*
X172916356Y-109467892D01*
X172916354Y-109467886D01*
X172818038Y-109257046D01*
X172818036Y-109257042D01*
X172815901Y-109252464D01*
X172679456Y-109051693D01*
X172512668Y-108875319D01*
X172508641Y-108872240D01*
X172323846Y-108730953D01*
X172323842Y-108730950D01*
X172319826Y-108727880D01*
X172105891Y-108613169D01*
X171876369Y-108534138D01*
X171757586Y-108513621D01*
X171641074Y-108493496D01*
X171641068Y-108493495D01*
X171637164Y-108492821D01*
X171633203Y-108492641D01*
X171633202Y-108492641D01*
X171609494Y-108491564D01*
X171609475Y-108491564D01*
X171608075Y-108491500D01*
X171438999Y-108491500D01*
X171436491Y-108491702D01*
X171436486Y-108491702D01*
X171263076Y-108505654D01*
X171263071Y-108505655D01*
X171258035Y-108506060D01*
X171253127Y-108507266D01*
X171253124Y-108507266D01*
X171137007Y-108535787D01*
X171022294Y-108563963D01*
X171017642Y-108565938D01*
X171017638Y-108565939D01*
X170910252Y-108611522D01*
X170798844Y-108658812D01*
X170794560Y-108661510D01*
X170597712Y-108785472D01*
X170597709Y-108785474D01*
X170593433Y-108788167D01*
X170589639Y-108791512D01*
X170415142Y-108945350D01*
X170415139Y-108945353D01*
X170411345Y-108948698D01*
X170408135Y-108952606D01*
X170408134Y-108952607D01*
X170320144Y-109059729D01*
X170257266Y-109136278D01*
X170135159Y-109346078D01*
X170133346Y-109350801D01*
X170098751Y-109440926D01*
X170048167Y-109572702D01*
X170047133Y-109577652D01*
X170047132Y-109577655D01*
X170039346Y-109614928D01*
X169998526Y-109810320D01*
X169987514Y-110052817D01*
X169988095Y-110057837D01*
X169988095Y-110057841D01*
X170006409Y-110216118D01*
X170015415Y-110293956D01*
X170016791Y-110298820D01*
X170016792Y-110298823D01*
X170062476Y-110460266D01*
X170081510Y-110527532D01*
X170083644Y-110532108D01*
X170083646Y-110532114D01*
X170140446Y-110653922D01*
X170184099Y-110747536D01*
X170320544Y-110948307D01*
X170487332Y-111124681D01*
X170491358Y-111127759D01*
X170491359Y-111127760D01*
X170676154Y-111269047D01*
X170676158Y-111269050D01*
X170680174Y-111272120D01*
X170851159Y-111363801D01*
X170852561Y-111364553D01*
X170903144Y-111414371D01*
X170918764Y-111483628D01*
X170902139Y-111538597D01*
X170870473Y-111593444D01*
X170811458Y-111775072D01*
X170810769Y-111781631D01*
X170810768Y-111781634D01*
X170810437Y-111784787D01*
X170809736Y-111786490D01*
X170809394Y-111788100D01*
X170809100Y-111788037D01*
X170783423Y-111850444D01*
X170725201Y-111891073D01*
X170663032Y-111895662D01*
X170563284Y-111877894D01*
X170489452Y-111876992D01*
X170345081Y-111875228D01*
X170345079Y-111875228D01*
X170339911Y-111875165D01*
X170119091Y-111908955D01*
X169906756Y-111978357D01*
X169708607Y-112081507D01*
X169704474Y-112084610D01*
X169704471Y-112084612D01*
X169534100Y-112212530D01*
X169529965Y-112215635D01*
X169375629Y-112377138D01*
X169268201Y-112534621D01*
X169213293Y-112579621D01*
X169142768Y-112587792D01*
X169079021Y-112556538D01*
X169058324Y-112532054D01*
X168977822Y-112407617D01*
X168977820Y-112407614D01*
X168975014Y-112403277D01*
X168824670Y-112238051D01*
X168820619Y-112234852D01*
X168820615Y-112234848D01*
X168653414Y-112102800D01*
X168653410Y-112102798D01*
X168649359Y-112099598D01*
X168453789Y-111991638D01*
X168448920Y-111989914D01*
X168448916Y-111989912D01*
X168248087Y-111918795D01*
X168248083Y-111918794D01*
X168243212Y-111917069D01*
X168238119Y-111916162D01*
X168238116Y-111916161D01*
X168028373Y-111878800D01*
X168028367Y-111878799D01*
X168023284Y-111877894D01*
X167949452Y-111876992D01*
X167805081Y-111875228D01*
X167805079Y-111875228D01*
X167799911Y-111875165D01*
X167579091Y-111908955D01*
X167366756Y-111978357D01*
X167168607Y-112081507D01*
X167164474Y-112084610D01*
X167164471Y-112084612D01*
X166994100Y-112212530D01*
X166989965Y-112215635D01*
X166835629Y-112377138D01*
X166709743Y-112561680D01*
X166615688Y-112764305D01*
X166555989Y-112979570D01*
X166532251Y-113201695D01*
X166545110Y-113424715D01*
X166546247Y-113429761D01*
X166546248Y-113429767D01*
X166567275Y-113523069D01*
X166594222Y-113642639D01*
X166678266Y-113849616D01*
X166717638Y-113913866D01*
X166792291Y-114035688D01*
X166794987Y-114040088D01*
X166941250Y-114208938D01*
X167113126Y-114351632D01*
X167117593Y-114354242D01*
X167199070Y-114401853D01*
X167247794Y-114453491D01*
X167261500Y-114510641D01*
X167261500Y-117010011D01*
X167241498Y-117078132D01*
X167187842Y-117124625D01*
X167135500Y-117136011D01*
X160041521Y-117136011D01*
X159973400Y-117116009D01*
X159926907Y-117062353D01*
X159916211Y-117023182D01*
X159899232Y-116861634D01*
X159899231Y-116861631D01*
X159898542Y-116855072D01*
X159839527Y-116673444D01*
X159744040Y-116508056D01*
X159616253Y-116366134D01*
X159461752Y-116253882D01*
X159455724Y-116251198D01*
X159455722Y-116251197D01*
X159361951Y-116209448D01*
X159307856Y-116163468D01*
X159287200Y-116094341D01*
X159287200Y-104838424D01*
X159307202Y-104770303D01*
X159319558Y-104754121D01*
X159392740Y-104672844D01*
X159488227Y-104507456D01*
X159547242Y-104325828D01*
X159553145Y-104269669D01*
X159566514Y-104142465D01*
X159567204Y-104135900D01*
X159550157Y-103973706D01*
X159547932Y-103952535D01*
X159547932Y-103952533D01*
X159547242Y-103945972D01*
X159488227Y-103764344D01*
X159481968Y-103753502D01*
X159396041Y-103604674D01*
X159392740Y-103598956D01*
X159278284Y-103471839D01*
X159269375Y-103461945D01*
X159269374Y-103461944D01*
X159264953Y-103457034D01*
X159110452Y-103344782D01*
X159104424Y-103342098D01*
X159104422Y-103342097D01*
X158942019Y-103269791D01*
X158942018Y-103269791D01*
X158935988Y-103267106D01*
X158842588Y-103247253D01*
X158755644Y-103228772D01*
X158755639Y-103228772D01*
X158749187Y-103227400D01*
X158558213Y-103227400D01*
X158551761Y-103228772D01*
X158551756Y-103228772D01*
X158464812Y-103247253D01*
X158371412Y-103267106D01*
X158365382Y-103269791D01*
X158365381Y-103269791D01*
X158202978Y-103342097D01*
X158202976Y-103342098D01*
X158196948Y-103344782D01*
X158042447Y-103457034D01*
X158038026Y-103461944D01*
X158038025Y-103461945D01*
X158029117Y-103471839D01*
X157914660Y-103598956D01*
X157911359Y-103604674D01*
X157825433Y-103753502D01*
X157819173Y-103764344D01*
X157760158Y-103945972D01*
X157759468Y-103952533D01*
X157759468Y-103952535D01*
X157757243Y-103973706D01*
X157740196Y-104135900D01*
X157740886Y-104142465D01*
X157754256Y-104269669D01*
X157760158Y-104325828D01*
X157819173Y-104507456D01*
X157914660Y-104672844D01*
X157987837Y-104754115D01*
X158018553Y-104818121D01*
X158020200Y-104838424D01*
X158020200Y-116383835D01*
X158019749Y-116394487D01*
X158019106Y-116402066D01*
X158017451Y-116409819D01*
X158017776Y-116417739D01*
X158017776Y-116417740D01*
X158020094Y-116474212D01*
X158020200Y-116479379D01*
X158020200Y-116503656D01*
X158020696Y-116507582D01*
X158020696Y-116507583D01*
X158021165Y-116511294D01*
X158022052Y-116521919D01*
X158024015Y-116569743D01*
X158028796Y-116585627D01*
X158033148Y-116606146D01*
X158035226Y-116622597D01*
X158038143Y-116629965D01*
X158038145Y-116629972D01*
X158052847Y-116667104D01*
X158056350Y-116677176D01*
X158070144Y-116723010D01*
X158074244Y-116729793D01*
X158078727Y-116737210D01*
X158088043Y-116755997D01*
X158094148Y-116771417D01*
X158097860Y-116776526D01*
X158112995Y-116845154D01*
X158111721Y-116854263D01*
X158111458Y-116855072D01*
X158097094Y-116991734D01*
X158093789Y-117023182D01*
X158066776Y-117088838D01*
X158008554Y-117129468D01*
X157968479Y-117136011D01*
X155314206Y-117136011D01*
X155246085Y-117116009D01*
X155225110Y-117099106D01*
X154371921Y-116245916D01*
X154337896Y-116183604D01*
X154335707Y-116169991D01*
X154319032Y-116011335D01*
X154319032Y-116011333D01*
X154318342Y-116004772D01*
X154259327Y-115823144D01*
X154163840Y-115657756D01*
X154036053Y-115515834D01*
X153881552Y-115403582D01*
X153875524Y-115400898D01*
X153875522Y-115400897D01*
X153713119Y-115328591D01*
X153713118Y-115328591D01*
X153707088Y-115325906D01*
X153613687Y-115306053D01*
X153526744Y-115287572D01*
X153526739Y-115287572D01*
X153520287Y-115286200D01*
X153459200Y-115286200D01*
X153391079Y-115266198D01*
X153344586Y-115212542D01*
X153333200Y-115160200D01*
X153333200Y-104858312D01*
X153353202Y-104790191D01*
X153406858Y-104743698D01*
X153466010Y-104732496D01*
X153475322Y-104733000D01*
X154051885Y-104733000D01*
X154067124Y-104728525D01*
X154068329Y-104727135D01*
X154070000Y-104719452D01*
X154070000Y-104359500D01*
X154090002Y-104291379D01*
X154143658Y-104244886D01*
X154196000Y-104233500D01*
X154244000Y-104233500D01*
X154312121Y-104253502D01*
X154358614Y-104307158D01*
X154370000Y-104359500D01*
X154370000Y-104714884D01*
X154374475Y-104730123D01*
X154375865Y-104731328D01*
X154383548Y-104732999D01*
X154964669Y-104732999D01*
X154971490Y-104732629D01*
X155022352Y-104727105D01*
X155037604Y-104723479D01*
X155158054Y-104678324D01*
X155173649Y-104669786D01*
X155275724Y-104593285D01*
X155288285Y-104580724D01*
X155364786Y-104478649D01*
X155373324Y-104463054D01*
X155418478Y-104342606D01*
X155422105Y-104327351D01*
X155427631Y-104276486D01*
X155428000Y-104269672D01*
X155428000Y-104243115D01*
X155423525Y-104227876D01*
X155422135Y-104226671D01*
X155405235Y-104222995D01*
X155342922Y-104188970D01*
X155308897Y-104126658D01*
X155313961Y-104055843D01*
X155331190Y-104024310D01*
X155365231Y-103978889D01*
X155365231Y-103978888D01*
X155370614Y-103971706D01*
X155370903Y-103971922D01*
X155417065Y-103925861D01*
X155422418Y-103923647D01*
X155426328Y-103919135D01*
X155427999Y-103911452D01*
X155427999Y-103880330D01*
X155427630Y-103873509D01*
X155424091Y-103840930D01*
X155424091Y-103813716D01*
X155424344Y-103811393D01*
X155428500Y-103773134D01*
X155428500Y-103512902D01*
X155448502Y-103444781D01*
X155502158Y-103398288D01*
X155572432Y-103388184D01*
X155605748Y-103397795D01*
X155733577Y-103454708D01*
X155733585Y-103454711D01*
X155739612Y-103457394D01*
X155833012Y-103477247D01*
X155919956Y-103495728D01*
X155919961Y-103495728D01*
X155926413Y-103497100D01*
X156117387Y-103497100D01*
X156123839Y-103495728D01*
X156123844Y-103495728D01*
X156210788Y-103477247D01*
X156304188Y-103457394D01*
X156313718Y-103453151D01*
X156472622Y-103382403D01*
X156472624Y-103382402D01*
X156478652Y-103379718D01*
X156633153Y-103267466D01*
X156760940Y-103125544D01*
X156856427Y-102960156D01*
X156915442Y-102778528D01*
X156935404Y-102588600D01*
X156915442Y-102398672D01*
X156856427Y-102217044D01*
X156760940Y-102051656D01*
X156633153Y-101909734D01*
X156513141Y-101822540D01*
X156483994Y-101801363D01*
X156483993Y-101801362D01*
X156478652Y-101797482D01*
X156472624Y-101794798D01*
X156472622Y-101794797D01*
X156310219Y-101722491D01*
X156310218Y-101722491D01*
X156304188Y-101719806D01*
X156196801Y-101696980D01*
X156123844Y-101681472D01*
X156123839Y-101681472D01*
X156117387Y-101680100D01*
X155926413Y-101680100D01*
X155919960Y-101681472D01*
X155919947Y-101681473D01*
X155846996Y-101696980D01*
X155776206Y-101691579D01*
X155734543Y-101665581D01*
X155731084Y-101662332D01*
X155715412Y-101644554D01*
X155715234Y-101644309D01*
X155715232Y-101644307D01*
X155710572Y-101637893D01*
X155704462Y-101632838D01*
X155667304Y-101602097D01*
X155661370Y-101596866D01*
X155626202Y-101563842D01*
X155626199Y-101563840D01*
X155620421Y-101558414D01*
X155613197Y-101554442D01*
X155593594Y-101541119D01*
X155593354Y-101540920D01*
X155593347Y-101540916D01*
X155587244Y-101535867D01*
X155536424Y-101511953D01*
X155529392Y-101508371D01*
X155480160Y-101481305D01*
X155472485Y-101479335D01*
X155472479Y-101479332D01*
X155472181Y-101479256D01*
X155449872Y-101471224D01*
X155449597Y-101471094D01*
X155449589Y-101471091D01*
X155442418Y-101467717D01*
X155387251Y-101457194D01*
X155379542Y-101455471D01*
X155345549Y-101446743D01*
X155332807Y-101443471D01*
X155332806Y-101443471D01*
X155325130Y-101441500D01*
X155316893Y-101441500D01*
X155293284Y-101439268D01*
X155292981Y-101439210D01*
X155292977Y-101439210D01*
X155285194Y-101437725D01*
X155229149Y-101441251D01*
X155221238Y-101441500D01*
X155101826Y-101441500D01*
X155057596Y-101433482D01*
X155030316Y-101423255D01*
X154968134Y-101416500D01*
X153954400Y-101416500D01*
X153886279Y-101396498D01*
X153839786Y-101342842D01*
X153828400Y-101290500D01*
X153828400Y-100962094D01*
X153848402Y-100893973D01*
X153865305Y-100872999D01*
X153910447Y-100827857D01*
X153918737Y-100820313D01*
X153925218Y-100816200D01*
X153971859Y-100766532D01*
X153974613Y-100763691D01*
X153994334Y-100743970D01*
X153996812Y-100740775D01*
X154004518Y-100731753D01*
X154029358Y-100705301D01*
X154034786Y-100699521D01*
X154044546Y-100681768D01*
X154055399Y-100665245D01*
X154062953Y-100655506D01*
X154067813Y-100649241D01*
X154085376Y-100608657D01*
X154090583Y-100598027D01*
X154111895Y-100559260D01*
X154113866Y-100551583D01*
X154113868Y-100551578D01*
X154116932Y-100539642D01*
X154118521Y-100535000D01*
X156821496Y-100535000D01*
X156822186Y-100541565D01*
X156838788Y-100699521D01*
X156841458Y-100724928D01*
X156900473Y-100906556D01*
X156995960Y-101071944D01*
X157123747Y-101213866D01*
X157278248Y-101326118D01*
X157284276Y-101328802D01*
X157284278Y-101328803D01*
X157446681Y-101401109D01*
X157452712Y-101403794D01*
X157527840Y-101419763D01*
X157633056Y-101442128D01*
X157633061Y-101442128D01*
X157639513Y-101443500D01*
X157830487Y-101443500D01*
X157836939Y-101442128D01*
X157836944Y-101442128D01*
X157942160Y-101419763D01*
X158017288Y-101403794D01*
X158023319Y-101401109D01*
X158185722Y-101328803D01*
X158185724Y-101328802D01*
X158191752Y-101326118D01*
X158346253Y-101213866D01*
X158350668Y-101208963D01*
X158355580Y-101204540D01*
X158356705Y-101205789D01*
X158410014Y-101172949D01*
X158443200Y-101168500D01*
X162741800Y-101168500D01*
X162809921Y-101188502D01*
X162829147Y-101204843D01*
X162829420Y-101204540D01*
X162834332Y-101208963D01*
X162838747Y-101213866D01*
X162993248Y-101326118D01*
X162999276Y-101328802D01*
X162999278Y-101328803D01*
X163161681Y-101401109D01*
X163167712Y-101403794D01*
X163242840Y-101419763D01*
X163348056Y-101442128D01*
X163348061Y-101442128D01*
X163354513Y-101443500D01*
X163545487Y-101443500D01*
X163551939Y-101442128D01*
X163551944Y-101442128D01*
X163657160Y-101419763D01*
X163732288Y-101403794D01*
X163738319Y-101401109D01*
X163900722Y-101328803D01*
X163900724Y-101328802D01*
X163906752Y-101326118D01*
X164061253Y-101213866D01*
X164189040Y-101071944D01*
X164284527Y-100906556D01*
X164343542Y-100724928D01*
X164346213Y-100699521D01*
X164362814Y-100541565D01*
X164363504Y-100535000D01*
X164343542Y-100345072D01*
X164284527Y-100163444D01*
X164189040Y-99998056D01*
X164113332Y-99913973D01*
X164065675Y-99861045D01*
X164065674Y-99861044D01*
X164061253Y-99856134D01*
X163906752Y-99743882D01*
X163900724Y-99741198D01*
X163900722Y-99741197D01*
X163738319Y-99668891D01*
X163738318Y-99668891D01*
X163732288Y-99666206D01*
X163636187Y-99645779D01*
X163551944Y-99627872D01*
X163551939Y-99627872D01*
X163545487Y-99626500D01*
X163354513Y-99626500D01*
X163348061Y-99627872D01*
X163348056Y-99627872D01*
X163263813Y-99645779D01*
X163167712Y-99666206D01*
X163161682Y-99668891D01*
X163161681Y-99668891D01*
X162999278Y-99741197D01*
X162999276Y-99741198D01*
X162993248Y-99743882D01*
X162838747Y-99856134D01*
X162834332Y-99861037D01*
X162829420Y-99865460D01*
X162828295Y-99864211D01*
X162774986Y-99897051D01*
X162741800Y-99901500D01*
X158443200Y-99901500D01*
X158375079Y-99881498D01*
X158355853Y-99865157D01*
X158355580Y-99865460D01*
X158350668Y-99861037D01*
X158346253Y-99856134D01*
X158191752Y-99743882D01*
X158185724Y-99741198D01*
X158185722Y-99741197D01*
X158023319Y-99668891D01*
X158023318Y-99668891D01*
X158017288Y-99666206D01*
X157921187Y-99645779D01*
X157836944Y-99627872D01*
X157836939Y-99627872D01*
X157830487Y-99626500D01*
X157639513Y-99626500D01*
X157633061Y-99627872D01*
X157633056Y-99627872D01*
X157548813Y-99645779D01*
X157452712Y-99666206D01*
X157446682Y-99668891D01*
X157446681Y-99668891D01*
X157284278Y-99741197D01*
X157284276Y-99741198D01*
X157278248Y-99743882D01*
X157123747Y-99856134D01*
X157119326Y-99861044D01*
X157119325Y-99861045D01*
X157071669Y-99913973D01*
X156995960Y-99998056D01*
X156900473Y-100163444D01*
X156841458Y-100345072D01*
X156821496Y-100535000D01*
X154118521Y-100535000D01*
X154123338Y-100520930D01*
X154128233Y-100509619D01*
X154131381Y-100502345D01*
X154132621Y-100494517D01*
X154132623Y-100494510D01*
X154138299Y-100458676D01*
X154140705Y-100447056D01*
X154149728Y-100411911D01*
X154149728Y-100411910D01*
X154151700Y-100404230D01*
X154151700Y-100383976D01*
X154153251Y-100364265D01*
X154155180Y-100352086D01*
X154156420Y-100344257D01*
X154152259Y-100300238D01*
X154151700Y-100288381D01*
X154151700Y-99602308D01*
X154170440Y-99536192D01*
X154204369Y-99481150D01*
X154204370Y-99481148D01*
X154208209Y-99474920D01*
X154262974Y-99309809D01*
X154273500Y-99207072D01*
X154273500Y-98607928D01*
X154262707Y-98503907D01*
X154258980Y-98492734D01*
X154209972Y-98345841D01*
X154207654Y-98338893D01*
X154116116Y-98190969D01*
X154110934Y-98185796D01*
X154009214Y-98084253D01*
X153975135Y-98021970D01*
X153980138Y-97951150D01*
X154009059Y-97906063D01*
X154111754Y-97803188D01*
X154111758Y-97803183D01*
X154116929Y-97798003D01*
X154145460Y-97751718D01*
X154204369Y-97656150D01*
X154204370Y-97656148D01*
X154208209Y-97649920D01*
X154262974Y-97484809D01*
X154273500Y-97382072D01*
X154273500Y-97113496D01*
X154293502Y-97045375D01*
X154347158Y-96998882D01*
X154417432Y-96988778D01*
X154425698Y-96990250D01*
X154458049Y-96997127D01*
X154458058Y-96997128D01*
X154464513Y-96998500D01*
X154655487Y-96998500D01*
X154661939Y-96997128D01*
X154661944Y-96997128D01*
X154748888Y-96978647D01*
X154842288Y-96958794D01*
X154848319Y-96956109D01*
X155010722Y-96883803D01*
X155010724Y-96883802D01*
X155016752Y-96881118D01*
X155171253Y-96768866D01*
X155208095Y-96727949D01*
X155294621Y-96631852D01*
X155294622Y-96631851D01*
X155299040Y-96626944D01*
X155374053Y-96497018D01*
X155391223Y-96467279D01*
X155391224Y-96467278D01*
X155394527Y-96461556D01*
X155453542Y-96279928D01*
X155457331Y-96243884D01*
X155472814Y-96096565D01*
X155473504Y-96090000D01*
X155453542Y-95900072D01*
X155394527Y-95718444D01*
X155299040Y-95553056D01*
X155284798Y-95537238D01*
X155175675Y-95416045D01*
X155175674Y-95416044D01*
X155171253Y-95411134D01*
X155016752Y-95298882D01*
X155010724Y-95296198D01*
X155010722Y-95296197D01*
X154848319Y-95223891D01*
X154848318Y-95223891D01*
X154842288Y-95221206D01*
X154748887Y-95201353D01*
X154661944Y-95182872D01*
X154661939Y-95182872D01*
X154655487Y-95181500D01*
X154464513Y-95181500D01*
X154458061Y-95182872D01*
X154458056Y-95182872D01*
X154371113Y-95201353D01*
X154277712Y-95221206D01*
X154271682Y-95223891D01*
X154271681Y-95223891D01*
X154109278Y-95296197D01*
X154109276Y-95296198D01*
X154103248Y-95298882D01*
X153948747Y-95411134D01*
X153943657Y-95416787D01*
X153943158Y-95417095D01*
X153939420Y-95420460D01*
X153938805Y-95419777D01*
X153883213Y-95454029D01*
X153853976Y-95458419D01*
X153825111Y-95459326D01*
X153817495Y-95461539D01*
X153817493Y-95461539D01*
X153805652Y-95464979D01*
X153786293Y-95468988D01*
X153784983Y-95469154D01*
X153766203Y-95471526D01*
X153758837Y-95474442D01*
X153758831Y-95474444D01*
X153725098Y-95487800D01*
X153713868Y-95491645D01*
X153697828Y-95496305D01*
X153671407Y-95503981D01*
X153664584Y-95508016D01*
X153653966Y-95514295D01*
X153636213Y-95522992D01*
X153628568Y-95526019D01*
X153617383Y-95530448D01*
X153603705Y-95540386D01*
X153581612Y-95556437D01*
X153571695Y-95562951D01*
X153533638Y-95585458D01*
X153519317Y-95599779D01*
X153504284Y-95612619D01*
X153487893Y-95624528D01*
X153461516Y-95656413D01*
X153459712Y-95658593D01*
X153451722Y-95667374D01*
X153067646Y-96051449D01*
X153005334Y-96085474D01*
X152991555Y-96087680D01*
X152905765Y-96096581D01*
X152905761Y-96096582D01*
X152898907Y-96097293D01*
X152892371Y-96099474D01*
X152892369Y-96099474D01*
X152793762Y-96132372D01*
X152733893Y-96152346D01*
X152585969Y-96243884D01*
X152580796Y-96249066D01*
X152468242Y-96361816D01*
X152468238Y-96361821D01*
X152463071Y-96366997D01*
X152459231Y-96373227D01*
X152459230Y-96373228D01*
X152376364Y-96507662D01*
X152371791Y-96515080D01*
X152317026Y-96680191D01*
X152316326Y-96687027D01*
X152316325Y-96687030D01*
X152314543Y-96704421D01*
X152306500Y-96782928D01*
X152306500Y-97382072D01*
X152306837Y-97385318D01*
X152306837Y-97385322D01*
X152311683Y-97432022D01*
X152317293Y-97486093D01*
X152372346Y-97651107D01*
X152463884Y-97799031D01*
X152469066Y-97804204D01*
X152570786Y-97905747D01*
X152604865Y-97968030D01*
X152599862Y-98038850D01*
X152570941Y-98083937D01*
X152468246Y-98186812D01*
X152468242Y-98186817D01*
X152463071Y-98191997D01*
X152459231Y-98198227D01*
X152459230Y-98198228D01*
X152376364Y-98332662D01*
X152371791Y-98340080D01*
X152317026Y-98505191D01*
X152306500Y-98607928D01*
X152306500Y-99190168D01*
X152286498Y-99258289D01*
X152254562Y-99292103D01*
X152181847Y-99344934D01*
X152054060Y-99486856D01*
X152050761Y-99492569D01*
X152050758Y-99492574D01*
X151962305Y-99645779D01*
X151910922Y-99694772D01*
X151841208Y-99708208D01*
X151775298Y-99681821D01*
X151744733Y-99646919D01*
X151740680Y-99640065D01*
X151740678Y-99640062D01*
X151736642Y-99633238D01*
X151722321Y-99618917D01*
X151709480Y-99603883D01*
X151702231Y-99593906D01*
X151697572Y-99587493D01*
X151691468Y-99582443D01*
X151691463Y-99582438D01*
X151663502Y-99559307D01*
X151654721Y-99551317D01*
X151135404Y-99031999D01*
X151101379Y-98969687D01*
X151098500Y-98942904D01*
X151098500Y-98607928D01*
X151087707Y-98503907D01*
X151083980Y-98492734D01*
X151034972Y-98345841D01*
X151032654Y-98338893D01*
X150941116Y-98190969D01*
X150935934Y-98185796D01*
X150834214Y-98084253D01*
X150800135Y-98021970D01*
X150805138Y-97951150D01*
X150834059Y-97906063D01*
X150936754Y-97803188D01*
X150936758Y-97803183D01*
X150941929Y-97798003D01*
X150970460Y-97751718D01*
X151029369Y-97656150D01*
X151029370Y-97656148D01*
X151033209Y-97649920D01*
X151087974Y-97484809D01*
X151098500Y-97382072D01*
X151098500Y-96782928D01*
X151097444Y-96772749D01*
X151088419Y-96685765D01*
X151088418Y-96685761D01*
X151087707Y-96678907D01*
X151082197Y-96662390D01*
X151034972Y-96520841D01*
X151032654Y-96513893D01*
X150941116Y-96365969D01*
X150935934Y-96360796D01*
X150823184Y-96248242D01*
X150823179Y-96248238D01*
X150818003Y-96243071D01*
X150669920Y-96151791D01*
X150504809Y-96097026D01*
X150497973Y-96096326D01*
X150497970Y-96096325D01*
X150413589Y-96087680D01*
X150347861Y-96060839D01*
X150337335Y-96051431D01*
X150164904Y-95878999D01*
X149983647Y-95697742D01*
X149976113Y-95689463D01*
X149972000Y-95682982D01*
X149922348Y-95636356D01*
X149919507Y-95633602D01*
X149899770Y-95613865D01*
X149896573Y-95611385D01*
X149887551Y-95603680D01*
X149883397Y-95599779D01*
X149855321Y-95573414D01*
X149848375Y-95569595D01*
X149848372Y-95569593D01*
X149837566Y-95563652D01*
X149821047Y-95552801D01*
X149815048Y-95548148D01*
X149805041Y-95540386D01*
X149797772Y-95537241D01*
X149797768Y-95537238D01*
X149764463Y-95522826D01*
X149753813Y-95517609D01*
X149715060Y-95496305D01*
X149695437Y-95491267D01*
X149676734Y-95484863D01*
X149665420Y-95479967D01*
X149665419Y-95479967D01*
X149658145Y-95476819D01*
X149650322Y-95475580D01*
X149650312Y-95475577D01*
X149614476Y-95469901D01*
X149602856Y-95467495D01*
X149567711Y-95458472D01*
X149567710Y-95458472D01*
X149560030Y-95456500D01*
X149552101Y-95456500D01*
X149544240Y-95455507D01*
X149544439Y-95453928D01*
X149485079Y-95436498D01*
X149465854Y-95420157D01*
X149465580Y-95420461D01*
X149460672Y-95416041D01*
X149456253Y-95411134D01*
X149301752Y-95298882D01*
X149295724Y-95296198D01*
X149295722Y-95296197D01*
X149133319Y-95223891D01*
X149133318Y-95223891D01*
X149127288Y-95221206D01*
X149033887Y-95201353D01*
X148946944Y-95182872D01*
X148946939Y-95182872D01*
X148940487Y-95181500D01*
X148749513Y-95181500D01*
X148743061Y-95182872D01*
X148743056Y-95182872D01*
X148656113Y-95201353D01*
X148562712Y-95221206D01*
X148556682Y-95223891D01*
X148556681Y-95223891D01*
X148394278Y-95296197D01*
X148394276Y-95296198D01*
X148388248Y-95298882D01*
X148233747Y-95411134D01*
X148229326Y-95416044D01*
X148229325Y-95416045D01*
X148120203Y-95537238D01*
X148105960Y-95553056D01*
X148010473Y-95718444D01*
X147951458Y-95900072D01*
X147931496Y-96090000D01*
X147932186Y-96096565D01*
X147947670Y-96243884D01*
X147951458Y-96279928D01*
X148010473Y-96461556D01*
X148013776Y-96467278D01*
X148013777Y-96467279D01*
X148030947Y-96497018D01*
X148105960Y-96626944D01*
X148110378Y-96631851D01*
X148110379Y-96631852D01*
X148196905Y-96727949D01*
X148233747Y-96768866D01*
X148388248Y-96881118D01*
X148394276Y-96883802D01*
X148394278Y-96883803D01*
X148556681Y-96956109D01*
X148562712Y-96958794D01*
X148656112Y-96978647D01*
X148743056Y-96997128D01*
X148743061Y-96997128D01*
X148749513Y-96998500D01*
X148940487Y-96998500D01*
X148946942Y-96997128D01*
X148946951Y-96997127D01*
X148979302Y-96990250D01*
X149050093Y-96995651D01*
X149106726Y-97038467D01*
X149131220Y-97105104D01*
X149131500Y-97113496D01*
X149131500Y-97382072D01*
X149131837Y-97385318D01*
X149131837Y-97385322D01*
X149136683Y-97432022D01*
X149142293Y-97486093D01*
X149197346Y-97651107D01*
X149288884Y-97799031D01*
X149294066Y-97804204D01*
X149395786Y-97905747D01*
X149429865Y-97968030D01*
X149424862Y-98038850D01*
X149395941Y-98083937D01*
X149293246Y-98186812D01*
X149293242Y-98186817D01*
X149288071Y-98191997D01*
X149284231Y-98198227D01*
X149284230Y-98198228D01*
X149201364Y-98332662D01*
X149196791Y-98340080D01*
X149142026Y-98505191D01*
X149131500Y-98607928D01*
X149131500Y-99207072D01*
X149131837Y-99210318D01*
X149131837Y-99210322D01*
X149140323Y-99292104D01*
X149142293Y-99311093D01*
X149144474Y-99317629D01*
X149144474Y-99317631D01*
X149188768Y-99450395D01*
X149197346Y-99476107D01*
X149288884Y-99624031D01*
X149294066Y-99629204D01*
X149351289Y-99686327D01*
X149385368Y-99748609D01*
X149380365Y-99819429D01*
X149337868Y-99876302D01*
X149271370Y-99901171D01*
X149262271Y-99901500D01*
X148283200Y-99901500D01*
X148215079Y-99881498D01*
X148195853Y-99865157D01*
X148195580Y-99865460D01*
X148190668Y-99861037D01*
X148186253Y-99856134D01*
X148031752Y-99743882D01*
X148025724Y-99741198D01*
X148025722Y-99741197D01*
X147863319Y-99668891D01*
X147863318Y-99668891D01*
X147857288Y-99666206D01*
X147761187Y-99645779D01*
X147676944Y-99627872D01*
X147676939Y-99627872D01*
X147670487Y-99626500D01*
X147479513Y-99626500D01*
X147473061Y-99627872D01*
X147473056Y-99627872D01*
X147388813Y-99645779D01*
X147292712Y-99666206D01*
X147286682Y-99668891D01*
X147286681Y-99668891D01*
X147124278Y-99741197D01*
X147124276Y-99741198D01*
X147118248Y-99743882D01*
X146963747Y-99856134D01*
X146959326Y-99861044D01*
X146959325Y-99861045D01*
X146911669Y-99913973D01*
X146835960Y-99998056D01*
X146740473Y-100163444D01*
X146681458Y-100345072D01*
X146661496Y-100535000D01*
X146662186Y-100541565D01*
X146678788Y-100699521D01*
X146681458Y-100724928D01*
X146740473Y-100906556D01*
X146835960Y-101071944D01*
X146963747Y-101213866D01*
X147118248Y-101326118D01*
X147124276Y-101328802D01*
X147124278Y-101328803D01*
X147286681Y-101401109D01*
X147292712Y-101403794D01*
X147367840Y-101419763D01*
X147473056Y-101442128D01*
X147473061Y-101442128D01*
X147479513Y-101443500D01*
X147670487Y-101443500D01*
X147676939Y-101442128D01*
X147676944Y-101442128D01*
X147782160Y-101419763D01*
X147857288Y-101403794D01*
X147863319Y-101401109D01*
X148025722Y-101328803D01*
X148025724Y-101328802D01*
X148031752Y-101326118D01*
X148186253Y-101213866D01*
X148190668Y-101208963D01*
X148195580Y-101204540D01*
X148196705Y-101205789D01*
X148250014Y-101172949D01*
X148283200Y-101168500D01*
X149028221Y-101168500D01*
X149096342Y-101188502D01*
X149142835Y-101242158D01*
X149152939Y-101312432D01*
X149123445Y-101377012D01*
X149063719Y-101415396D01*
X149041829Y-101419763D01*
X149009684Y-101423255D01*
X148873295Y-101474385D01*
X148756739Y-101561739D01*
X148669385Y-101678295D01*
X148618255Y-101814684D01*
X148611500Y-101876866D01*
X148611500Y-102273134D01*
X148611869Y-102276529D01*
X148611869Y-102276533D01*
X148615656Y-102311393D01*
X148615656Y-102338606D01*
X148611500Y-102376866D01*
X148611500Y-102773134D01*
X148611869Y-102776529D01*
X148611869Y-102776533D01*
X148615656Y-102811393D01*
X148615656Y-102838606D01*
X148611500Y-102876866D01*
X148611500Y-103273134D01*
X148615909Y-103313720D01*
X148615909Y-103340933D01*
X148612369Y-103373517D01*
X148612000Y-103380328D01*
X148612000Y-103406885D01*
X148616475Y-103422124D01*
X148642170Y-103444389D01*
X148641712Y-103444918D01*
X148654100Y-103451682D01*
X148669207Y-103471839D01*
X148669385Y-103471705D01*
X148700261Y-103512902D01*
X148708997Y-103524559D01*
X148733845Y-103591065D01*
X148718792Y-103660448D01*
X148668618Y-103710678D01*
X148643670Y-103721020D01*
X148614877Y-103729475D01*
X148613672Y-103730865D01*
X148612001Y-103738548D01*
X148612001Y-103769669D01*
X148612371Y-103776493D01*
X148616161Y-103811393D01*
X148616161Y-103838603D01*
X148612369Y-103873510D01*
X148612000Y-103880329D01*
X148612000Y-103906885D01*
X148616475Y-103922124D01*
X148617865Y-103923329D01*
X148625548Y-103925000D01*
X149651885Y-103925000D01*
X149667124Y-103920525D01*
X149668329Y-103919135D01*
X149670000Y-103911452D01*
X149670000Y-103859500D01*
X149690002Y-103791379D01*
X149743658Y-103744886D01*
X149796000Y-103733500D01*
X149844000Y-103733500D01*
X149912121Y-103753502D01*
X149958614Y-103807158D01*
X149970000Y-103859500D01*
X149970000Y-104714884D01*
X149974475Y-104730123D01*
X149975865Y-104731328D01*
X149983548Y-104732999D01*
X150085600Y-104732999D01*
X150153721Y-104753001D01*
X150200214Y-104806657D01*
X150211600Y-104858999D01*
X150211600Y-118781833D01*
X150211073Y-118793016D01*
X150209398Y-118800509D01*
X150209647Y-118808435D01*
X150209647Y-118808436D01*
X150211538Y-118868586D01*
X150211600Y-118872545D01*
X150211600Y-118900456D01*
X150212097Y-118904390D01*
X150212097Y-118904391D01*
X150212105Y-118904456D01*
X150213038Y-118916293D01*
X150214427Y-118960489D01*
X150220078Y-118979939D01*
X150224087Y-118999300D01*
X150226626Y-119019397D01*
X150229545Y-119026768D01*
X150229545Y-119026770D01*
X150242904Y-119060512D01*
X150246749Y-119071742D01*
X150259082Y-119114193D01*
X150263115Y-119121012D01*
X150263117Y-119121017D01*
X150269393Y-119131628D01*
X150278088Y-119149376D01*
X150285548Y-119168217D01*
X150290210Y-119174633D01*
X150290210Y-119174634D01*
X150311536Y-119203987D01*
X150318052Y-119213907D01*
X150334682Y-119242026D01*
X150340558Y-119251962D01*
X150354879Y-119266283D01*
X150367719Y-119281316D01*
X150379628Y-119297707D01*
X150395467Y-119310810D01*
X150413705Y-119325898D01*
X150422484Y-119333888D01*
X151167778Y-120079182D01*
X151201804Y-120141494D01*
X151203992Y-120155103D01*
X151205992Y-120174127D01*
X151217363Y-120282313D01*
X151221358Y-120320328D01*
X151280373Y-120501956D01*
X151283676Y-120507678D01*
X151283677Y-120507679D01*
X151291568Y-120521347D01*
X151350411Y-120623264D01*
X151358918Y-120637999D01*
X151375656Y-120706994D01*
X151352436Y-120774086D01*
X151296629Y-120817973D01*
X151223602Y-120824246D01*
X151131044Y-120804572D01*
X151131039Y-120804572D01*
X151124587Y-120803200D01*
X150933613Y-120803200D01*
X150927161Y-120804572D01*
X150927156Y-120804572D01*
X150840212Y-120823053D01*
X150746812Y-120842906D01*
X150740782Y-120845591D01*
X150740781Y-120845591D01*
X150578378Y-120917897D01*
X150578376Y-120917898D01*
X150572348Y-120920582D01*
X150417847Y-121032834D01*
X150413426Y-121037744D01*
X150413425Y-121037745D01*
X150351530Y-121106487D01*
X150290060Y-121174756D01*
X150194573Y-121340144D01*
X150135558Y-121521772D01*
X150134868Y-121528333D01*
X150134868Y-121528335D01*
X150118193Y-121686992D01*
X150091180Y-121752649D01*
X150081978Y-121762917D01*
X148567264Y-123277631D01*
X148504952Y-123311657D01*
X148434137Y-123306592D01*
X148377301Y-123264045D01*
X148366483Y-123245612D01*
X148366427Y-123245644D01*
X148274241Y-123085974D01*
X148270940Y-123080256D01*
X148143153Y-122938334D01*
X147988652Y-122826082D01*
X147982624Y-122823398D01*
X147982622Y-122823397D01*
X147820219Y-122751091D01*
X147820218Y-122751091D01*
X147814188Y-122748406D01*
X147720788Y-122728553D01*
X147633844Y-122710072D01*
X147633839Y-122710072D01*
X147627387Y-122708700D01*
X147436413Y-122708700D01*
X147429961Y-122710072D01*
X147429956Y-122710072D01*
X147343012Y-122728553D01*
X147249612Y-122748406D01*
X147243582Y-122751091D01*
X147243581Y-122751091D01*
X147081178Y-122823397D01*
X147081176Y-122823398D01*
X147075148Y-122826082D01*
X146920647Y-122938334D01*
X146792860Y-123080256D01*
X146697373Y-123245644D01*
X146638358Y-123427272D01*
X146637668Y-123433833D01*
X146637668Y-123433835D01*
X146620993Y-123592493D01*
X146593980Y-123658150D01*
X146584778Y-123668418D01*
X139910100Y-130343095D01*
X139847788Y-130377121D01*
X139821005Y-130380000D01*
X139250094Y-130380000D01*
X139181973Y-130359998D01*
X139135480Y-130306342D01*
X139125376Y-130236068D01*
X139154870Y-130171488D01*
X139160999Y-130164905D01*
X140540499Y-128785405D01*
X140602811Y-128751379D01*
X140629594Y-128748500D01*
X140685487Y-128748500D01*
X140691939Y-128747128D01*
X140691944Y-128747128D01*
X140778888Y-128728647D01*
X140872288Y-128708794D01*
X140878319Y-128706109D01*
X141040722Y-128633803D01*
X141040724Y-128633802D01*
X141046752Y-128631118D01*
X141059206Y-128622070D01*
X141131513Y-128569535D01*
X141201253Y-128518866D01*
X141209597Y-128509599D01*
X141324621Y-128381852D01*
X141324622Y-128381851D01*
X141329040Y-128376944D01*
X141424527Y-128211556D01*
X141483542Y-128029928D01*
X141494659Y-127924161D01*
X141502814Y-127846565D01*
X141503504Y-127840000D01*
X141489154Y-127703466D01*
X141484232Y-127656635D01*
X141484232Y-127656633D01*
X141483542Y-127650072D01*
X141424527Y-127468444D01*
X141394302Y-127416092D01*
X141332341Y-127308774D01*
X141329040Y-127303056D01*
X141282054Y-127250872D01*
X141205675Y-127166045D01*
X141205674Y-127166044D01*
X141201253Y-127161134D01*
X141046752Y-127048882D01*
X141040724Y-127046198D01*
X141040722Y-127046197D01*
X140878319Y-126973891D01*
X140878318Y-126973891D01*
X140872288Y-126971206D01*
X140778887Y-126951353D01*
X140691944Y-126932872D01*
X140691939Y-126932872D01*
X140685487Y-126931500D01*
X140494513Y-126931500D01*
X140488061Y-126932872D01*
X140488056Y-126932872D01*
X140401113Y-126951353D01*
X140307712Y-126971206D01*
X140301682Y-126973891D01*
X140301681Y-126973891D01*
X140139278Y-127046197D01*
X140139276Y-127046198D01*
X140133248Y-127048882D01*
X139978747Y-127161134D01*
X139974326Y-127166044D01*
X139974325Y-127166045D01*
X139897947Y-127250872D01*
X139850960Y-127303056D01*
X139847659Y-127308774D01*
X139785699Y-127416092D01*
X139755473Y-127468444D01*
X139696458Y-127650072D01*
X139695768Y-127656633D01*
X139695768Y-127656635D01*
X139690846Y-127703466D01*
X139679388Y-127812489D01*
X139679093Y-127815292D01*
X139652080Y-127880949D01*
X139642878Y-127891217D01*
X137363747Y-130170348D01*
X137355461Y-130177888D01*
X137348982Y-130182000D01*
X137343557Y-130187777D01*
X137302357Y-130231651D01*
X137299602Y-130234493D01*
X137279865Y-130254230D01*
X137277385Y-130257427D01*
X137269682Y-130266447D01*
X137239414Y-130298679D01*
X137235596Y-130305624D01*
X137235595Y-130305625D01*
X137230603Y-130314705D01*
X137180255Y-130364762D01*
X137120190Y-130380000D01*
X136259500Y-130380000D01*
X136191379Y-130359998D01*
X136144886Y-130306342D01*
X136133500Y-130254000D01*
X136133500Y-129965294D01*
X136153502Y-129897173D01*
X136170405Y-129876199D01*
X144355500Y-121691105D01*
X144417812Y-121657079D01*
X144444595Y-121654200D01*
X145471200Y-121654200D01*
X145539321Y-121674202D01*
X145558547Y-121690543D01*
X145558820Y-121690240D01*
X145563732Y-121694663D01*
X145568147Y-121699566D01*
X145722648Y-121811818D01*
X145728676Y-121814502D01*
X145728678Y-121814503D01*
X145891081Y-121886809D01*
X145897112Y-121889494D01*
X145983357Y-121907826D01*
X146077456Y-121927828D01*
X146077461Y-121927828D01*
X146083913Y-121929200D01*
X146274887Y-121929200D01*
X146281339Y-121927828D01*
X146281344Y-121927828D01*
X146375443Y-121907826D01*
X146461688Y-121889494D01*
X146467719Y-121886809D01*
X146630122Y-121814503D01*
X146630124Y-121814502D01*
X146636152Y-121811818D01*
X146790653Y-121699566D01*
X146813491Y-121674202D01*
X146914021Y-121562552D01*
X146914022Y-121562551D01*
X146918440Y-121557644D01*
X147013927Y-121392256D01*
X147072942Y-121210628D01*
X147087666Y-121070542D01*
X147092214Y-121027265D01*
X147092904Y-121020700D01*
X147074477Y-120845374D01*
X147073632Y-120837335D01*
X147073632Y-120837333D01*
X147072942Y-120830772D01*
X147013927Y-120649144D01*
X147007493Y-120637999D01*
X146959704Y-120555228D01*
X146918440Y-120483756D01*
X146907145Y-120471211D01*
X146795075Y-120346745D01*
X146795074Y-120346744D01*
X146790653Y-120341834D01*
X146636152Y-120229582D01*
X146630124Y-120226898D01*
X146630122Y-120226897D01*
X146467719Y-120154591D01*
X146467718Y-120154591D01*
X146461688Y-120151906D01*
X146353633Y-120128938D01*
X146281344Y-120113572D01*
X146281339Y-120113572D01*
X146274887Y-120112200D01*
X146083913Y-120112200D01*
X146077461Y-120113572D01*
X146077456Y-120113572D01*
X146005167Y-120128938D01*
X145897112Y-120151906D01*
X145891082Y-120154591D01*
X145891081Y-120154591D01*
X145728678Y-120226897D01*
X145728676Y-120226898D01*
X145722648Y-120229582D01*
X145717307Y-120233462D01*
X145717306Y-120233463D01*
X145601630Y-120317507D01*
X145568147Y-120341834D01*
X145563732Y-120346737D01*
X145558820Y-120351160D01*
X145557695Y-120349911D01*
X145504386Y-120382751D01*
X145471200Y-120387200D01*
X144208767Y-120387200D01*
X144197584Y-120386673D01*
X144190091Y-120384998D01*
X144182165Y-120385247D01*
X144182164Y-120385247D01*
X144122014Y-120387138D01*
X144118055Y-120387200D01*
X144090144Y-120387200D01*
X144086210Y-120387697D01*
X144086209Y-120387697D01*
X144086144Y-120387705D01*
X144074307Y-120388638D01*
X144042049Y-120389652D01*
X144038030Y-120389778D01*
X144030111Y-120390027D01*
X144010657Y-120395679D01*
X143991300Y-120399687D01*
X143979070Y-120401232D01*
X143979069Y-120401232D01*
X143971203Y-120402226D01*
X143963832Y-120405145D01*
X143963830Y-120405145D01*
X143930088Y-120418504D01*
X143918858Y-120422349D01*
X143884017Y-120432471D01*
X143884016Y-120432471D01*
X143876407Y-120434682D01*
X143869588Y-120438715D01*
X143869583Y-120438717D01*
X143858972Y-120444993D01*
X143841224Y-120453688D01*
X143822383Y-120461148D01*
X143815967Y-120465810D01*
X143815966Y-120465810D01*
X143786613Y-120487136D01*
X143776693Y-120493652D01*
X143745465Y-120512120D01*
X143745462Y-120512122D01*
X143738638Y-120516158D01*
X143724317Y-120530479D01*
X143709284Y-120543319D01*
X143692893Y-120555228D01*
X143687842Y-120561334D01*
X143664702Y-120589305D01*
X143656712Y-120598084D01*
X135107747Y-129147048D01*
X135099461Y-129154588D01*
X135092982Y-129158700D01*
X135087557Y-129164477D01*
X135046357Y-129208351D01*
X135043602Y-129211193D01*
X135023865Y-129230930D01*
X135021385Y-129234127D01*
X135013682Y-129243147D01*
X134983414Y-129275379D01*
X134979595Y-129282325D01*
X134979593Y-129282328D01*
X134973652Y-129293134D01*
X134962801Y-129309653D01*
X134950386Y-129325659D01*
X134947241Y-129332928D01*
X134947238Y-129332932D01*
X134932826Y-129366237D01*
X134927609Y-129376887D01*
X134906305Y-129415640D01*
X134901565Y-129434103D01*
X134901267Y-129435262D01*
X134894863Y-129453966D01*
X134886819Y-129472555D01*
X134885580Y-129480378D01*
X134885577Y-129480388D01*
X134879901Y-129516224D01*
X134877495Y-129527844D01*
X134866500Y-129570670D01*
X134866500Y-129590924D01*
X134864949Y-129610634D01*
X134861780Y-129630643D01*
X134862526Y-129638535D01*
X134865941Y-129674661D01*
X134866500Y-129686519D01*
X134866500Y-130254000D01*
X134846498Y-130322121D01*
X134792842Y-130368614D01*
X134740500Y-130380000D01*
X119761000Y-130380000D01*
X119692879Y-130359998D01*
X119646386Y-130306342D01*
X119635000Y-130254000D01*
X119635000Y-113235000D01*
X139041496Y-113235000D01*
X139061458Y-113424928D01*
X139120473Y-113606556D01*
X139123776Y-113612278D01*
X139123777Y-113612279D01*
X139144069Y-113647425D01*
X139215960Y-113771944D01*
X139220378Y-113776851D01*
X139220379Y-113776852D01*
X139326631Y-113894857D01*
X139343747Y-113913866D01*
X139498248Y-114026118D01*
X139504276Y-114028802D01*
X139504278Y-114028803D01*
X139538389Y-114043990D01*
X139672712Y-114103794D01*
X139759009Y-114122137D01*
X139853056Y-114142128D01*
X139853061Y-114142128D01*
X139859513Y-114143500D01*
X140050487Y-114143500D01*
X140056939Y-114142128D01*
X140056944Y-114142128D01*
X140150991Y-114122137D01*
X140237288Y-114103794D01*
X140371611Y-114043990D01*
X140405722Y-114028803D01*
X140405724Y-114028802D01*
X140411752Y-114026118D01*
X140566253Y-113913866D01*
X140583369Y-113894857D01*
X140689621Y-113776852D01*
X140689622Y-113776851D01*
X140694040Y-113771944D01*
X140765931Y-113647425D01*
X140786223Y-113612279D01*
X140786224Y-113612278D01*
X140789527Y-113606556D01*
X140848542Y-113424928D01*
X140865907Y-113259706D01*
X140892920Y-113194050D01*
X140902122Y-113183782D01*
X143715499Y-110370405D01*
X143777811Y-110336379D01*
X143804594Y-110333500D01*
X143860487Y-110333500D01*
X143866939Y-110332128D01*
X143866944Y-110332128D01*
X143953887Y-110313647D01*
X144047288Y-110293794D01*
X144058215Y-110288929D01*
X144215722Y-110218803D01*
X144215724Y-110218802D01*
X144221752Y-110216118D01*
X144265096Y-110184627D01*
X144277157Y-110175864D01*
X144376253Y-110103866D01*
X144504040Y-109961944D01*
X144599527Y-109796556D01*
X144658542Y-109614928D01*
X144675907Y-109449706D01*
X144702920Y-109384050D01*
X144712122Y-109373782D01*
X146890500Y-107195405D01*
X146952812Y-107161379D01*
X146979595Y-107158500D01*
X147035487Y-107158500D01*
X147041939Y-107157128D01*
X147041944Y-107157128D01*
X147128887Y-107138647D01*
X147222288Y-107118794D01*
X147228319Y-107116109D01*
X147390722Y-107043803D01*
X147390724Y-107043802D01*
X147396752Y-107041118D01*
X147551253Y-106928866D01*
X147679040Y-106786944D01*
X147774527Y-106621556D01*
X147833542Y-106439928D01*
X147853504Y-106250000D01*
X147833542Y-106060072D01*
X147774527Y-105878444D01*
X147679040Y-105713056D01*
X147551253Y-105571134D01*
X147396752Y-105458882D01*
X147390724Y-105456198D01*
X147390722Y-105456197D01*
X147228319Y-105383891D01*
X147228318Y-105383891D01*
X147222288Y-105381206D01*
X147128888Y-105361353D01*
X147041944Y-105342872D01*
X147041939Y-105342872D01*
X147035487Y-105341500D01*
X146844513Y-105341500D01*
X146838061Y-105342872D01*
X146838056Y-105342872D01*
X146751112Y-105361353D01*
X146657712Y-105381206D01*
X146651682Y-105383891D01*
X146651681Y-105383891D01*
X146489278Y-105456197D01*
X146489276Y-105456198D01*
X146483248Y-105458882D01*
X146328747Y-105571134D01*
X146200960Y-105713056D01*
X146105473Y-105878444D01*
X146046458Y-106060072D01*
X146045768Y-106066633D01*
X146045768Y-106066635D01*
X146029093Y-106225293D01*
X146002080Y-106290950D01*
X145992878Y-106301218D01*
X143814500Y-108479595D01*
X143752188Y-108513621D01*
X143725405Y-108516500D01*
X143669513Y-108516500D01*
X143663061Y-108517872D01*
X143663056Y-108517872D01*
X143586533Y-108534138D01*
X143482712Y-108556206D01*
X143476682Y-108558891D01*
X143476681Y-108558891D01*
X143314278Y-108631197D01*
X143314276Y-108631198D01*
X143308248Y-108633882D01*
X143153747Y-108746134D01*
X143149326Y-108751044D01*
X143149325Y-108751045D01*
X143112889Y-108791512D01*
X143025960Y-108888056D01*
X142930473Y-109053444D01*
X142871458Y-109235072D01*
X142870768Y-109241633D01*
X142870768Y-109241635D01*
X142854093Y-109400293D01*
X142827080Y-109465950D01*
X142817878Y-109476218D01*
X140004500Y-112289595D01*
X139942188Y-112323621D01*
X139915405Y-112326500D01*
X139859513Y-112326500D01*
X139853061Y-112327872D01*
X139853056Y-112327872D01*
X139794669Y-112340283D01*
X139672712Y-112366206D01*
X139666682Y-112368891D01*
X139666681Y-112368891D01*
X139504278Y-112441197D01*
X139504276Y-112441198D01*
X139498248Y-112443882D01*
X139343747Y-112556134D01*
X139339326Y-112561044D01*
X139339325Y-112561045D01*
X139305601Y-112598500D01*
X139215960Y-112698056D01*
X139120473Y-112863444D01*
X139061458Y-113045072D01*
X139041496Y-113235000D01*
X119635000Y-113235000D01*
X119635000Y-104269669D01*
X148612001Y-104269669D01*
X148612371Y-104276490D01*
X148617895Y-104327352D01*
X148621521Y-104342604D01*
X148666676Y-104463054D01*
X148675214Y-104478649D01*
X148751715Y-104580724D01*
X148764276Y-104593285D01*
X148866351Y-104669786D01*
X148881946Y-104678324D01*
X149002394Y-104723478D01*
X149017649Y-104727105D01*
X149068514Y-104732631D01*
X149075328Y-104733000D01*
X149651885Y-104733000D01*
X149667124Y-104728525D01*
X149668329Y-104727135D01*
X149670000Y-104719452D01*
X149670000Y-104243115D01*
X149665525Y-104227876D01*
X149664135Y-104226671D01*
X149656452Y-104225000D01*
X148630116Y-104225000D01*
X148614877Y-104229475D01*
X148613672Y-104230865D01*
X148612001Y-104238548D01*
X148612001Y-104269669D01*
X119635000Y-104269669D01*
X119635000Y-97052817D01*
X130987514Y-97052817D01*
X130988095Y-97057837D01*
X130988095Y-97057841D01*
X131003923Y-97194631D01*
X131015415Y-97293956D01*
X131016791Y-97298820D01*
X131016792Y-97298823D01*
X131062476Y-97460266D01*
X131081510Y-97527532D01*
X131083644Y-97532108D01*
X131083646Y-97532114D01*
X131140446Y-97653922D01*
X131184099Y-97747536D01*
X131320544Y-97948307D01*
X131487332Y-98124681D01*
X131491358Y-98127759D01*
X131491359Y-98127760D01*
X131676154Y-98269047D01*
X131676158Y-98269050D01*
X131680174Y-98272120D01*
X131894109Y-98386831D01*
X132123631Y-98465862D01*
X132222978Y-98483022D01*
X132358926Y-98506504D01*
X132358932Y-98506505D01*
X132362836Y-98507179D01*
X132366797Y-98507359D01*
X132366798Y-98507359D01*
X132390506Y-98508436D01*
X132390525Y-98508436D01*
X132391925Y-98508500D01*
X132561001Y-98508500D01*
X132563509Y-98508298D01*
X132563514Y-98508298D01*
X132736924Y-98494346D01*
X132736929Y-98494345D01*
X132741965Y-98493940D01*
X132746873Y-98492734D01*
X132746876Y-98492734D01*
X132972792Y-98437244D01*
X132977706Y-98436037D01*
X132982358Y-98434062D01*
X132982362Y-98434061D01*
X133118171Y-98376413D01*
X133201156Y-98341188D01*
X133307037Y-98274511D01*
X133402288Y-98214528D01*
X133402291Y-98214526D01*
X133406567Y-98211833D01*
X133505422Y-98124681D01*
X133584858Y-98054650D01*
X133584861Y-98054647D01*
X133588655Y-98051302D01*
X133598883Y-98038850D01*
X133739526Y-97867628D01*
X133739528Y-97867625D01*
X133742734Y-97863722D01*
X133864841Y-97653922D01*
X133915224Y-97522669D01*
X133950020Y-97432022D01*
X133950021Y-97432018D01*
X133951833Y-97427298D01*
X133952868Y-97422345D01*
X134000440Y-97194631D01*
X134000440Y-97194627D01*
X134001474Y-97189680D01*
X134012486Y-96947183D01*
X133997235Y-96815373D01*
X133985167Y-96711071D01*
X133985166Y-96711067D01*
X133984585Y-96706044D01*
X133982885Y-96700034D01*
X133919866Y-96477331D01*
X133918490Y-96472468D01*
X133916356Y-96467892D01*
X133916354Y-96467886D01*
X133818038Y-96257046D01*
X133818036Y-96257042D01*
X133815901Y-96252464D01*
X133809518Y-96243071D01*
X133710446Y-96097293D01*
X133679456Y-96051693D01*
X133512668Y-95875319D01*
X133508641Y-95872240D01*
X133323846Y-95730953D01*
X133323842Y-95730950D01*
X133319826Y-95727880D01*
X133313950Y-95724729D01*
X133110352Y-95615561D01*
X133105891Y-95613169D01*
X132876369Y-95534138D01*
X132725136Y-95508016D01*
X132641074Y-95493496D01*
X132641068Y-95493495D01*
X132637164Y-95492821D01*
X132633203Y-95492641D01*
X132633202Y-95492641D01*
X132609494Y-95491564D01*
X132609475Y-95491564D01*
X132608075Y-95491500D01*
X132438999Y-95491500D01*
X132436491Y-95491702D01*
X132436486Y-95491702D01*
X132263076Y-95505654D01*
X132263071Y-95505655D01*
X132258035Y-95506060D01*
X132253127Y-95507266D01*
X132253124Y-95507266D01*
X132038730Y-95559926D01*
X132022294Y-95563963D01*
X132017642Y-95565938D01*
X132017638Y-95565939D01*
X131890590Y-95619868D01*
X131798844Y-95658812D01*
X131737025Y-95697742D01*
X131597712Y-95785472D01*
X131597709Y-95785474D01*
X131593433Y-95788167D01*
X131589639Y-95791512D01*
X131415142Y-95945350D01*
X131415139Y-95945353D01*
X131411345Y-95948698D01*
X131408135Y-95952606D01*
X131408134Y-95952607D01*
X131289508Y-96097026D01*
X131257266Y-96136278D01*
X131135159Y-96346078D01*
X131133346Y-96350801D01*
X131051764Y-96563332D01*
X131048167Y-96572702D01*
X131047133Y-96577652D01*
X131047132Y-96577655D01*
X131004917Y-96779729D01*
X130998526Y-96810320D01*
X130987514Y-97052817D01*
X119635000Y-97052817D01*
X119635000Y-86197966D01*
X120208257Y-86197966D01*
X120238565Y-86332446D01*
X120241645Y-86342275D01*
X120321770Y-86539603D01*
X120326413Y-86548794D01*
X120437694Y-86730388D01*
X120443777Y-86738699D01*
X120583213Y-86899667D01*
X120590580Y-86906883D01*
X120754434Y-87042916D01*
X120762881Y-87048831D01*
X120946756Y-87156279D01*
X120956042Y-87160729D01*
X121155001Y-87236703D01*
X121164899Y-87239579D01*
X121268250Y-87260606D01*
X121282299Y-87259410D01*
X121286000Y-87249065D01*
X121286000Y-87248517D01*
X121794000Y-87248517D01*
X121798064Y-87262359D01*
X121811478Y-87264393D01*
X121818184Y-87263534D01*
X121828262Y-87261392D01*
X122032255Y-87200191D01*
X122041842Y-87196433D01*
X122233095Y-87102739D01*
X122241945Y-87097464D01*
X122415328Y-86973792D01*
X122423193Y-86967145D01*
X122527897Y-86862805D01*
X122590268Y-86828889D01*
X122661075Y-86834077D01*
X122717837Y-86876723D01*
X122734819Y-86907826D01*
X122779385Y-87026705D01*
X122866739Y-87143261D01*
X122983295Y-87230615D01*
X123119684Y-87281745D01*
X123181866Y-87288500D01*
X124978134Y-87288500D01*
X125040316Y-87281745D01*
X125176705Y-87230615D01*
X125293261Y-87143261D01*
X125380615Y-87026705D01*
X125431745Y-86890316D01*
X125438500Y-86828134D01*
X125438500Y-86348134D01*
X126691500Y-86348134D01*
X126698255Y-86410316D01*
X126749385Y-86546705D01*
X126836739Y-86663261D01*
X126953295Y-86750615D01*
X127089684Y-86801745D01*
X127151866Y-86808500D01*
X128848134Y-86808500D01*
X128910316Y-86801745D01*
X129046705Y-86750615D01*
X129053891Y-86745229D01*
X129061033Y-86741319D01*
X129130390Y-86726149D01*
X129196938Y-86750884D01*
X129210639Y-86762743D01*
X138930143Y-96482247D01*
X138937687Y-96490537D01*
X138941800Y-96497018D01*
X138947577Y-96502443D01*
X138991467Y-96543658D01*
X138994309Y-96546413D01*
X139014030Y-96566134D01*
X139017225Y-96568612D01*
X139026247Y-96576318D01*
X139058479Y-96606586D01*
X139065428Y-96610406D01*
X139076232Y-96616346D01*
X139092756Y-96627199D01*
X139108759Y-96639613D01*
X139149343Y-96657176D01*
X139159973Y-96662383D01*
X139198740Y-96683695D01*
X139206417Y-96685666D01*
X139206422Y-96685668D01*
X139218358Y-96688732D01*
X139237066Y-96695137D01*
X139255655Y-96703181D01*
X139263480Y-96704420D01*
X139263482Y-96704421D01*
X139299319Y-96710097D01*
X139310940Y-96712504D01*
X139342759Y-96720673D01*
X139353770Y-96723500D01*
X139374031Y-96723500D01*
X139393740Y-96725051D01*
X139413743Y-96728219D01*
X139421635Y-96727473D01*
X139426862Y-96726979D01*
X139457754Y-96724059D01*
X139469611Y-96723500D01*
X145596800Y-96723500D01*
X145664921Y-96743502D01*
X145684147Y-96759843D01*
X145684420Y-96759540D01*
X145689332Y-96763963D01*
X145693747Y-96768866D01*
X145848248Y-96881118D01*
X145854276Y-96883802D01*
X145854278Y-96883803D01*
X146016681Y-96956109D01*
X146022712Y-96958794D01*
X146116112Y-96978647D01*
X146203056Y-96997128D01*
X146203061Y-96997128D01*
X146209513Y-96998500D01*
X146400487Y-96998500D01*
X146406939Y-96997128D01*
X146406944Y-96997128D01*
X146493888Y-96978647D01*
X146587288Y-96958794D01*
X146593319Y-96956109D01*
X146755722Y-96883803D01*
X146755724Y-96883802D01*
X146761752Y-96881118D01*
X146916253Y-96768866D01*
X146953095Y-96727949D01*
X147039621Y-96631852D01*
X147039622Y-96631851D01*
X147044040Y-96626944D01*
X147119053Y-96497018D01*
X147136223Y-96467279D01*
X147136224Y-96467278D01*
X147139527Y-96461556D01*
X147198542Y-96279928D01*
X147202331Y-96243884D01*
X147217814Y-96096565D01*
X147218504Y-96090000D01*
X147198542Y-95900072D01*
X147139527Y-95718444D01*
X147044040Y-95553056D01*
X147029798Y-95537238D01*
X146920675Y-95416045D01*
X146920674Y-95416044D01*
X146916253Y-95411134D01*
X146761752Y-95298882D01*
X146755724Y-95296198D01*
X146755722Y-95296197D01*
X146593319Y-95223891D01*
X146593318Y-95223891D01*
X146587288Y-95221206D01*
X146493887Y-95201353D01*
X146406944Y-95182872D01*
X146406939Y-95182872D01*
X146400487Y-95181500D01*
X146209513Y-95181500D01*
X146203061Y-95182872D01*
X146203056Y-95182872D01*
X146116113Y-95201353D01*
X146022712Y-95221206D01*
X146016682Y-95223891D01*
X146016681Y-95223891D01*
X145854278Y-95296197D01*
X145854276Y-95296198D01*
X145848248Y-95298882D01*
X145693747Y-95411134D01*
X145689332Y-95416037D01*
X145684420Y-95420460D01*
X145683295Y-95419211D01*
X145629986Y-95452051D01*
X145596800Y-95456500D01*
X139748395Y-95456500D01*
X139680274Y-95436498D01*
X139659300Y-95419595D01*
X131106082Y-86866377D01*
X131072056Y-86804065D01*
X131077121Y-86733250D01*
X131119668Y-86676414D01*
X131141927Y-86663087D01*
X131191762Y-86639849D01*
X131191767Y-86639846D01*
X131196749Y-86637523D01*
X131338458Y-86538297D01*
X131379789Y-86509357D01*
X131379792Y-86509355D01*
X131384300Y-86506198D01*
X131546198Y-86344300D01*
X131554499Y-86332446D01*
X131648662Y-86197966D01*
X131677523Y-86156749D01*
X131679846Y-86151767D01*
X131679849Y-86151762D01*
X131695805Y-86117543D01*
X131742722Y-86064258D01*
X131810999Y-86044797D01*
X131878959Y-86065339D01*
X131924195Y-86117543D01*
X131940151Y-86151762D01*
X131940154Y-86151767D01*
X131942477Y-86156749D01*
X131971338Y-86197966D01*
X132065502Y-86332446D01*
X132073802Y-86344300D01*
X132235700Y-86506198D01*
X132240208Y-86509355D01*
X132240211Y-86509357D01*
X132281542Y-86538297D01*
X132423251Y-86637523D01*
X132428233Y-86639846D01*
X132428238Y-86639849D01*
X132613311Y-86726149D01*
X132630757Y-86734284D01*
X132636065Y-86735706D01*
X132636067Y-86735707D01*
X132846598Y-86792119D01*
X132846600Y-86792119D01*
X132851913Y-86793543D01*
X133080000Y-86813498D01*
X133308087Y-86793543D01*
X133313400Y-86792119D01*
X133313402Y-86792119D01*
X133523933Y-86735707D01*
X133523935Y-86735706D01*
X133529243Y-86734284D01*
X133546689Y-86726149D01*
X133731762Y-86639849D01*
X133731767Y-86639846D01*
X133736749Y-86637523D01*
X133878458Y-86538297D01*
X133919789Y-86509357D01*
X133919792Y-86509355D01*
X133924300Y-86506198D01*
X134086198Y-86344300D01*
X134094499Y-86332446D01*
X134188662Y-86197966D01*
X134217523Y-86156749D01*
X134219846Y-86151767D01*
X134219849Y-86151762D01*
X134235805Y-86117543D01*
X134282722Y-86064258D01*
X134350999Y-86044797D01*
X134418959Y-86065339D01*
X134464195Y-86117543D01*
X134480151Y-86151762D01*
X134480154Y-86151767D01*
X134482477Y-86156749D01*
X134511338Y-86197966D01*
X134605502Y-86332446D01*
X134613802Y-86344300D01*
X134775700Y-86506198D01*
X134780208Y-86509355D01*
X134780211Y-86509357D01*
X134821542Y-86538297D01*
X134963251Y-86637523D01*
X134968233Y-86639846D01*
X134968238Y-86639849D01*
X135153311Y-86726149D01*
X135170757Y-86734284D01*
X135176065Y-86735706D01*
X135176067Y-86735707D01*
X135386598Y-86792119D01*
X135386600Y-86792119D01*
X135391913Y-86793543D01*
X135620000Y-86813498D01*
X135848087Y-86793543D01*
X135853400Y-86792119D01*
X135853402Y-86792119D01*
X136063933Y-86735707D01*
X136063935Y-86735706D01*
X136069243Y-86734284D01*
X136086689Y-86726149D01*
X136271762Y-86639849D01*
X136271767Y-86639846D01*
X136276749Y-86637523D01*
X136418458Y-86538297D01*
X136459789Y-86509357D01*
X136459792Y-86509355D01*
X136464300Y-86506198D01*
X136626198Y-86344300D01*
X136634499Y-86332446D01*
X136728662Y-86197966D01*
X136757523Y-86156749D01*
X136759846Y-86151767D01*
X136759849Y-86151762D01*
X136775805Y-86117543D01*
X136822722Y-86064258D01*
X136890999Y-86044797D01*
X136958959Y-86065339D01*
X137004195Y-86117543D01*
X137020151Y-86151762D01*
X137020154Y-86151767D01*
X137022477Y-86156749D01*
X137051338Y-86197966D01*
X137145502Y-86332446D01*
X137153802Y-86344300D01*
X137315700Y-86506198D01*
X137320208Y-86509355D01*
X137320211Y-86509357D01*
X137361542Y-86538297D01*
X137503251Y-86637523D01*
X137508233Y-86639846D01*
X137508238Y-86639849D01*
X137693311Y-86726149D01*
X137710757Y-86734284D01*
X137716065Y-86735706D01*
X137716067Y-86735707D01*
X137926598Y-86792119D01*
X137926600Y-86792119D01*
X137931913Y-86793543D01*
X138160000Y-86813498D01*
X138388087Y-86793543D01*
X138393400Y-86792119D01*
X138393402Y-86792119D01*
X138603933Y-86735707D01*
X138603935Y-86735706D01*
X138609243Y-86734284D01*
X138626689Y-86726149D01*
X138811762Y-86639849D01*
X138811767Y-86639846D01*
X138816749Y-86637523D01*
X138958458Y-86538297D01*
X138999789Y-86509357D01*
X138999792Y-86509355D01*
X139004300Y-86506198D01*
X139166198Y-86344300D01*
X139174499Y-86332446D01*
X139268662Y-86197966D01*
X139297523Y-86156749D01*
X139299846Y-86151767D01*
X139299849Y-86151762D01*
X139315805Y-86117543D01*
X139362722Y-86064258D01*
X139430999Y-86044797D01*
X139498959Y-86065339D01*
X139544195Y-86117543D01*
X139560151Y-86151762D01*
X139560154Y-86151767D01*
X139562477Y-86156749D01*
X139591338Y-86197966D01*
X139685502Y-86332446D01*
X139693802Y-86344300D01*
X139855700Y-86506198D01*
X139860208Y-86509355D01*
X139860211Y-86509357D01*
X139901542Y-86538297D01*
X140043251Y-86637523D01*
X140048233Y-86639846D01*
X140048238Y-86639849D01*
X140233311Y-86726149D01*
X140250757Y-86734284D01*
X140256065Y-86735706D01*
X140256067Y-86735707D01*
X140466598Y-86792119D01*
X140466600Y-86792119D01*
X140471913Y-86793543D01*
X140700000Y-86813498D01*
X140928087Y-86793543D01*
X140933400Y-86792119D01*
X140933402Y-86792119D01*
X141143933Y-86735707D01*
X141143935Y-86735706D01*
X141149243Y-86734284D01*
X141166689Y-86726149D01*
X141351762Y-86639849D01*
X141351767Y-86639846D01*
X141356749Y-86637523D01*
X141498458Y-86538297D01*
X141539789Y-86509357D01*
X141539792Y-86509355D01*
X141544300Y-86506198D01*
X141706198Y-86344300D01*
X141714499Y-86332446D01*
X141808662Y-86197966D01*
X141837523Y-86156749D01*
X141839846Y-86151767D01*
X141839849Y-86151762D01*
X141855805Y-86117543D01*
X141902722Y-86064258D01*
X141970999Y-86044797D01*
X142038959Y-86065339D01*
X142084195Y-86117543D01*
X142100151Y-86151762D01*
X142100154Y-86151767D01*
X142102477Y-86156749D01*
X142131338Y-86197966D01*
X142225502Y-86332446D01*
X142233802Y-86344300D01*
X142395700Y-86506198D01*
X142400208Y-86509355D01*
X142400211Y-86509357D01*
X142441542Y-86538297D01*
X142583251Y-86637523D01*
X142588233Y-86639846D01*
X142588238Y-86639849D01*
X142773311Y-86726149D01*
X142790757Y-86734284D01*
X142796065Y-86735706D01*
X142796067Y-86735707D01*
X143006598Y-86792119D01*
X143006600Y-86792119D01*
X143011913Y-86793543D01*
X143240000Y-86813498D01*
X143468087Y-86793543D01*
X143473400Y-86792119D01*
X143473402Y-86792119D01*
X143683933Y-86735707D01*
X143683935Y-86735706D01*
X143689243Y-86734284D01*
X143706689Y-86726149D01*
X143891762Y-86639849D01*
X143891767Y-86639846D01*
X143896749Y-86637523D01*
X144038458Y-86538297D01*
X144079789Y-86509357D01*
X144079792Y-86509355D01*
X144084300Y-86506198D01*
X144246198Y-86344300D01*
X144254499Y-86332446D01*
X144348662Y-86197966D01*
X144377523Y-86156749D01*
X144379846Y-86151767D01*
X144379849Y-86151762D01*
X144395805Y-86117543D01*
X144442722Y-86064258D01*
X144510999Y-86044797D01*
X144578959Y-86065339D01*
X144624195Y-86117543D01*
X144640151Y-86151762D01*
X144640154Y-86151767D01*
X144642477Y-86156749D01*
X144671338Y-86197966D01*
X144765502Y-86332446D01*
X144773802Y-86344300D01*
X144935700Y-86506198D01*
X144940208Y-86509355D01*
X144940211Y-86509357D01*
X144981542Y-86538297D01*
X145123251Y-86637523D01*
X145128233Y-86639846D01*
X145128238Y-86639849D01*
X145313311Y-86726149D01*
X145330757Y-86734284D01*
X145336065Y-86735706D01*
X145336067Y-86735707D01*
X145546598Y-86792119D01*
X145546600Y-86792119D01*
X145551913Y-86793543D01*
X145780000Y-86813498D01*
X146008087Y-86793543D01*
X146013400Y-86792119D01*
X146013402Y-86792119D01*
X146223933Y-86735707D01*
X146223935Y-86735706D01*
X146229243Y-86734284D01*
X146246689Y-86726149D01*
X146431762Y-86639849D01*
X146431767Y-86639846D01*
X146436749Y-86637523D01*
X146578458Y-86538297D01*
X146619789Y-86509357D01*
X146619792Y-86509355D01*
X146624300Y-86506198D01*
X146786198Y-86344300D01*
X146794499Y-86332446D01*
X146888662Y-86197966D01*
X146917523Y-86156749D01*
X146919846Y-86151767D01*
X146919849Y-86151762D01*
X146935805Y-86117543D01*
X146982722Y-86064258D01*
X147050999Y-86044797D01*
X147118959Y-86065339D01*
X147164195Y-86117543D01*
X147180151Y-86151762D01*
X147180154Y-86151767D01*
X147182477Y-86156749D01*
X147211338Y-86197966D01*
X147305502Y-86332446D01*
X147313802Y-86344300D01*
X147475700Y-86506198D01*
X147480208Y-86509355D01*
X147480211Y-86509357D01*
X147521542Y-86538297D01*
X147663251Y-86637523D01*
X147668233Y-86639846D01*
X147668238Y-86639849D01*
X147853311Y-86726149D01*
X147870757Y-86734284D01*
X147876065Y-86735706D01*
X147876067Y-86735707D01*
X148086598Y-86792119D01*
X148086600Y-86792119D01*
X148091913Y-86793543D01*
X148320000Y-86813498D01*
X148548087Y-86793543D01*
X148553400Y-86792119D01*
X148553402Y-86792119D01*
X148763933Y-86735707D01*
X148763935Y-86735706D01*
X148769243Y-86734284D01*
X148786689Y-86726149D01*
X148971762Y-86639849D01*
X148971767Y-86639846D01*
X148976749Y-86637523D01*
X149118458Y-86538297D01*
X149159789Y-86509357D01*
X149159792Y-86509355D01*
X149164300Y-86506198D01*
X149326198Y-86344300D01*
X149334499Y-86332446D01*
X149428662Y-86197966D01*
X149457523Y-86156749D01*
X149459846Y-86151767D01*
X149459849Y-86151762D01*
X149475805Y-86117543D01*
X149522722Y-86064258D01*
X149590999Y-86044797D01*
X149658959Y-86065339D01*
X149704195Y-86117543D01*
X149720151Y-86151762D01*
X149720154Y-86151767D01*
X149722477Y-86156749D01*
X149751338Y-86197966D01*
X149845502Y-86332446D01*
X149853802Y-86344300D01*
X150015700Y-86506198D01*
X150020208Y-86509355D01*
X150020211Y-86509357D01*
X150061542Y-86538297D01*
X150203251Y-86637523D01*
X150208233Y-86639846D01*
X150208238Y-86639849D01*
X150393311Y-86726149D01*
X150410757Y-86734284D01*
X150416065Y-86735706D01*
X150416067Y-86735707D01*
X150626598Y-86792119D01*
X150626600Y-86792119D01*
X150631913Y-86793543D01*
X150860000Y-86813498D01*
X151088087Y-86793543D01*
X151093400Y-86792119D01*
X151093402Y-86792119D01*
X151303933Y-86735707D01*
X151303935Y-86735706D01*
X151309243Y-86734284D01*
X151326689Y-86726149D01*
X151511762Y-86639849D01*
X151511767Y-86639846D01*
X151516749Y-86637523D01*
X151658458Y-86538297D01*
X151699789Y-86509357D01*
X151699792Y-86509355D01*
X151704300Y-86506198D01*
X151866198Y-86344300D01*
X151874499Y-86332446D01*
X151968662Y-86197966D01*
X151997523Y-86156749D01*
X151999846Y-86151767D01*
X151999849Y-86151762D01*
X152015805Y-86117543D01*
X152062722Y-86064258D01*
X152130999Y-86044797D01*
X152198959Y-86065339D01*
X152244195Y-86117543D01*
X152260151Y-86151762D01*
X152260154Y-86151767D01*
X152262477Y-86156749D01*
X152291338Y-86197966D01*
X152385502Y-86332446D01*
X152393802Y-86344300D01*
X152555700Y-86506198D01*
X152560208Y-86509355D01*
X152560211Y-86509357D01*
X152601542Y-86538297D01*
X152743251Y-86637523D01*
X152748233Y-86639846D01*
X152748238Y-86639849D01*
X152933311Y-86726149D01*
X152950757Y-86734284D01*
X152956065Y-86735706D01*
X152956067Y-86735707D01*
X153166598Y-86792119D01*
X153166600Y-86792119D01*
X153171913Y-86793543D01*
X153400000Y-86813498D01*
X153628087Y-86793543D01*
X153633400Y-86792119D01*
X153633402Y-86792119D01*
X153843933Y-86735707D01*
X153843935Y-86735706D01*
X153849243Y-86734284D01*
X153866689Y-86726149D01*
X154051762Y-86639849D01*
X154051767Y-86639846D01*
X154056749Y-86637523D01*
X154198458Y-86538297D01*
X154239789Y-86509357D01*
X154239792Y-86509355D01*
X154244300Y-86506198D01*
X154406198Y-86344300D01*
X154414499Y-86332446D01*
X154508662Y-86197966D01*
X154537523Y-86156749D01*
X154539846Y-86151767D01*
X154539849Y-86151762D01*
X154555805Y-86117543D01*
X154602722Y-86064258D01*
X154670999Y-86044797D01*
X154738959Y-86065339D01*
X154784195Y-86117543D01*
X154800151Y-86151762D01*
X154800154Y-86151767D01*
X154802477Y-86156749D01*
X154831338Y-86197966D01*
X154925502Y-86332446D01*
X154933802Y-86344300D01*
X155095700Y-86506198D01*
X155100208Y-86509355D01*
X155100211Y-86509357D01*
X155141542Y-86538297D01*
X155283251Y-86637523D01*
X155288233Y-86639846D01*
X155288238Y-86639849D01*
X155473311Y-86726149D01*
X155490757Y-86734284D01*
X155496065Y-86735706D01*
X155496067Y-86735707D01*
X155706598Y-86792119D01*
X155706600Y-86792119D01*
X155711913Y-86793543D01*
X155940000Y-86813498D01*
X156168087Y-86793543D01*
X156173400Y-86792119D01*
X156173402Y-86792119D01*
X156383933Y-86735707D01*
X156383935Y-86735706D01*
X156389243Y-86734284D01*
X156406689Y-86726149D01*
X156591762Y-86639849D01*
X156591767Y-86639846D01*
X156596749Y-86637523D01*
X156738458Y-86538297D01*
X156779789Y-86509357D01*
X156779792Y-86509355D01*
X156784300Y-86506198D01*
X156946198Y-86344300D01*
X156954499Y-86332446D01*
X157048662Y-86197966D01*
X157077523Y-86156749D01*
X157079846Y-86151767D01*
X157079849Y-86151762D01*
X157095805Y-86117543D01*
X157142722Y-86064258D01*
X157210999Y-86044797D01*
X157278959Y-86065339D01*
X157324195Y-86117543D01*
X157340151Y-86151762D01*
X157340154Y-86151767D01*
X157342477Y-86156749D01*
X157371338Y-86197966D01*
X157465502Y-86332446D01*
X157473802Y-86344300D01*
X157635700Y-86506198D01*
X157640208Y-86509355D01*
X157640211Y-86509357D01*
X157681542Y-86538297D01*
X157823251Y-86637523D01*
X157828233Y-86639846D01*
X157828238Y-86639849D01*
X158013311Y-86726149D01*
X158030757Y-86734284D01*
X158036065Y-86735706D01*
X158036067Y-86735707D01*
X158246598Y-86792119D01*
X158246600Y-86792119D01*
X158251913Y-86793543D01*
X158480000Y-86813498D01*
X158708087Y-86793543D01*
X158713400Y-86792119D01*
X158713402Y-86792119D01*
X158923933Y-86735707D01*
X158923935Y-86735706D01*
X158929243Y-86734284D01*
X158946689Y-86726149D01*
X159131762Y-86639849D01*
X159131767Y-86639846D01*
X159136749Y-86637523D01*
X159278458Y-86538297D01*
X159319789Y-86509357D01*
X159319792Y-86509355D01*
X159324300Y-86506198D01*
X159486198Y-86344300D01*
X159494499Y-86332446D01*
X159588662Y-86197966D01*
X159617523Y-86156749D01*
X159619846Y-86151767D01*
X159619849Y-86151762D01*
X159635805Y-86117543D01*
X159682722Y-86064258D01*
X159750999Y-86044797D01*
X159818959Y-86065339D01*
X159864195Y-86117543D01*
X159880151Y-86151762D01*
X159880154Y-86151767D01*
X159882477Y-86156749D01*
X159911338Y-86197966D01*
X160005502Y-86332446D01*
X160013802Y-86344300D01*
X160175700Y-86506198D01*
X160180208Y-86509355D01*
X160180211Y-86509357D01*
X160221542Y-86538297D01*
X160363251Y-86637523D01*
X160368233Y-86639846D01*
X160368238Y-86639849D01*
X160553311Y-86726149D01*
X160570757Y-86734284D01*
X160576065Y-86735706D01*
X160576067Y-86735707D01*
X160786598Y-86792119D01*
X160786600Y-86792119D01*
X160791913Y-86793543D01*
X161020000Y-86813498D01*
X161248087Y-86793543D01*
X161253400Y-86792119D01*
X161253402Y-86792119D01*
X161463933Y-86735707D01*
X161463935Y-86735706D01*
X161469243Y-86734284D01*
X161486689Y-86726149D01*
X161671762Y-86639849D01*
X161671767Y-86639846D01*
X161676749Y-86637523D01*
X161818458Y-86538297D01*
X161859789Y-86509357D01*
X161859792Y-86509355D01*
X161864300Y-86506198D01*
X162026198Y-86344300D01*
X162034499Y-86332446D01*
X162128662Y-86197966D01*
X162157523Y-86156749D01*
X162159846Y-86151767D01*
X162159849Y-86151762D01*
X162175805Y-86117543D01*
X162222722Y-86064258D01*
X162290999Y-86044797D01*
X162358959Y-86065339D01*
X162404195Y-86117543D01*
X162420151Y-86151762D01*
X162420154Y-86151767D01*
X162422477Y-86156749D01*
X162451338Y-86197966D01*
X162545502Y-86332446D01*
X162553802Y-86344300D01*
X162715700Y-86506198D01*
X162720208Y-86509355D01*
X162720211Y-86509357D01*
X162761542Y-86538297D01*
X162903251Y-86637523D01*
X162908233Y-86639846D01*
X162908238Y-86639849D01*
X163093311Y-86726149D01*
X163110757Y-86734284D01*
X163116065Y-86735706D01*
X163116067Y-86735707D01*
X163326598Y-86792119D01*
X163326600Y-86792119D01*
X163331913Y-86793543D01*
X163560000Y-86813498D01*
X163788087Y-86793543D01*
X163793400Y-86792119D01*
X163793402Y-86792119D01*
X164003933Y-86735707D01*
X164003935Y-86735706D01*
X164009243Y-86734284D01*
X164026689Y-86726149D01*
X164211762Y-86639849D01*
X164211767Y-86639846D01*
X164216749Y-86637523D01*
X164358458Y-86538297D01*
X164399789Y-86509357D01*
X164399792Y-86509355D01*
X164404300Y-86506198D01*
X164566198Y-86344300D01*
X164574499Y-86332446D01*
X164668662Y-86197966D01*
X164697523Y-86156749D01*
X164699846Y-86151767D01*
X164699849Y-86151762D01*
X164715805Y-86117543D01*
X164762722Y-86064258D01*
X164830999Y-86044797D01*
X164898959Y-86065339D01*
X164944195Y-86117543D01*
X164960151Y-86151762D01*
X164960154Y-86151767D01*
X164962477Y-86156749D01*
X164991338Y-86197966D01*
X165085502Y-86332446D01*
X165093802Y-86344300D01*
X165255700Y-86506198D01*
X165260208Y-86509355D01*
X165260211Y-86509357D01*
X165301542Y-86538297D01*
X165443251Y-86637523D01*
X165448233Y-86639846D01*
X165448238Y-86639849D01*
X165633311Y-86726149D01*
X165650757Y-86734284D01*
X165656065Y-86735706D01*
X165656067Y-86735707D01*
X165866598Y-86792119D01*
X165866600Y-86792119D01*
X165871913Y-86793543D01*
X166100000Y-86813498D01*
X166328087Y-86793543D01*
X166333400Y-86792119D01*
X166333402Y-86792119D01*
X166543933Y-86735707D01*
X166543935Y-86735706D01*
X166549243Y-86734284D01*
X166566689Y-86726149D01*
X166751762Y-86639849D01*
X166751767Y-86639846D01*
X166756749Y-86637523D01*
X166898458Y-86538297D01*
X166939789Y-86509357D01*
X166939792Y-86509355D01*
X166944300Y-86506198D01*
X167106198Y-86344300D01*
X167114499Y-86332446D01*
X167208662Y-86197966D01*
X167237523Y-86156749D01*
X167239846Y-86151767D01*
X167239849Y-86151762D01*
X167255805Y-86117543D01*
X167302722Y-86064258D01*
X167370999Y-86044797D01*
X167438959Y-86065339D01*
X167484195Y-86117543D01*
X167500151Y-86151762D01*
X167500154Y-86151767D01*
X167502477Y-86156749D01*
X167531338Y-86197966D01*
X167625502Y-86332446D01*
X167633802Y-86344300D01*
X167795700Y-86506198D01*
X167800208Y-86509355D01*
X167800211Y-86509357D01*
X167841542Y-86538297D01*
X167983251Y-86637523D01*
X167988233Y-86639846D01*
X167988238Y-86639849D01*
X168173311Y-86726149D01*
X168190757Y-86734284D01*
X168196065Y-86735706D01*
X168196067Y-86735707D01*
X168406598Y-86792119D01*
X168406600Y-86792119D01*
X168411913Y-86793543D01*
X168640000Y-86813498D01*
X168868087Y-86793543D01*
X168873400Y-86792119D01*
X168873402Y-86792119D01*
X169083933Y-86735707D01*
X169083935Y-86735706D01*
X169089243Y-86734284D01*
X169106689Y-86726149D01*
X169291762Y-86639849D01*
X169291767Y-86639846D01*
X169296749Y-86637523D01*
X169438458Y-86538297D01*
X169479789Y-86509357D01*
X169479792Y-86509355D01*
X169484300Y-86506198D01*
X169646198Y-86344300D01*
X169654499Y-86332446D01*
X169748662Y-86197966D01*
X169777523Y-86156749D01*
X169779846Y-86151767D01*
X169779849Y-86151762D01*
X169795805Y-86117543D01*
X169842722Y-86064258D01*
X169910999Y-86044797D01*
X169978959Y-86065339D01*
X170024195Y-86117543D01*
X170040151Y-86151762D01*
X170040154Y-86151767D01*
X170042477Y-86156749D01*
X170071338Y-86197966D01*
X170165502Y-86332446D01*
X170173802Y-86344300D01*
X170335700Y-86506198D01*
X170340208Y-86509355D01*
X170340211Y-86509357D01*
X170381542Y-86538297D01*
X170523251Y-86637523D01*
X170528233Y-86639846D01*
X170528238Y-86639849D01*
X170713311Y-86726149D01*
X170730757Y-86734284D01*
X170736065Y-86735706D01*
X170736067Y-86735707D01*
X170946598Y-86792119D01*
X170946600Y-86792119D01*
X170951913Y-86793543D01*
X171180000Y-86813498D01*
X171185475Y-86813019D01*
X171185486Y-86813019D01*
X171197430Y-86811974D01*
X171267035Y-86825962D01*
X171318027Y-86875361D01*
X171334218Y-86944487D01*
X171310466Y-87011393D01*
X171297507Y-87026589D01*
X162904500Y-95419595D01*
X162842188Y-95453621D01*
X162815405Y-95456500D01*
X158443200Y-95456500D01*
X158375079Y-95436498D01*
X158355853Y-95420157D01*
X158355580Y-95420460D01*
X158350668Y-95416037D01*
X158346253Y-95411134D01*
X158191752Y-95298882D01*
X158185724Y-95296198D01*
X158185722Y-95296197D01*
X158023319Y-95223891D01*
X158023318Y-95223891D01*
X158017288Y-95221206D01*
X157923887Y-95201353D01*
X157836944Y-95182872D01*
X157836939Y-95182872D01*
X157830487Y-95181500D01*
X157639513Y-95181500D01*
X157633061Y-95182872D01*
X157633056Y-95182872D01*
X157546113Y-95201353D01*
X157452712Y-95221206D01*
X157446682Y-95223891D01*
X157446681Y-95223891D01*
X157284278Y-95296197D01*
X157284276Y-95296198D01*
X157278248Y-95298882D01*
X157123747Y-95411134D01*
X157119326Y-95416044D01*
X157119325Y-95416045D01*
X157010203Y-95537238D01*
X156995960Y-95553056D01*
X156900473Y-95718444D01*
X156841458Y-95900072D01*
X156821496Y-96090000D01*
X156822186Y-96096565D01*
X156837670Y-96243884D01*
X156841458Y-96279928D01*
X156900473Y-96461556D01*
X156903776Y-96467278D01*
X156903777Y-96467279D01*
X156920947Y-96497018D01*
X156995960Y-96626944D01*
X157000378Y-96631851D01*
X157000379Y-96631852D01*
X157086905Y-96727949D01*
X157123747Y-96768866D01*
X157278248Y-96881118D01*
X157284276Y-96883802D01*
X157284278Y-96883803D01*
X157446681Y-96956109D01*
X157452712Y-96958794D01*
X157546112Y-96978647D01*
X157633056Y-96997128D01*
X157633061Y-96997128D01*
X157639513Y-96998500D01*
X157830487Y-96998500D01*
X157836939Y-96997128D01*
X157836944Y-96997128D01*
X157923888Y-96978647D01*
X158017288Y-96958794D01*
X158023319Y-96956109D01*
X158185722Y-96883803D01*
X158185724Y-96883802D01*
X158191752Y-96881118D01*
X158346253Y-96768866D01*
X158350668Y-96763963D01*
X158355580Y-96759540D01*
X158356705Y-96760789D01*
X158410014Y-96727949D01*
X158443200Y-96723500D01*
X163051233Y-96723500D01*
X163062416Y-96724027D01*
X163069909Y-96725702D01*
X163077835Y-96725453D01*
X163077836Y-96725453D01*
X163137986Y-96723562D01*
X163141945Y-96723500D01*
X163169856Y-96723500D01*
X163173791Y-96723003D01*
X163173856Y-96722995D01*
X163185693Y-96722062D01*
X163217951Y-96721048D01*
X163221970Y-96720922D01*
X163229889Y-96720673D01*
X163249343Y-96715021D01*
X163268700Y-96711013D01*
X163280930Y-96709468D01*
X163280931Y-96709468D01*
X163288797Y-96708474D01*
X163296168Y-96705555D01*
X163296170Y-96705555D01*
X163329912Y-96692196D01*
X163341142Y-96688351D01*
X163375983Y-96678229D01*
X163375984Y-96678229D01*
X163383593Y-96676018D01*
X163390412Y-96671985D01*
X163390417Y-96671983D01*
X163401028Y-96665707D01*
X163418776Y-96657012D01*
X163437617Y-96649552D01*
X163457987Y-96634753D01*
X163473387Y-96623564D01*
X163483307Y-96617048D01*
X163514535Y-96598580D01*
X163514538Y-96598578D01*
X163521362Y-96594542D01*
X163535683Y-96580221D01*
X163550717Y-96567380D01*
X163552432Y-96566134D01*
X163567107Y-96555472D01*
X163595298Y-96521395D01*
X163603288Y-96512616D01*
X173306752Y-86809152D01*
X173369064Y-86775126D01*
X173428459Y-86776541D01*
X173486591Y-86792118D01*
X173486602Y-86792120D01*
X173491913Y-86793543D01*
X173720000Y-86813498D01*
X173948087Y-86793543D01*
X173953400Y-86792119D01*
X173953402Y-86792119D01*
X174163933Y-86735707D01*
X174163935Y-86735706D01*
X174169243Y-86734284D01*
X174186689Y-86726149D01*
X174371762Y-86639849D01*
X174371767Y-86639846D01*
X174376749Y-86637523D01*
X174518458Y-86538297D01*
X174559789Y-86509357D01*
X174559792Y-86509355D01*
X174564300Y-86506198D01*
X174726198Y-86344300D01*
X174734499Y-86332446D01*
X174828662Y-86197966D01*
X174857523Y-86156749D01*
X174859846Y-86151767D01*
X174859849Y-86151762D01*
X174951961Y-85954225D01*
X174951961Y-85954224D01*
X174954284Y-85949243D01*
X175013543Y-85728087D01*
X175033498Y-85500000D01*
X175013543Y-85271913D01*
X174961243Y-85076727D01*
X174955707Y-85056067D01*
X174955706Y-85056065D01*
X174954284Y-85050757D01*
X174951961Y-85045775D01*
X174859849Y-84848238D01*
X174859846Y-84848233D01*
X174857523Y-84843251D01*
X174759648Y-84703471D01*
X174729357Y-84660211D01*
X174729355Y-84660208D01*
X174726198Y-84655700D01*
X174564300Y-84493802D01*
X174559792Y-84490645D01*
X174559789Y-84490643D01*
X174481611Y-84435902D01*
X174376749Y-84362477D01*
X174371767Y-84360154D01*
X174371762Y-84360151D01*
X174174225Y-84268039D01*
X174174224Y-84268039D01*
X174169243Y-84265716D01*
X174163935Y-84264294D01*
X174163933Y-84264293D01*
X173953402Y-84207881D01*
X173953400Y-84207881D01*
X173948087Y-84206457D01*
X173720000Y-84186502D01*
X173491913Y-84206457D01*
X173486600Y-84207881D01*
X173486598Y-84207881D01*
X173276067Y-84264293D01*
X173276065Y-84264294D01*
X173270757Y-84265716D01*
X173265776Y-84268039D01*
X173265775Y-84268039D01*
X173068238Y-84360151D01*
X173068233Y-84360154D01*
X173063251Y-84362477D01*
X172958389Y-84435902D01*
X172880211Y-84490643D01*
X172880208Y-84490645D01*
X172875700Y-84493802D01*
X172713802Y-84655700D01*
X172710645Y-84660208D01*
X172710643Y-84660211D01*
X172680352Y-84703471D01*
X172582477Y-84843251D01*
X172580154Y-84848233D01*
X172580151Y-84848238D01*
X172564195Y-84882457D01*
X172517278Y-84935742D01*
X172449001Y-84955203D01*
X172381041Y-84934661D01*
X172335805Y-84882457D01*
X172319849Y-84848238D01*
X172319846Y-84848233D01*
X172317523Y-84843251D01*
X172219648Y-84703471D01*
X172189357Y-84660211D01*
X172189355Y-84660208D01*
X172186198Y-84655700D01*
X172024300Y-84493802D01*
X172019792Y-84490645D01*
X172019789Y-84490643D01*
X171941611Y-84435902D01*
X171836749Y-84362477D01*
X171831767Y-84360154D01*
X171831762Y-84360151D01*
X171634225Y-84268039D01*
X171634224Y-84268039D01*
X171629243Y-84265716D01*
X171623935Y-84264294D01*
X171623933Y-84264293D01*
X171413402Y-84207881D01*
X171413400Y-84207881D01*
X171408087Y-84206457D01*
X171180000Y-84186502D01*
X170951913Y-84206457D01*
X170946600Y-84207881D01*
X170946598Y-84207881D01*
X170736067Y-84264293D01*
X170736065Y-84264294D01*
X170730757Y-84265716D01*
X170725776Y-84268039D01*
X170725775Y-84268039D01*
X170528238Y-84360151D01*
X170528233Y-84360154D01*
X170523251Y-84362477D01*
X170418389Y-84435902D01*
X170340211Y-84490643D01*
X170340208Y-84490645D01*
X170335700Y-84493802D01*
X170173802Y-84655700D01*
X170170645Y-84660208D01*
X170170643Y-84660211D01*
X170140352Y-84703471D01*
X170042477Y-84843251D01*
X170040154Y-84848233D01*
X170040151Y-84848238D01*
X170024195Y-84882457D01*
X169977278Y-84935742D01*
X169909001Y-84955203D01*
X169841041Y-84934661D01*
X169795805Y-84882457D01*
X169779849Y-84848238D01*
X169779846Y-84848233D01*
X169777523Y-84843251D01*
X169679648Y-84703471D01*
X169649357Y-84660211D01*
X169649355Y-84660208D01*
X169646198Y-84655700D01*
X169484300Y-84493802D01*
X169479792Y-84490645D01*
X169479789Y-84490643D01*
X169401611Y-84435902D01*
X169296749Y-84362477D01*
X169291767Y-84360154D01*
X169291762Y-84360151D01*
X169094225Y-84268039D01*
X169094224Y-84268039D01*
X169089243Y-84265716D01*
X169083935Y-84264294D01*
X169083933Y-84264293D01*
X168873402Y-84207881D01*
X168873400Y-84207881D01*
X168868087Y-84206457D01*
X168640000Y-84186502D01*
X168411913Y-84206457D01*
X168406600Y-84207881D01*
X168406598Y-84207881D01*
X168196067Y-84264293D01*
X168196065Y-84264294D01*
X168190757Y-84265716D01*
X168185776Y-84268039D01*
X168185775Y-84268039D01*
X167988238Y-84360151D01*
X167988233Y-84360154D01*
X167983251Y-84362477D01*
X167878389Y-84435902D01*
X167800211Y-84490643D01*
X167800208Y-84490645D01*
X167795700Y-84493802D01*
X167633802Y-84655700D01*
X167630645Y-84660208D01*
X167630643Y-84660211D01*
X167600352Y-84703471D01*
X167502477Y-84843251D01*
X167500154Y-84848233D01*
X167500151Y-84848238D01*
X167484195Y-84882457D01*
X167437278Y-84935742D01*
X167369001Y-84955203D01*
X167301041Y-84934661D01*
X167255805Y-84882457D01*
X167239849Y-84848238D01*
X167239846Y-84848233D01*
X167237523Y-84843251D01*
X167139648Y-84703471D01*
X167109357Y-84660211D01*
X167109355Y-84660208D01*
X167106198Y-84655700D01*
X166944300Y-84493802D01*
X166939792Y-84490645D01*
X166939789Y-84490643D01*
X166861611Y-84435902D01*
X166756749Y-84362477D01*
X166751767Y-84360154D01*
X166751762Y-84360151D01*
X166554225Y-84268039D01*
X166554224Y-84268039D01*
X166549243Y-84265716D01*
X166543935Y-84264294D01*
X166543933Y-84264293D01*
X166333402Y-84207881D01*
X166333400Y-84207881D01*
X166328087Y-84206457D01*
X166100000Y-84186502D01*
X165871913Y-84206457D01*
X165866600Y-84207881D01*
X165866598Y-84207881D01*
X165656067Y-84264293D01*
X165656065Y-84264294D01*
X165650757Y-84265716D01*
X165645776Y-84268039D01*
X165645775Y-84268039D01*
X165448238Y-84360151D01*
X165448233Y-84360154D01*
X165443251Y-84362477D01*
X165338389Y-84435902D01*
X165260211Y-84490643D01*
X165260208Y-84490645D01*
X165255700Y-84493802D01*
X165093802Y-84655700D01*
X165090645Y-84660208D01*
X165090643Y-84660211D01*
X165060352Y-84703471D01*
X164962477Y-84843251D01*
X164960154Y-84848233D01*
X164960151Y-84848238D01*
X164944195Y-84882457D01*
X164897278Y-84935742D01*
X164829001Y-84955203D01*
X164761041Y-84934661D01*
X164715805Y-84882457D01*
X164699849Y-84848238D01*
X164699846Y-84848233D01*
X164697523Y-84843251D01*
X164599648Y-84703471D01*
X164569357Y-84660211D01*
X164569355Y-84660208D01*
X164566198Y-84655700D01*
X164404300Y-84493802D01*
X164399792Y-84490645D01*
X164399789Y-84490643D01*
X164321611Y-84435902D01*
X164216749Y-84362477D01*
X164211767Y-84360154D01*
X164211762Y-84360151D01*
X164014225Y-84268039D01*
X164014224Y-84268039D01*
X164009243Y-84265716D01*
X164003935Y-84264294D01*
X164003933Y-84264293D01*
X163793402Y-84207881D01*
X163793400Y-84207881D01*
X163788087Y-84206457D01*
X163560000Y-84186502D01*
X163331913Y-84206457D01*
X163326600Y-84207881D01*
X163326598Y-84207881D01*
X163116067Y-84264293D01*
X163116065Y-84264294D01*
X163110757Y-84265716D01*
X163105776Y-84268039D01*
X163105775Y-84268039D01*
X162908238Y-84360151D01*
X162908233Y-84360154D01*
X162903251Y-84362477D01*
X162798389Y-84435902D01*
X162720211Y-84490643D01*
X162720208Y-84490645D01*
X162715700Y-84493802D01*
X162553802Y-84655700D01*
X162550645Y-84660208D01*
X162550643Y-84660211D01*
X162520352Y-84703471D01*
X162422477Y-84843251D01*
X162420154Y-84848233D01*
X162420151Y-84848238D01*
X162404195Y-84882457D01*
X162357278Y-84935742D01*
X162289001Y-84955203D01*
X162221041Y-84934661D01*
X162175805Y-84882457D01*
X162159849Y-84848238D01*
X162159846Y-84848233D01*
X162157523Y-84843251D01*
X162059648Y-84703471D01*
X162029357Y-84660211D01*
X162029355Y-84660208D01*
X162026198Y-84655700D01*
X161864300Y-84493802D01*
X161859792Y-84490645D01*
X161859789Y-84490643D01*
X161781611Y-84435902D01*
X161676749Y-84362477D01*
X161671767Y-84360154D01*
X161671762Y-84360151D01*
X161474225Y-84268039D01*
X161474224Y-84268039D01*
X161469243Y-84265716D01*
X161463935Y-84264294D01*
X161463933Y-84264293D01*
X161253402Y-84207881D01*
X161253400Y-84207881D01*
X161248087Y-84206457D01*
X161020000Y-84186502D01*
X160791913Y-84206457D01*
X160786600Y-84207881D01*
X160786598Y-84207881D01*
X160576067Y-84264293D01*
X160576065Y-84264294D01*
X160570757Y-84265716D01*
X160565776Y-84268039D01*
X160565775Y-84268039D01*
X160368238Y-84360151D01*
X160368233Y-84360154D01*
X160363251Y-84362477D01*
X160258389Y-84435902D01*
X160180211Y-84490643D01*
X160180208Y-84490645D01*
X160175700Y-84493802D01*
X160013802Y-84655700D01*
X160010645Y-84660208D01*
X160010643Y-84660211D01*
X159980352Y-84703471D01*
X159882477Y-84843251D01*
X159880154Y-84848233D01*
X159880151Y-84848238D01*
X159864195Y-84882457D01*
X159817278Y-84935742D01*
X159749001Y-84955203D01*
X159681041Y-84934661D01*
X159635805Y-84882457D01*
X159619849Y-84848238D01*
X159619846Y-84848233D01*
X159617523Y-84843251D01*
X159519648Y-84703471D01*
X159489357Y-84660211D01*
X159489355Y-84660208D01*
X159486198Y-84655700D01*
X159324300Y-84493802D01*
X159319792Y-84490645D01*
X159319789Y-84490643D01*
X159241611Y-84435902D01*
X159136749Y-84362477D01*
X159131767Y-84360154D01*
X159131762Y-84360151D01*
X158934225Y-84268039D01*
X158934224Y-84268039D01*
X158929243Y-84265716D01*
X158923935Y-84264294D01*
X158923933Y-84264293D01*
X158713402Y-84207881D01*
X158713400Y-84207881D01*
X158708087Y-84206457D01*
X158480000Y-84186502D01*
X158251913Y-84206457D01*
X158246600Y-84207881D01*
X158246598Y-84207881D01*
X158036067Y-84264293D01*
X158036065Y-84264294D01*
X158030757Y-84265716D01*
X158025776Y-84268039D01*
X158025775Y-84268039D01*
X157828238Y-84360151D01*
X157828233Y-84360154D01*
X157823251Y-84362477D01*
X157718389Y-84435902D01*
X157640211Y-84490643D01*
X157640208Y-84490645D01*
X157635700Y-84493802D01*
X157473802Y-84655700D01*
X157470645Y-84660208D01*
X157470643Y-84660211D01*
X157440352Y-84703471D01*
X157342477Y-84843251D01*
X157340154Y-84848233D01*
X157340151Y-84848238D01*
X157324195Y-84882457D01*
X157277278Y-84935742D01*
X157209001Y-84955203D01*
X157141041Y-84934661D01*
X157095805Y-84882457D01*
X157079849Y-84848238D01*
X157079846Y-84848233D01*
X157077523Y-84843251D01*
X156979648Y-84703471D01*
X156949357Y-84660211D01*
X156949355Y-84660208D01*
X156946198Y-84655700D01*
X156784300Y-84493802D01*
X156779792Y-84490645D01*
X156779789Y-84490643D01*
X156701611Y-84435902D01*
X156596749Y-84362477D01*
X156591767Y-84360154D01*
X156591762Y-84360151D01*
X156394225Y-84268039D01*
X156394224Y-84268039D01*
X156389243Y-84265716D01*
X156383935Y-84264294D01*
X156383933Y-84264293D01*
X156173402Y-84207881D01*
X156173400Y-84207881D01*
X156168087Y-84206457D01*
X155940000Y-84186502D01*
X155711913Y-84206457D01*
X155706600Y-84207881D01*
X155706598Y-84207881D01*
X155496067Y-84264293D01*
X155496065Y-84264294D01*
X155490757Y-84265716D01*
X155485776Y-84268039D01*
X155485775Y-84268039D01*
X155288238Y-84360151D01*
X155288233Y-84360154D01*
X155283251Y-84362477D01*
X155178389Y-84435902D01*
X155100211Y-84490643D01*
X155100208Y-84490645D01*
X155095700Y-84493802D01*
X154933802Y-84655700D01*
X154930645Y-84660208D01*
X154930643Y-84660211D01*
X154900352Y-84703471D01*
X154802477Y-84843251D01*
X154800154Y-84848233D01*
X154800151Y-84848238D01*
X154784195Y-84882457D01*
X154737278Y-84935742D01*
X154669001Y-84955203D01*
X154601041Y-84934661D01*
X154555805Y-84882457D01*
X154539849Y-84848238D01*
X154539846Y-84848233D01*
X154537523Y-84843251D01*
X154439648Y-84703471D01*
X154409357Y-84660211D01*
X154409355Y-84660208D01*
X154406198Y-84655700D01*
X154244300Y-84493802D01*
X154239792Y-84490645D01*
X154239789Y-84490643D01*
X154161611Y-84435902D01*
X154056749Y-84362477D01*
X154051767Y-84360154D01*
X154051762Y-84360151D01*
X153854225Y-84268039D01*
X153854224Y-84268039D01*
X153849243Y-84265716D01*
X153843935Y-84264294D01*
X153843933Y-84264293D01*
X153633402Y-84207881D01*
X153633400Y-84207881D01*
X153628087Y-84206457D01*
X153400000Y-84186502D01*
X153171913Y-84206457D01*
X153166600Y-84207881D01*
X153166598Y-84207881D01*
X152956067Y-84264293D01*
X152956065Y-84264294D01*
X152950757Y-84265716D01*
X152945776Y-84268039D01*
X152945775Y-84268039D01*
X152748238Y-84360151D01*
X152748233Y-84360154D01*
X152743251Y-84362477D01*
X152638389Y-84435902D01*
X152560211Y-84490643D01*
X152560208Y-84490645D01*
X152555700Y-84493802D01*
X152393802Y-84655700D01*
X152390645Y-84660208D01*
X152390643Y-84660211D01*
X152360352Y-84703471D01*
X152262477Y-84843251D01*
X152260154Y-84848233D01*
X152260151Y-84848238D01*
X152244195Y-84882457D01*
X152197278Y-84935742D01*
X152129001Y-84955203D01*
X152061041Y-84934661D01*
X152015805Y-84882457D01*
X151999849Y-84848238D01*
X151999846Y-84848233D01*
X151997523Y-84843251D01*
X151899648Y-84703471D01*
X151869357Y-84660211D01*
X151869355Y-84660208D01*
X151866198Y-84655700D01*
X151704300Y-84493802D01*
X151699792Y-84490645D01*
X151699789Y-84490643D01*
X151621611Y-84435902D01*
X151516749Y-84362477D01*
X151511767Y-84360154D01*
X151511762Y-84360151D01*
X151314225Y-84268039D01*
X151314224Y-84268039D01*
X151309243Y-84265716D01*
X151303935Y-84264294D01*
X151303933Y-84264293D01*
X151093402Y-84207881D01*
X151093400Y-84207881D01*
X151088087Y-84206457D01*
X150860000Y-84186502D01*
X150631913Y-84206457D01*
X150626600Y-84207881D01*
X150626598Y-84207881D01*
X150416067Y-84264293D01*
X150416065Y-84264294D01*
X150410757Y-84265716D01*
X150405776Y-84268039D01*
X150405775Y-84268039D01*
X150208238Y-84360151D01*
X150208233Y-84360154D01*
X150203251Y-84362477D01*
X150098389Y-84435902D01*
X150020211Y-84490643D01*
X150020208Y-84490645D01*
X150015700Y-84493802D01*
X149853802Y-84655700D01*
X149850645Y-84660208D01*
X149850643Y-84660211D01*
X149820352Y-84703471D01*
X149722477Y-84843251D01*
X149720154Y-84848233D01*
X149720151Y-84848238D01*
X149704195Y-84882457D01*
X149657278Y-84935742D01*
X149589001Y-84955203D01*
X149521041Y-84934661D01*
X149475805Y-84882457D01*
X149459849Y-84848238D01*
X149459846Y-84848233D01*
X149457523Y-84843251D01*
X149359648Y-84703471D01*
X149329357Y-84660211D01*
X149329355Y-84660208D01*
X149326198Y-84655700D01*
X149164300Y-84493802D01*
X149159792Y-84490645D01*
X149159789Y-84490643D01*
X149081611Y-84435902D01*
X148976749Y-84362477D01*
X148971767Y-84360154D01*
X148971762Y-84360151D01*
X148774225Y-84268039D01*
X148774224Y-84268039D01*
X148769243Y-84265716D01*
X148763935Y-84264294D01*
X148763933Y-84264293D01*
X148553402Y-84207881D01*
X148553400Y-84207881D01*
X148548087Y-84206457D01*
X148320000Y-84186502D01*
X148091913Y-84206457D01*
X148086600Y-84207881D01*
X148086598Y-84207881D01*
X147876067Y-84264293D01*
X147876065Y-84264294D01*
X147870757Y-84265716D01*
X147865776Y-84268039D01*
X147865775Y-84268039D01*
X147668238Y-84360151D01*
X147668233Y-84360154D01*
X147663251Y-84362477D01*
X147558389Y-84435902D01*
X147480211Y-84490643D01*
X147480208Y-84490645D01*
X147475700Y-84493802D01*
X147313802Y-84655700D01*
X147310645Y-84660208D01*
X147310643Y-84660211D01*
X147280352Y-84703471D01*
X147182477Y-84843251D01*
X147180154Y-84848233D01*
X147180151Y-84848238D01*
X147164195Y-84882457D01*
X147117278Y-84935742D01*
X147049001Y-84955203D01*
X146981041Y-84934661D01*
X146935805Y-84882457D01*
X146919849Y-84848238D01*
X146919846Y-84848233D01*
X146917523Y-84843251D01*
X146819648Y-84703471D01*
X146789357Y-84660211D01*
X146789355Y-84660208D01*
X146786198Y-84655700D01*
X146624300Y-84493802D01*
X146619792Y-84490645D01*
X146619789Y-84490643D01*
X146541611Y-84435902D01*
X146436749Y-84362477D01*
X146431767Y-84360154D01*
X146431762Y-84360151D01*
X146234225Y-84268039D01*
X146234224Y-84268039D01*
X146229243Y-84265716D01*
X146223935Y-84264294D01*
X146223933Y-84264293D01*
X146013402Y-84207881D01*
X146013400Y-84207881D01*
X146008087Y-84206457D01*
X145780000Y-84186502D01*
X145551913Y-84206457D01*
X145546600Y-84207881D01*
X145546598Y-84207881D01*
X145336067Y-84264293D01*
X145336065Y-84264294D01*
X145330757Y-84265716D01*
X145325776Y-84268039D01*
X145325775Y-84268039D01*
X145128238Y-84360151D01*
X145128233Y-84360154D01*
X145123251Y-84362477D01*
X145018389Y-84435902D01*
X144940211Y-84490643D01*
X144940208Y-84490645D01*
X144935700Y-84493802D01*
X144773802Y-84655700D01*
X144770645Y-84660208D01*
X144770643Y-84660211D01*
X144740352Y-84703471D01*
X144642477Y-84843251D01*
X144640154Y-84848233D01*
X144640151Y-84848238D01*
X144624195Y-84882457D01*
X144577278Y-84935742D01*
X144509001Y-84955203D01*
X144441041Y-84934661D01*
X144395805Y-84882457D01*
X144379849Y-84848238D01*
X144379846Y-84848233D01*
X144377523Y-84843251D01*
X144279648Y-84703471D01*
X144249357Y-84660211D01*
X144249355Y-84660208D01*
X144246198Y-84655700D01*
X144084300Y-84493802D01*
X144079792Y-84490645D01*
X144079789Y-84490643D01*
X144001611Y-84435902D01*
X143896749Y-84362477D01*
X143891767Y-84360154D01*
X143891762Y-84360151D01*
X143694225Y-84268039D01*
X143694224Y-84268039D01*
X143689243Y-84265716D01*
X143683935Y-84264294D01*
X143683933Y-84264293D01*
X143473402Y-84207881D01*
X143473400Y-84207881D01*
X143468087Y-84206457D01*
X143240000Y-84186502D01*
X143011913Y-84206457D01*
X143006600Y-84207881D01*
X143006598Y-84207881D01*
X142796067Y-84264293D01*
X142796065Y-84264294D01*
X142790757Y-84265716D01*
X142785776Y-84268039D01*
X142785775Y-84268039D01*
X142588238Y-84360151D01*
X142588233Y-84360154D01*
X142583251Y-84362477D01*
X142478389Y-84435902D01*
X142400211Y-84490643D01*
X142400208Y-84490645D01*
X142395700Y-84493802D01*
X142233802Y-84655700D01*
X142230645Y-84660208D01*
X142230643Y-84660211D01*
X142200352Y-84703471D01*
X142102477Y-84843251D01*
X142100154Y-84848233D01*
X142100151Y-84848238D01*
X142084195Y-84882457D01*
X142037278Y-84935742D01*
X141969001Y-84955203D01*
X141901041Y-84934661D01*
X141855805Y-84882457D01*
X141839849Y-84848238D01*
X141839846Y-84848233D01*
X141837523Y-84843251D01*
X141739648Y-84703471D01*
X141709357Y-84660211D01*
X141709355Y-84660208D01*
X141706198Y-84655700D01*
X141544300Y-84493802D01*
X141539792Y-84490645D01*
X141539789Y-84490643D01*
X141461611Y-84435902D01*
X141356749Y-84362477D01*
X141351767Y-84360154D01*
X141351762Y-84360151D01*
X141154225Y-84268039D01*
X141154224Y-84268039D01*
X141149243Y-84265716D01*
X141143935Y-84264294D01*
X141143933Y-84264293D01*
X140933402Y-84207881D01*
X140933400Y-84207881D01*
X140928087Y-84206457D01*
X140700000Y-84186502D01*
X140471913Y-84206457D01*
X140466600Y-84207881D01*
X140466598Y-84207881D01*
X140256067Y-84264293D01*
X140256065Y-84264294D01*
X140250757Y-84265716D01*
X140245776Y-84268039D01*
X140245775Y-84268039D01*
X140048238Y-84360151D01*
X140048233Y-84360154D01*
X140043251Y-84362477D01*
X139938389Y-84435902D01*
X139860211Y-84490643D01*
X139860208Y-84490645D01*
X139855700Y-84493802D01*
X139693802Y-84655700D01*
X139690645Y-84660208D01*
X139690643Y-84660211D01*
X139660352Y-84703471D01*
X139562477Y-84843251D01*
X139560154Y-84848233D01*
X139560151Y-84848238D01*
X139544195Y-84882457D01*
X139497278Y-84935742D01*
X139429001Y-84955203D01*
X139361041Y-84934661D01*
X139315805Y-84882457D01*
X139299849Y-84848238D01*
X139299846Y-84848233D01*
X139297523Y-84843251D01*
X139199648Y-84703471D01*
X139169357Y-84660211D01*
X139169355Y-84660208D01*
X139166198Y-84655700D01*
X139004300Y-84493802D01*
X138999792Y-84490645D01*
X138999789Y-84490643D01*
X138921611Y-84435902D01*
X138816749Y-84362477D01*
X138811767Y-84360154D01*
X138811762Y-84360151D01*
X138614225Y-84268039D01*
X138614224Y-84268039D01*
X138609243Y-84265716D01*
X138603935Y-84264294D01*
X138603933Y-84264293D01*
X138393402Y-84207881D01*
X138393400Y-84207881D01*
X138388087Y-84206457D01*
X138160000Y-84186502D01*
X137931913Y-84206457D01*
X137926600Y-84207881D01*
X137926598Y-84207881D01*
X137716067Y-84264293D01*
X137716065Y-84264294D01*
X137710757Y-84265716D01*
X137705776Y-84268039D01*
X137705775Y-84268039D01*
X137508238Y-84360151D01*
X137508233Y-84360154D01*
X137503251Y-84362477D01*
X137398389Y-84435902D01*
X137320211Y-84490643D01*
X137320208Y-84490645D01*
X137315700Y-84493802D01*
X137153802Y-84655700D01*
X137150645Y-84660208D01*
X137150643Y-84660211D01*
X137120352Y-84703471D01*
X137022477Y-84843251D01*
X137020154Y-84848233D01*
X137020151Y-84848238D01*
X137004195Y-84882457D01*
X136957278Y-84935742D01*
X136889001Y-84955203D01*
X136821041Y-84934661D01*
X136775805Y-84882457D01*
X136759849Y-84848238D01*
X136759846Y-84848233D01*
X136757523Y-84843251D01*
X136659648Y-84703471D01*
X136629357Y-84660211D01*
X136629355Y-84660208D01*
X136626198Y-84655700D01*
X136464300Y-84493802D01*
X136459792Y-84490645D01*
X136459789Y-84490643D01*
X136381611Y-84435902D01*
X136276749Y-84362477D01*
X136271767Y-84360154D01*
X136271762Y-84360151D01*
X136074225Y-84268039D01*
X136074224Y-84268039D01*
X136069243Y-84265716D01*
X136063935Y-84264294D01*
X136063933Y-84264293D01*
X135853402Y-84207881D01*
X135853400Y-84207881D01*
X135848087Y-84206457D01*
X135620000Y-84186502D01*
X135391913Y-84206457D01*
X135386600Y-84207881D01*
X135386598Y-84207881D01*
X135176067Y-84264293D01*
X135176065Y-84264294D01*
X135170757Y-84265716D01*
X135165776Y-84268039D01*
X135165775Y-84268039D01*
X134968238Y-84360151D01*
X134968233Y-84360154D01*
X134963251Y-84362477D01*
X134858389Y-84435902D01*
X134780211Y-84490643D01*
X134780208Y-84490645D01*
X134775700Y-84493802D01*
X134613802Y-84655700D01*
X134610645Y-84660208D01*
X134610643Y-84660211D01*
X134580352Y-84703471D01*
X134482477Y-84843251D01*
X134480154Y-84848233D01*
X134480151Y-84848238D01*
X134464195Y-84882457D01*
X134417278Y-84935742D01*
X134349001Y-84955203D01*
X134281041Y-84934661D01*
X134235805Y-84882457D01*
X134219849Y-84848238D01*
X134219846Y-84848233D01*
X134217523Y-84843251D01*
X134119648Y-84703471D01*
X134089357Y-84660211D01*
X134089355Y-84660208D01*
X134086198Y-84655700D01*
X133924300Y-84493802D01*
X133919792Y-84490645D01*
X133919789Y-84490643D01*
X133841611Y-84435902D01*
X133736749Y-84362477D01*
X133731767Y-84360154D01*
X133731762Y-84360151D01*
X133534225Y-84268039D01*
X133534224Y-84268039D01*
X133529243Y-84265716D01*
X133523935Y-84264294D01*
X133523933Y-84264293D01*
X133313402Y-84207881D01*
X133313400Y-84207881D01*
X133308087Y-84206457D01*
X133080000Y-84186502D01*
X132851913Y-84206457D01*
X132846600Y-84207881D01*
X132846598Y-84207881D01*
X132636067Y-84264293D01*
X132636065Y-84264294D01*
X132630757Y-84265716D01*
X132625776Y-84268039D01*
X132625775Y-84268039D01*
X132428238Y-84360151D01*
X132428233Y-84360154D01*
X132423251Y-84362477D01*
X132318389Y-84435902D01*
X132240211Y-84490643D01*
X132240208Y-84490645D01*
X132235700Y-84493802D01*
X132073802Y-84655700D01*
X132070645Y-84660208D01*
X132070643Y-84660211D01*
X132040352Y-84703471D01*
X131942477Y-84843251D01*
X131940154Y-84848233D01*
X131940151Y-84848238D01*
X131924195Y-84882457D01*
X131877278Y-84935742D01*
X131809001Y-84955203D01*
X131741041Y-84934661D01*
X131695805Y-84882457D01*
X131679849Y-84848238D01*
X131679846Y-84848233D01*
X131677523Y-84843251D01*
X131579648Y-84703471D01*
X131549357Y-84660211D01*
X131549355Y-84660208D01*
X131546198Y-84655700D01*
X131384300Y-84493802D01*
X131379792Y-84490645D01*
X131379789Y-84490643D01*
X131301611Y-84435902D01*
X131196749Y-84362477D01*
X131191767Y-84360154D01*
X131191762Y-84360151D01*
X130994225Y-84268039D01*
X130994224Y-84268039D01*
X130989243Y-84265716D01*
X130983935Y-84264294D01*
X130983933Y-84264293D01*
X130773402Y-84207881D01*
X130773400Y-84207881D01*
X130768087Y-84206457D01*
X130540000Y-84186502D01*
X130311913Y-84206457D01*
X130306600Y-84207881D01*
X130306598Y-84207881D01*
X130096067Y-84264293D01*
X130096065Y-84264294D01*
X130090757Y-84265716D01*
X130085776Y-84268039D01*
X130085775Y-84268039D01*
X129888238Y-84360151D01*
X129888233Y-84360154D01*
X129883251Y-84362477D01*
X129778389Y-84435902D01*
X129700211Y-84490643D01*
X129700208Y-84490645D01*
X129695700Y-84493802D01*
X129533802Y-84655700D01*
X129530643Y-84660211D01*
X129527108Y-84664424D01*
X129525974Y-84663473D01*
X129475929Y-84703471D01*
X129405310Y-84710776D01*
X129341951Y-84678742D01*
X129305970Y-84617538D01*
X129302918Y-84600483D01*
X129301745Y-84589684D01*
X129250615Y-84453295D01*
X129163261Y-84336739D01*
X129046705Y-84249385D01*
X128910316Y-84198255D01*
X128848134Y-84191500D01*
X127151866Y-84191500D01*
X127089684Y-84198255D01*
X126953295Y-84249385D01*
X126836739Y-84336739D01*
X126749385Y-84453295D01*
X126698255Y-84589684D01*
X126691500Y-84651866D01*
X126691500Y-86348134D01*
X125438500Y-86348134D01*
X125438500Y-85031866D01*
X125431745Y-84969684D01*
X125380615Y-84833295D01*
X125293261Y-84716739D01*
X125176705Y-84629385D01*
X125040316Y-84578255D01*
X124978134Y-84571500D01*
X123181866Y-84571500D01*
X123119684Y-84578255D01*
X122983295Y-84629385D01*
X122866739Y-84716739D01*
X122779385Y-84833295D01*
X122776233Y-84841703D01*
X122776232Y-84841705D01*
X122734722Y-84952433D01*
X122692081Y-85009198D01*
X122625519Y-85033898D01*
X122556170Y-85018691D01*
X122523546Y-84993004D01*
X122472799Y-84937234D01*
X122465273Y-84930215D01*
X122298139Y-84798222D01*
X122289552Y-84792517D01*
X122103117Y-84689599D01*
X122093705Y-84685369D01*
X121892959Y-84614280D01*
X121882988Y-84611646D01*
X121811837Y-84598972D01*
X121798540Y-84600432D01*
X121794000Y-84614989D01*
X121794000Y-87248517D01*
X121286000Y-87248517D01*
X121286000Y-86202115D01*
X121281525Y-86186876D01*
X121280135Y-86185671D01*
X121272452Y-86184000D01*
X120223225Y-86184000D01*
X120209694Y-86187973D01*
X120208257Y-86197966D01*
X119635000Y-86197966D01*
X119635000Y-85664183D01*
X120204389Y-85664183D01*
X120205912Y-85672607D01*
X120218292Y-85676000D01*
X121267885Y-85676000D01*
X121283124Y-85671525D01*
X121284329Y-85670135D01*
X121286000Y-85662452D01*
X121286000Y-84613102D01*
X121282082Y-84599758D01*
X121267806Y-84597771D01*
X121229324Y-84603660D01*
X121219288Y-84606051D01*
X121016868Y-84672212D01*
X121007359Y-84676209D01*
X120818463Y-84774542D01*
X120809738Y-84780036D01*
X120639433Y-84907905D01*
X120631726Y-84914748D01*
X120484590Y-85068717D01*
X120478104Y-85076727D01*
X120358098Y-85252649D01*
X120353000Y-85261623D01*
X120263338Y-85454783D01*
X120259775Y-85464470D01*
X120204389Y-85664183D01*
X119635000Y-85664183D01*
X119635000Y-73991000D01*
X119655002Y-73922879D01*
X119708658Y-73876386D01*
X119761000Y-73865000D01*
X184279000Y-73865000D01*
X184347121Y-73885002D01*
G37*
%TD.AperFunction*%
%TD*%
M02*
